SplineFontDB: 3.2
FontName: T_Font03
FullName: T_Font03
FamilyName: T_Font03
Weight: Regular
Copyright: 
Version: 1.1
ItalicAngle: 0
UnderlinePosition: -125
UnderlineWidth: 60
Ascent: 800
Descent: 200
InvalidEm: 0
sfntRevision: 0x00010041
LayerCount: 2
Layer: 0 1 "Back" 1
Layer: 1 1 "Fore" 0
XUID: [1021 615 1667192188 21458]
StyleMap: 0x0040
FSType: 0
OS2Version: 4
OS2_WeightWidthSlopeOnly: 0
OS2_UseTypoMetrics: 1
CreationTime: 1570189500
ModificationTime: 1773592313
PfmFamily: 17
TTFWeight: 400
TTFWidth: 5
LineGap: 0
VLineGap: 0
Panose: 2 11 5 3 5 2 3 0 2 3
OS2TypoAscent: 1116
OS2TypoAOffset: 0
OS2TypoDescent: -534
OS2TypoDOffset: 0
OS2TypoLinegap: 0
OS2WinAscent: 1116
OS2WinAOffset: 0
OS2WinDescent: 534
OS2WinDOffset: 0
HheadAscent: 1116
HheadAOffset: 0
HheadDescent: -534
HheadDOffset: 0
OS2SubXSize: 650
OS2SubYSize: 600
OS2SubXOff: 0
OS2SubYOff: 75
OS2SupXSize: 650
OS2SupYSize: 600
OS2SupXOff: 0
OS2SupYOff: 350
OS2StrikeYSize: 60
OS2StrikeYPos: 309
OS2CapHeight: 698
OS2XHeight: 516
OS2Vendor: 'IBM '
OS2CodePages: 20010101.00000000
OS2UnicodeRanges: 81000063.5000003b.00000000.00000000
Lookup: 1 0 0 "'aalt' Access All Alternates lookup 0" { "'aalt' Access All Alternates lookup 0 subtable"  } ['aalt' ('DFLT' <'dflt' > 'latn' <'dflt' > 'thai' <'PAL ' 'SAN ' 'THA ' 'dflt' > ) ]
Lookup: 3 0 0 "'aalt' Access All Alternates lookup 1" { "'aalt' Access All Alternates lookup 1 subtable"  } ['aalt' ('DFLT' <'dflt' > 'latn' <'dflt' > 'thai' <'PAL ' 'SAN ' 'THA ' 'dflt' > ) ]
Lookup: 2 0 0 "'ccmp' Glyph Composition/Decomposition lookup 2" { "'ccmp' Glyph Composition/Decomposition lookup 2 subtable"  } ['ccmp' ('DFLT' <'dflt' > 'latn' <'dflt' > 'thai' <'PAL ' 'SAN ' 'THA ' 'dflt' > ) ]
Lookup: 6 0 0 "'calt' Contextual Alternates lookup 3" { "'calt' Contextual Alternates lookup 3 subtable"  } ['calt' ('DFLT' <'dflt' > 'latn' <'dflt' > 'thai' <'PAL ' 'SAN ' 'THA ' 'dflt' > ) ]

StartChar: .notdef
Encoding: 65536 -1 0
Width: 472
GlyphClass: 1
Flags: W
LayerCount: 2
Fore
SplineSet
32 0 m 1,0,-1
 32 780 l 1,1,-1
 440 780 l 1,2,-1
 440 0 l 1,3,-1
 32 0 l 1,0,-1
92 60 m 1,4,-1
 380 60 l 1,5,-1
 380 720 l 1,6,-1
 92 720 l 1,7,-1
 92 60 l 1,4,-1
EndSplineSet
EndChar

StartChar: a
Encoding: 97 97 4
Width: 534
GlyphClass: 2
Flags: W
LayerCount: 2
Fore
SplineSet
460 0 m 2,0,1
 415 0 415 0 395.5 24 c 128,-1,2
 376 48 376 48 371 84 c 1,3,-1
 366 84 l 1,4,5
 349 36 349 36 310 12 c 128,-1,6
 271 -12 271 -12 217 -12 c 0,7,8
 135 -12 135 -12 89.5 30 c 128,-1,9
 44 72 44 72 44 144 c 0,10,11
 44 217 44 217 97.5 256 c 128,-1,12
 151 295 151 295 264 295 c 2,13,-1
 366 295 l 1,14,-1
 366 346 l 2,15,16
 366 401 366 401 336 430 c 128,-1,17
 306 459 306 459 244 459 c 0,18,19
 197 459 197 459 165.5 438 c 128,-1,20
 134 417 134 417 113 382 c 1,21,-1
 65 427 l 1,22,23
 86 469 86 469 132 498.5 c 128,-1,24
 178 528 178 528 248 528 c 0,25,26
 342 528 342 528 394 482 c 128,-1,27
 446 436 446 436 446 354 c 2,28,-1
 446 70 l 1,29,-1
 505 70 l 1,30,-1
 505 0 l 1,31,-1
 460 0 l 2,0,1
230 56 m 0,32,33
 260 56 260 56 285 63 c 128,-1,34
 310 70 310 70 328 83 c 128,-1,35
 346 96 346 96 356 113 c 128,-1,36
 366 130 366 130 366 150 c 2,37,-1
 366 235 l 1,38,-1
 260 235 l 2,39,40
 191 235 191 235 159.5 215 c 128,-1,41
 128 195 128 195 128 157 c 2,42,-1
 128 136 l 2,43,44
 128 98 128 98 155.5 77 c 128,-1,45
 183 56 183 56 230 56 c 0,32,33
EndSplineSet
Substitution2: "'salt' Stylistic Alternatives lookup 28 subtable" a.alt01
Substitution2: "'ss01' Style Set 1 lookup 23 subtable" a.alt01
Substitution2: "'ordn' Ordinals lookup 14 subtable" ordfeminine
Substitution2: "'aalt' Access All Alternates lookup 0 subtable" a.alt01
EndChar

StartChar: a.alt01
Encoding: 65537 -1 5
Width: 580
GlyphClass: 2
Flags: W
LayerCount: 2
Fore
SplineSet
415 84 m 1,0,-1
 411 84 l 1,1,2
 364 -12 364 -12 260 -12 c 0,3,4
 212 -12 212 -12 173 7 c 128,-1,5
 134 26 134 26 106.5 61 c 128,-1,6
 79 96 79 96 64.5 146 c 128,-1,7
 50 196 50 196 50 258 c 256,8,9
 50 320 50 320 64.5 370 c 128,-1,10
 79 420 79 420 106.5 455 c 128,-1,11
 134 490 134 490 173 509 c 128,-1,12
 212 528 212 528 260 528 c 0,13,14
 314 528 314 528 352.5 504.5 c 128,-1,15
 391 481 391 481 411 432 c 1,16,-1
 415 432 l 1,17,-1
 415 516 l 1,18,-1
 495 516 l 1,19,-1
 495 0 l 1,20,-1
 415 0 l 1,21,-1
 415 84 l 1,0,-1
282 60 m 0,22,23
 309 60 309 60 333.5 67 c 128,-1,24
 358 74 358 74 376 87.5 c 128,-1,25
 394 101 394 101 404.5 120.5 c 128,-1,26
 415 140 415 140 415 165 c 2,27,-1
 415 357 l 2,28,29
 415 378 415 378 404.5 396.5 c 128,-1,30
 394 415 394 415 376 428 c 128,-1,31
 358 441 358 441 333.5 448.5 c 128,-1,32
 309 456 309 456 282 456 c 0,33,34
 214 456 214 456 175 413.5 c 128,-1,35
 136 371 136 371 136 302 c 2,36,-1
 136 214 l 2,37,38
 136 145 136 145 175 102.5 c 128,-1,39
 214 60 214 60 282 60 c 0,22,23
EndSplineSet
EndChar

StartChar: b
Encoding: 98 98 6
Width: 580
GlyphClass: 2
Flags: W
LayerCount: 2
Fore
SplineSet
85 740 m 1,0,-1
 165 740 l 1,1,-1
 165 432 l 1,2,-1
 169 432 l 1,3,4
 189 481 189 481 227.5 504.5 c 128,-1,5
 266 528 266 528 320 528 c 0,6,7
 368 528 368 528 407 509 c 128,-1,8
 446 490 446 490 473.5 455 c 128,-1,9
 501 420 501 420 515.5 370 c 128,-1,10
 530 320 530 320 530 258 c 256,11,12
 530 196 530 196 515.5 146 c 128,-1,13
 501 96 501 96 473.5 61 c 128,-1,14
 446 26 446 26 407 7 c 128,-1,15
 368 -12 368 -12 320 -12 c 0,16,17
 215 -12 215 -12 169 84 c 1,18,-1
 165 84 l 1,19,-1
 165 0 l 1,20,-1
 85 0 l 1,21,-1
 85 740 l 1,0,-1
298 60 m 0,22,23
 366 60 366 60 405 102.5 c 128,-1,24
 444 145 444 145 444 214 c 2,25,-1
 444 302 l 2,26,27
 444 371 444 371 405 413.5 c 128,-1,28
 366 456 366 456 298 456 c 0,29,30
 271 456 271 456 246.5 448.5 c 128,-1,31
 222 441 222 441 204 428 c 128,-1,32
 186 415 186 415 175.5 396.5 c 128,-1,33
 165 378 165 378 165 357 c 2,34,-1
 165 165 l 2,35,36
 165 140 165 140 175.5 120.5 c 128,-1,37
 186 101 186 101 204 87.5 c 128,-1,38
 222 74 222 74 246.5 67 c 128,-1,39
 271 60 271 60 298 60 c 0,22,23
EndSplineSet
EndChar

StartChar: c
Encoding: 99 99 7
Width: 503
GlyphClass: 2
Flags: W
LayerCount: 2
Fore
SplineSet
277 -12 m 0,0,1
 223 -12 223 -12 180 7 c 128,-1,2
 137 26 137 26 107.5 61 c 128,-1,3
 78 96 78 96 62.5 146 c 128,-1,4
 47 196 47 196 47 258 c 256,5,6
 47 320 47 320 62.5 370 c 128,-1,7
 78 420 78 420 107.5 455 c 128,-1,8
 137 490 137 490 180 509 c 128,-1,9
 223 528 223 528 277 528 c 0,10,11
 354 528 354 528 400.5 494.5 c 128,-1,12
 447 461 447 461 470 407 c 1,13,-1
 403 373 l 1,14,15
 389 413 389 413 357 435 c 128,-1,16
 325 457 325 457 277 457 c 0,17,18
 241 457 241 457 214 445.5 c 128,-1,19
 187 434 187 434 169 413.5 c 128,-1,20
 151 393 151 393 142 364.5 c 128,-1,21
 133 336 133 336 133 302 c 2,22,-1
 133 214 l 2,23,24
 133 146 133 146 169.5 102.5 c 128,-1,25
 206 59 206 59 277 59 c 0,26,27
 374 59 374 59 417 149 c 1,28,-1
 475 110 l 1,29,30
 450 54 450 54 400.5 21 c 128,-1,31
 351 -12 351 -12 277 -12 c 0,0,1
EndSplineSet
EndChar

StartChar: d
Encoding: 100 100 8
Width: 580
GlyphClass: 2
Flags: W
LayerCount: 2
Fore
SplineSet
415 84 m 1,0,-1
 411 84 l 1,1,2
 364 -12 364 -12 260 -12 c 0,3,4
 212 -12 212 -12 173 7 c 128,-1,5
 134 26 134 26 106.5 61 c 128,-1,6
 79 96 79 96 64.5 146 c 128,-1,7
 50 196 50 196 50 258 c 256,8,9
 50 320 50 320 64.5 370 c 128,-1,10
 79 420 79 420 106.5 455 c 128,-1,11
 134 490 134 490 173 509 c 128,-1,12
 212 528 212 528 260 528 c 0,13,14
 314 528 314 528 352.5 504.5 c 128,-1,15
 391 481 391 481 411 432 c 1,16,-1
 415 432 l 1,17,-1
 415 740 l 1,18,-1
 495 740 l 1,19,-1
 495 0 l 1,20,-1
 415 0 l 1,21,-1
 415 84 l 1,0,-1
282 60 m 0,22,23
 309 60 309 60 333.5 67 c 128,-1,24
 358 74 358 74 376 87.5 c 128,-1,25
 394 101 394 101 404.5 120.5 c 128,-1,26
 415 140 415 140 415 165 c 2,27,-1
 415 357 l 2,28,29
 415 378 415 378 404.5 396.5 c 128,-1,30
 394 415 394 415 376 428 c 128,-1,31
 358 441 358 441 333.5 448.5 c 128,-1,32
 309 456 309 456 282 456 c 0,33,34
 214 456 214 456 175 413.5 c 128,-1,35
 136 371 136 371 136 302 c 2,36,-1
 136 214 l 2,37,38
 136 145 136 145 175 102.5 c 128,-1,39
 214 60 214 60 282 60 c 0,22,23
EndSplineSet
EndChar

StartChar: e
Encoding: 101 101 9
Width: 549
GlyphClass: 2
Flags: W
LayerCount: 2
Fore
SplineSet
279 -12 m 0,0,1
 226 -12 226 -12 183.5 7 c 128,-1,2
 141 26 141 26 110.5 61.5 c 128,-1,3
 80 97 80 97 63.5 146.5 c 128,-1,4
 47 196 47 196 47 258 c 0,5,6
 47 319 47 319 63.5 369 c 128,-1,7
 80 419 80 419 110.5 454.5 c 128,-1,8
 141 490 141 490 183.5 509 c 128,-1,9
 226 528 226 528 279 528 c 0,10,11
 331 528 331 528 372 509 c 128,-1,12
 413 490 413 490 442 456.5 c 128,-1,13
 471 423 471 423 486.5 377 c 128,-1,14
 502 331 502 331 502 276 c 2,15,-1
 502 238 l 1,16,-1
 131 238 l 1,17,-1
 131 214 l 2,18,19
 131 181 131 181 141.5 152.5 c 128,-1,20
 152 124 152 124 171.5 103 c 128,-1,21
 191 82 191 82 219.5 70 c 128,-1,22
 248 58 248 58 284 58 c 0,23,24
 333 58 333 58 369.5 81 c 128,-1,25
 406 104 406 104 426 147 c 1,26,-1
 483 106 l 1,27,28
 458 53 458 53 405 20.5 c 128,-1,29
 352 -12 352 -12 279 -12 c 0,0,1
279 461 m 0,30,31
 246 461 246 461 219 449.5 c 128,-1,32
 192 438 192 438 172.5 417 c 128,-1,33
 153 396 153 396 142 367.5 c 128,-1,34
 131 339 131 339 131 305 c 2,35,-1
 131 298 l 1,36,-1
 416 298 l 1,37,-1
 416 309 l 2,38,39
 416 378 416 378 378.5 419.5 c 128,-1,40
 341 461 341 461 279 461 c 0,30,31
EndSplineSet
EndChar

StartChar: f
Encoding: 102 102 10
Width: 324
GlyphClass: 2
Flags: W
LayerCount: 2
Fore
SplineSet
113 446 m 1,0,-1
 29 446 l 1,1,-1
 29 516 l 1,2,-1
 113 516 l 1,3,-1
 113 620 l 2,4,5
 113 674 113 674 141 707 c 128,-1,6
 169 740 169 740 226 740 c 2,7,-1
 304 740 l 1,8,-1
 304 670 l 1,9,-1
 193 670 l 1,10,-1
 193 516 l 1,11,-1
 304 516 l 1,12,-1
 304 446 l 1,13,-1
 193 446 l 1,14,-1
 193 0 l 1,15,-1
 113 0 l 1,16,-1
 113 446 l 1,0,-1
EndSplineSet
EndChar

StartChar: g
Encoding: 103 103 11
Width: 528
GlyphClass: 2
Flags: W
LayerCount: 2
Fore
SplineSet
520 -57 m 0,0,1
 520 -137 520 -137 457.5 -174.5 c 128,-1,2
 395 -212 395 -212 270 -212 c 0,3,4
 149 -212 149 -212 96 -179 c 128,-1,5
 43 -146 43 -146 43 -85 c 0,6,7
 43 -43 43 -43 65 -19.5 c 128,-1,8
 87 4 87 4 125 15 c 1,9,-1
 125 26 l 1,10,11
 79 48 79 48 79 98 c 0,12,13
 79 137 79 137 104 157.5 c 128,-1,14
 129 178 129 178 168 188 c 1,15,-1
 168 192 l 1,16,17
 122 214 122 214 96.5 255 c 128,-1,18
 71 296 71 296 71 350 c 0,19,20
 71 389 71 389 85 422 c 128,-1,21
 99 455 99 455 124.5 478.5 c 128,-1,22
 150 502 150 502 185.5 515 c 128,-1,23
 221 528 221 528 265 528 c 0,24,25
 320 528 320 528 363 508 c 1,26,-1
 363 517 l 2,27,28
 363 547 363 547 377 566.5 c 128,-1,29
 391 586 391 586 423 586 c 2,30,-1
 500 586 l 1,31,-1
 500 516 l 1,32,-1
 402 516 l 1,33,-1
 402 483 l 1,34,35
 430 459 430 459 445.5 425.5 c 128,-1,36
 461 392 461 392 461 350 c 0,37,38
 461 311 461 311 447 278 c 128,-1,39
 433 245 433 245 407.5 221.5 c 128,-1,40
 382 198 382 198 346 185 c 128,-1,41
 310 172 310 172 266 172 c 0,42,43
 241 172 241 172 216 177 c 1,44,45
 190 170 190 170 169 156.5 c 128,-1,46
 148 143 148 143 148 119 c 0,47,48
 148 96 148 96 170 88 c 128,-1,49
 192 80 192 80 227 80 c 2,50,-1
 337 80 l 2,51,52
 433 80 433 80 476.5 43.5 c 128,-1,53
 520 7 520 7 520 -57 c 0,0,1
445 -63 m 0,54,55
 445 -32 445 -32 421.5 -13.5 c 128,-1,56
 398 5 398 5 338 5 c 2,57,-1
 166 5 l 1,58,59
 118 -17 118 -17 118 -65 c 0,60,61
 118 -99 118 -99 143.5 -123 c 128,-1,62
 169 -147 169 -147 230 -147 c 2,63,-1
 304 -147 l 2,64,65
 371 -147 371 -147 408 -126 c 128,-1,66
 445 -105 445 -105 445 -63 c 0,54,55
266 236 m 256,67,68
 317 236 317 236 347 260.5 c 128,-1,69
 377 285 377 285 377 336 c 2,70,-1
 377 364 l 2,71,72
 377 415 377 415 347 439.5 c 128,-1,73
 317 464 317 464 266 464 c 256,74,75
 215 464 215 464 185 439.5 c 128,-1,76
 155 415 155 415 155 364 c 2,77,-1
 155 336 l 2,78,79
 155 285 155 285 185 260.5 c 128,-1,80
 215 236 215 236 266 236 c 256,67,68
EndSplineSet
Substitution2: "'salt' Stylistic Alternatives lookup 28 subtable" g.alt01
Substitution2: "'ss02' Style Set 2 lookup 24 subtable" g.alt01
AlternateSubs2: "'aalt' Access All Alternates lookup 1 subtable" g.alt01 g.alt02
EndChar

StartChar: g.alt01
Encoding: 65538 -1 12
Width: 580
GlyphClass: 2
Flags: W
LayerCount: 2
Fore
SplineSet
495 17 m 2,0,1
 495 -90 495 -90 435 -151 c 128,-1,2
 375 -212 375 -212 266 -212 c 0,3,4
 203 -212 203 -212 157.5 -192.5 c 128,-1,5
 112 -173 112 -173 82 -141 c 1,6,-1
 129 -86 l 1,7,8
 155 -113 155 -113 189 -127.5 c 128,-1,9
 223 -142 223 -142 268 -142 c 0,10,11
 338 -142 338 -142 376.5 -103 c 128,-1,12
 415 -64 415 -64 415 12 c 2,13,-1
 415 84 l 1,14,-1
 411 84 l 1,15,16
 388 36 388 36 351 12 c 128,-1,17
 314 -12 314 -12 260 -12 c 0,18,19
 212 -12 212 -12 173 7 c 128,-1,20
 134 26 134 26 107 61 c 128,-1,21
 80 96 80 96 65 146 c 128,-1,22
 50 196 50 196 50 258 c 256,23,24
 50 320 50 320 65 370 c 128,-1,25
 80 420 80 420 107 455 c 128,-1,26
 134 490 134 490 173 509 c 128,-1,27
 212 528 212 528 260 528 c 0,28,29
 314 528 314 528 352.5 504.5 c 128,-1,30
 391 481 391 481 411 432 c 1,31,-1
 415 432 l 1,32,-1
 415 516 l 1,33,-1
 495 516 l 1,34,-1
 495 17 l 2,0,1
284 60 m 0,35,36
 311 60 311 60 335 67 c 128,-1,37
 359 74 359 74 376.5 87.5 c 128,-1,38
 394 101 394 101 404.5 120.5 c 128,-1,39
 415 140 415 140 415 166 c 2,40,-1
 415 357 l 2,41,42
 415 378 415 378 405 396.5 c 128,-1,43
 395 415 395 415 377 428 c 128,-1,44
 359 441 359 441 335 448.5 c 128,-1,45
 311 456 311 456 284 456 c 0,46,47
 216 456 216 456 176 413 c 128,-1,48
 136 370 136 370 136 302 c 2,49,-1
 136 214 l 2,50,51
 136 146 136 146 176 103 c 128,-1,52
 216 60 216 60 284 60 c 0,35,36
EndSplineSet
EndChar

StartChar: g.alt02
Encoding: 65539 -1 13
Width: 531
GlyphClass: 2
Flags: W
LayerCount: 2
Fore
SplineSet
520 -57 m 0,0,1
 520 -137 520 -137 457.5 -174.5 c 128,-1,2
 395 -212 395 -212 270 -212 c 0,3,4
 149 -212 149 -212 96 -179 c 128,-1,5
 43 -146 43 -146 43 -85 c 0,6,7
 43 -43 43 -43 65 -19.5 c 128,-1,8
 87 4 87 4 125 15 c 1,9,-1
 125 26 l 1,10,11
 79 48 79 48 79 98 c 0,12,13
 79 137 79 137 104 157.5 c 128,-1,14
 129 178 129 178 168 188 c 1,15,-1
 168 192 l 1,16,17
 122 214 122 214 96.5 255 c 128,-1,18
 71 296 71 296 71 350 c 0,19,20
 71 389 71 389 85 422 c 128,-1,21
 99 455 99 455 124.5 478.5 c 128,-1,22
 150 502 150 502 185.5 515 c 128,-1,23
 221 528 221 528 265 528 c 0,24,25
 308 528 308 528 343 516 c 1,26,-1
 504 516 l 1,27,-1
 504 452 l 1,28,-1
 424 452 l 1,29,30
 441 432 441 432 451 407 c 128,-1,31
 461 382 461 382 461 350 c 0,32,33
 461 311 461 311 447 278 c 128,-1,34
 433 245 433 245 407.5 221.5 c 128,-1,35
 382 198 382 198 346 185 c 128,-1,36
 310 172 310 172 266 172 c 0,37,38
 241 172 241 172 216 177 c 1,39,40
 190 170 190 170 169 156.5 c 128,-1,41
 148 143 148 143 148 119 c 0,42,43
 148 96 148 96 170 88 c 128,-1,44
 192 80 192 80 227 80 c 2,45,-1
 337 80 l 2,46,47
 433 80 433 80 476.5 43.5 c 128,-1,48
 520 7 520 7 520 -57 c 0,0,1
266 236 m 256,49,50
 317 236 317 236 347 260.5 c 128,-1,51
 377 285 377 285 377 336 c 2,52,-1
 377 364 l 2,53,54
 377 415 377 415 347 439.5 c 128,-1,55
 317 464 317 464 266 464 c 256,56,57
 215 464 215 464 185 439.5 c 128,-1,58
 155 415 155 415 155 364 c 2,59,-1
 155 336 l 2,60,61
 155 285 155 285 185 260.5 c 128,-1,62
 215 236 215 236 266 236 c 256,49,50
445 -63 m 0,63,64
 445 -32 445 -32 421.5 -13.5 c 128,-1,65
 398 5 398 5 338 5 c 2,66,-1
 166 5 l 1,67,68
 118 -17 118 -17 118 -65 c 0,69,70
 118 -99 118 -99 143.5 -123 c 128,-1,71
 169 -147 169 -147 230 -147 c 2,72,-1
 304 -147 l 2,73,74
 371 -147 371 -147 408 -126 c 128,-1,75
 445 -105 445 -105 445 -63 c 0,63,64
EndSplineSet
EndChar

StartChar: h
Encoding: 104 104 14
Width: 568
GlyphClass: 2
Flags: W
LayerCount: 2
Fore
SplineSet
85 740 m 1,0,-1
 165 740 l 1,1,-1
 165 432 l 1,2,-1
 169 432 l 1,3,4
 188 476 188 476 222.5 502 c 128,-1,5
 257 528 257 528 315 528 c 0,6,7
 395 528 395 528 441.5 476.5 c 128,-1,8
 488 425 488 425 488 331 c 2,9,-1
 488 0 l 1,10,-1
 408 0 l 1,11,-1
 408 317 l 2,12,13
 408 456 408 456 291 456 c 0,14,15
 267 456 267 456 244.5 450 c 128,-1,16
 222 444 222 444 204 432 c 128,-1,17
 186 420 186 420 175.5 401.5 c 128,-1,18
 165 383 165 383 165 358 c 2,19,-1
 165 0 l 1,20,-1
 85 0 l 1,21,-1
 85 740 l 1,0,-1
EndSplineSet
EndChar

StartChar: i
Encoding: 105 105 15
Width: 250
GlyphClass: 2
Flags: W
LayerCount: 2
Fore
SplineSet
125 637 m 256,0,1
 99 637 99 637 87.5 649.5 c 128,-1,2
 76 662 76 662 76 682 c 2,3,-1
 76 695 l 2,4,5
 76 715 76 715 87.5 727.5 c 128,-1,6
 99 740 99 740 125 740 c 256,7,8
 151 740 151 740 162.5 727.5 c 128,-1,9
 174 715 174 715 174 695 c 2,10,-1
 174 682 l 2,11,12
 174 662 174 662 162.5 649.5 c 128,-1,13
 151 637 151 637 125 637 c 256,0,1
85 516 m 1,14,-1
 165 516 l 1,15,-1
 165 0 l 1,16,-1
 85 0 l 1,17,-1
 85 516 l 1,14,-1
EndSplineSet
EndChar

StartChar: j
Encoding: 106 106 16
Width: 250
GlyphClass: 1
Flags: W
LayerCount: 2
Fore
SplineSet
85 516 m 1,0,-1
 165 516 l 1,1,-1
 165 -80 l 2,2,3
 165 -134 165 -134 138 -167 c 128,-1,4
 111 -200 111 -200 53 -200 c 2,5,-1
 1 -200 l 1,6,-1
 1 -130 l 1,7,-1
 85 -130 l 1,8,-1
 85 516 l 1,0,-1
125 637 m 256,9,10
 99 637 99 637 87.5 649.5 c 128,-1,11
 76 662 76 662 76 682 c 2,12,-1
 76 695 l 2,13,14
 76 715 76 715 87.5 727.5 c 128,-1,15
 99 740 99 740 125 740 c 256,16,17
 151 740 151 740 162.5 727.5 c 128,-1,18
 174 715 174 715 174 695 c 2,19,-1
 174 682 l 2,20,21
 174 662 174 662 162.5 649.5 c 128,-1,22
 151 637 151 637 125 637 c 256,9,10
EndSplineSet
EndChar

StartChar: k
Encoding: 107 107 17
Width: 527
GlyphClass: 2
Flags: W
LayerCount: 2
Fore
SplineSet
85 740 m 1,0,-1
 165 740 l 1,1,-1
 165 271 l 1,2,-1
 169 271 l 1,3,-1
 248 359 l 1,4,-1
 394 516 l 1,5,-1
 491 516 l 1,6,-1
 300 312 l 1,7,-1
 510 0 l 1,8,-1
 413 0 l 1,9,-1
 242 263 l 1,10,-1
 165 184 l 1,11,-1
 165 0 l 1,12,-1
 85 0 l 1,13,-1
 85 740 l 1,0,-1
EndSplineSet
EndChar

StartChar: l
Encoding: 108 108 18
Width: 272
GlyphClass: 2
Flags: W
LayerCount: 2
Fore
SplineSet
170 0 m 2,0,1
 128 0 128 0 106.5 23.5 c 128,-1,2
 85 47 85 47 85 83 c 2,3,-1
 85 740 l 1,4,-1
 165 740 l 1,5,-1
 165 70 l 1,6,-1
 241 70 l 1,7,-1
 241 0 l 1,8,-1
 170 0 l 2,0,1
EndSplineSet
EndChar

StartChar: m
Encoding: 109 109 19
Width: 873
GlyphClass: 2
Flags: W
LayerCount: 2
Fore
SplineSet
85 0 m 1,0,-1
 85 516 l 1,1,-1
 165 516 l 1,2,-1
 165 432 l 1,3,-1
 169 432 l 1,4,5
 178 452 178 452 189.5 469.5 c 128,-1,6
 201 487 201 487 217.5 500 c 128,-1,7
 234 513 234 513 256 520.5 c 128,-1,8
 278 528 278 528 308 528 c 0,9,10
 359 528 359 528 402 503.5 c 128,-1,11
 445 479 445 479 466 423 c 1,12,-1
 468 423 l 1,13,14
 482 465 482 465 520.5 496.5 c 128,-1,15
 559 528 559 528 625 528 c 0,16,17
 704 528 704 528 748.5 476.5 c 128,-1,18
 793 425 793 425 793 331 c 2,19,-1
 793 0 l 1,20,-1
 713 0 l 1,21,-1
 713 317 l 2,22,23
 713 386 713 386 686 421 c 128,-1,24
 659 456 659 456 600 456 c 0,25,26
 576 456 576 456 554.5 450 c 128,-1,27
 533 444 533 444 516 432 c 128,-1,28
 499 420 499 420 489 401.5 c 128,-1,29
 479 383 479 383 479 358 c 2,30,-1
 479 0 l 1,31,-1
 399 0 l 1,32,-1
 399 317 l 2,33,34
 399 386 399 386 372 421 c 128,-1,35
 345 456 345 456 288 456 c 0,36,37
 264 456 264 456 242 450 c 128,-1,38
 220 444 220 444 203 432 c 128,-1,39
 186 420 186 420 175.5 401.5 c 128,-1,40
 165 383 165 383 165 358 c 2,41,-1
 165 0 l 1,42,-1
 85 0 l 1,0,-1
EndSplineSet
EndChar

StartChar: n
Encoding: 110 110 20
Width: 568
GlyphClass: 2
Flags: W
LayerCount: 2
Fore
SplineSet
85 0 m 1,0,-1
 85 516 l 1,1,-1
 165 516 l 1,2,-1
 165 432 l 1,3,-1
 169 432 l 1,4,5
 188 476 188 476 222.5 502 c 128,-1,6
 257 528 257 528 315 528 c 0,7,8
 395 528 395 528 441.5 476.5 c 128,-1,9
 488 425 488 425 488 331 c 2,10,-1
 488 0 l 1,11,-1
 408 0 l 1,12,-1
 408 317 l 2,13,14
 408 456 408 456 291 456 c 0,15,16
 267 456 267 456 244.5 450 c 128,-1,17
 222 444 222 444 204 432 c 128,-1,18
 186 420 186 420 175.5 401.5 c 128,-1,19
 165 383 165 383 165 358 c 2,20,-1
 165 0 l 1,21,-1
 85 0 l 1,0,-1
EndSplineSet
EndChar

StartChar: o
Encoding: 111 111 21
Width: 560
GlyphClass: 2
Flags: W
LayerCount: 2
Fore
SplineSet
280 -12 m 256,0,1
 228 -12 228 -12 185 7 c 128,-1,2
 142 26 142 26 111.5 61.5 c 128,-1,3
 81 97 81 97 64 146.5 c 128,-1,4
 47 196 47 196 47 258 c 0,5,6
 47 319 47 319 64 369 c 128,-1,7
 81 419 81 419 111.5 454.5 c 128,-1,8
 142 490 142 490 185 509 c 128,-1,9
 228 528 228 528 280 528 c 256,10,11
 332 528 332 528 374.5 509 c 128,-1,12
 417 490 417 490 448 454.5 c 128,-1,13
 479 419 479 419 496 369 c 128,-1,14
 513 319 513 319 513 258 c 0,15,16
 513 196 513 196 496 146.5 c 128,-1,17
 479 97 479 97 448 61.5 c 128,-1,18
 417 26 417 26 374.5 7 c 128,-1,19
 332 -12 332 -12 280 -12 c 256,0,1
280 59 m 256,20,21
 345 59 345 59 386 99 c 128,-1,22
 427 139 427 139 427 221 c 2,23,-1
 427 295 l 2,24,25
 427 377 427 377 386 417 c 128,-1,26
 345 457 345 457 280 457 c 256,27,28
 215 457 215 457 174 417 c 128,-1,29
 133 377 133 377 133 295 c 2,30,-1
 133 221 l 2,31,32
 133 139 133 139 174 99 c 128,-1,33
 215 59 215 59 280 59 c 256,20,21
EndSplineSet
Substitution2: "'ordn' Ordinals lookup 14 subtable" ordmasculine
EndChar

StartChar: p
Encoding: 112 112 22
Width: 580
GlyphClass: 2
Flags: W
LayerCount: 2
Fore
SplineSet
85 516 m 1,0,-1
 165 516 l 1,1,-1
 165 432 l 1,2,-1
 169 432 l 1,3,4
 189 481 189 481 227.5 504.5 c 128,-1,5
 266 528 266 528 320 528 c 0,6,7
 368 528 368 528 407 509 c 128,-1,8
 446 490 446 490 473.5 455 c 128,-1,9
 501 420 501 420 515.5 370 c 128,-1,10
 530 320 530 320 530 258 c 256,11,12
 530 196 530 196 515.5 146 c 128,-1,13
 501 96 501 96 473.5 61 c 128,-1,14
 446 26 446 26 407 7 c 128,-1,15
 368 -12 368 -12 320 -12 c 0,16,17
 215 -12 215 -12 169 84 c 1,18,-1
 165 84 l 1,19,-1
 165 -200 l 1,20,-1
 85 -200 l 1,21,-1
 85 516 l 1,0,-1
298 60 m 0,22,23
 366 60 366 60 405 102.5 c 128,-1,24
 444 145 444 145 444 214 c 2,25,-1
 444 302 l 2,26,27
 444 371 444 371 405 413.5 c 128,-1,28
 366 456 366 456 298 456 c 0,29,30
 271 456 271 456 246.5 448.5 c 128,-1,31
 222 441 222 441 204 428 c 128,-1,32
 186 415 186 415 175.5 396.5 c 128,-1,33
 165 378 165 378 165 357 c 2,34,-1
 165 165 l 2,35,36
 165 140 165 140 175.5 120.5 c 128,-1,37
 186 101 186 101 204 87.5 c 128,-1,38
 222 74 222 74 246.5 67 c 128,-1,39
 271 60 271 60 298 60 c 0,22,23
EndSplineSet
EndChar

StartChar: q
Encoding: 113 113 23
Width: 580
GlyphClass: 2
Flags: W
LayerCount: 2
Fore
SplineSet
415 84 m 1,0,-1
 411 84 l 1,1,2
 364 -12 364 -12 260 -12 c 0,3,4
 212 -12 212 -12 173 7 c 128,-1,5
 134 26 134 26 106.5 61 c 128,-1,6
 79 96 79 96 64.5 146 c 128,-1,7
 50 196 50 196 50 258 c 256,8,9
 50 320 50 320 64.5 370 c 128,-1,10
 79 420 79 420 106.5 455 c 128,-1,11
 134 490 134 490 173 509 c 128,-1,12
 212 528 212 528 260 528 c 0,13,14
 314 528 314 528 352.5 504.5 c 128,-1,15
 391 481 391 481 411 432 c 1,16,-1
 415 432 l 1,17,-1
 415 516 l 1,18,-1
 495 516 l 1,19,-1
 495 -200 l 1,20,-1
 415 -200 l 1,21,-1
 415 84 l 1,0,-1
282 60 m 0,22,23
 309 60 309 60 333.5 67 c 128,-1,24
 358 74 358 74 376 87.5 c 128,-1,25
 394 101 394 101 404.5 120.5 c 128,-1,26
 415 140 415 140 415 165 c 2,27,-1
 415 357 l 2,28,29
 415 378 415 378 404.5 396.5 c 128,-1,30
 394 415 394 415 376 428 c 128,-1,31
 358 441 358 441 333.5 448.5 c 128,-1,32
 309 456 309 456 282 456 c 0,33,34
 214 456 214 456 175 413.5 c 128,-1,35
 136 371 136 371 136 302 c 2,36,-1
 136 214 l 2,37,38
 136 145 136 145 175 102.5 c 128,-1,39
 214 60 214 60 282 60 c 0,22,23
EndSplineSet
EndChar

StartChar: r
Encoding: 114 114 24
Width: 367
GlyphClass: 2
Flags: W
LayerCount: 2
Fore
SplineSet
85 0 m 1,0,-1
 85 516 l 1,1,-1
 165 516 l 1,2,-1
 165 421 l 1,3,-1
 170 421 l 1,4,5
 184 458 184 458 220 487 c 128,-1,6
 256 516 256 516 319 516 c 2,7,-1
 350 516 l 1,8,-1
 350 436 l 1,9,-1
 303 436 l 2,10,11
 238 436 238 436 201.5 411.5 c 128,-1,12
 165 387 165 387 165 350 c 2,13,-1
 165 0 l 1,14,-1
 85 0 l 1,0,-1
EndSplineSet
EndChar

StartChar: s
Encoding: 115 115 25
Width: 487
GlyphClass: 2
Flags: W
LayerCount: 2
Fore
SplineSet
240 -12 m 0,0,1
 168 -12 168 -12 119.5 15.5 c 128,-1,2
 71 43 71 43 36 89 c 1,3,-1
 93 135 l 1,4,5
 123 97 123 97 160 76.5 c 128,-1,6
 197 56 197 56 246 56 c 0,7,8
 297 56 297 56 325.5 78 c 128,-1,9
 354 100 354 100 354 140 c 0,10,11
 354 170 354 170 334.5 191.5 c 128,-1,12
 315 213 315 213 264 221 c 2,13,-1
 223 227 l 2,14,15
 187 232 187 232 157 242.5 c 128,-1,16
 127 253 127 253 104.5 270.5 c 128,-1,17
 82 288 82 288 69.5 314 c 128,-1,18
 57 340 57 340 57 376 c 0,19,20
 57 414 57 414 71 442.5 c 128,-1,21
 85 471 85 471 109.5 490 c 128,-1,22
 134 509 134 509 168 518.5 c 128,-1,23
 202 528 202 528 241 528 c 0,24,25
 304 528 304 528 346.5 506 c 128,-1,26
 389 484 389 484 421 445 c 1,27,-1
 368 397 l 1,28,29
 351 421 351 421 318 440.5 c 128,-1,30
 285 460 285 460 235 460 c 256,31,32
 185 460 185 460 159.5 438.5 c 128,-1,33
 134 417 134 417 134 380 c 0,34,35
 134 342 134 342 159.5 325 c 128,-1,36
 185 308 185 308 233 300 c 2,37,-1
 273 294 l 2,38,39
 359 281 359 281 395 244.5 c 128,-1,40
 431 208 431 208 431 149 c 0,41,42
 431 74 431 74 380 31 c 128,-1,43
 329 -12 329 -12 240 -12 c 0,0,1
EndSplineSet
EndChar

StartChar: t
Encoding: 116 116 26
Width: 351
GlyphClass: 2
Flags: W
LayerCount: 2
Fore
SplineSet
199 0 m 2,0,1
 157 0 157 0 135.5 23.5 c 128,-1,2
 114 47 114 47 114 85 c 2,3,-1
 114 446 l 1,4,-1
 29 446 l 1,5,-1
 29 516 l 1,6,-1
 77 516 l 2,7,8
 103 516 103 516 112.5 526.5 c 128,-1,9
 122 537 122 537 122 563 c 2,10,-1
 122 659 l 1,11,-1
 194 659 l 1,12,-1
 194 516 l 1,13,-1
 307 516 l 1,14,-1
 307 446 l 1,15,-1
 194 446 l 1,16,-1
 194 70 l 1,17,-1
 299 70 l 1,18,-1
 299 0 l 1,19,-1
 199 0 l 2,0,1
EndSplineSet
EndChar

StartChar: u
Encoding: 117 117 27
Width: 568
GlyphClass: 2
Flags: W
LayerCount: 2
Fore
SplineSet
403 84 m 1,0,-1
 399 84 l 1,1,2
 391 66 391 66 379.5 48.5 c 128,-1,3
 368 31 368 31 351 17.5 c 128,-1,4
 334 4 334 4 310 -4 c 128,-1,5
 286 -12 286 -12 254 -12 c 0,6,7
 174 -12 174 -12 127 39.5 c 128,-1,8
 80 91 80 91 80 185 c 2,9,-1
 80 516 l 1,10,-1
 160 516 l 1,11,-1
 160 199 l 2,12,13
 160 60 160 60 278 60 c 0,14,15
 302 60 302 60 324.5 66 c 128,-1,16
 347 72 347 72 364.5 84 c 128,-1,17
 382 96 382 96 392.5 114.5 c 128,-1,18
 403 133 403 133 403 159 c 2,19,-1
 403 516 l 1,20,-1
 483 516 l 1,21,-1
 483 0 l 1,22,-1
 403 0 l 1,23,-1
 403 84 l 1,0,-1
EndSplineSet
EndChar

StartChar: v
Encoding: 118 118 28
Width: 492
GlyphClass: 2
Flags: W
LayerCount: 2
Fore
SplineSet
199 0 m 1,0,-1
 18 516 l 1,1,-1
 98 516 l 1,2,-1
 188 260 l 1,3,-1
 244 84 l 1,4,-1
 249 84 l 1,5,-1
 305 260 l 1,6,-1
 397 516 l 1,7,-1
 474 516 l 1,8,-1
 292 0 l 1,9,-1
 199 0 l 1,0,-1
EndSplineSet
EndChar

StartChar: w
Encoding: 119 119 29
Width: 768
GlyphClass: 2
Flags: W
LayerCount: 2
Fore
SplineSet
31 516 m 1,0,-1
 109 516 l 1,1,-1
 164 293 l 1,2,-1
 219 67 l 1,3,-1
 221 67 l 1,4,-1
 284 293 l 1,5,-1
 349 516 l 1,6,-1
 420 516 l 1,7,-1
 487 293 l 1,8,-1
 551 67 l 1,9,-1
 553 67 l 1,10,-1
 606 293 l 1,11,-1
 662 516 l 1,12,-1
 737 516 l 1,13,-1
 600 0 l 1,14,-1
 501 0 l 1,15,-1
 429 248 l 1,16,-1
 384 405 l 1,17,-1
 382 405 l 1,18,-1
 338 248 l 1,19,-1
 266 0 l 1,20,-1
 169 0 l 1,21,-1
 31 516 l 1,0,-1
EndSplineSet
EndChar

StartChar: x
Encoding: 120 120 30
Width: 507
GlyphClass: 2
Flags: W
LayerCount: 2
Fore
SplineSet
21 0 m 1,0,-1
 212 260 l 1,1,-1
 29 516 l 1,2,-1
 123 516 l 1,3,-1
 254 324 l 1,4,-1
 257 324 l 1,5,-1
 393 516 l 1,6,-1
 482 516 l 1,7,-1
 300 266 l 1,8,-1
 486 0 l 1,9,-1
 392 0 l 1,10,-1
 258 202 l 1,11,-1
 255 202 l 1,12,-1
 110 0 l 1,13,-1
 21 0 l 1,0,-1
EndSplineSet
EndChar

StartChar: y
Encoding: 121 121 31
Width: 499
GlyphClass: 2
Flags: W
LayerCount: 2
Fore
SplineSet
403 516 m 1,0,-1
 482 516 l 1,1,-1
 251 -120 l 2,2,3
 242 -143 242 -143 233 -158.5 c 128,-1,4
 224 -174 224 -174 211 -183 c 128,-1,5
 198 -192 198 -192 178.5 -196 c 128,-1,6
 159 -200 159 -200 131 -200 c 2,7,-1
 90 -200 l 1,8,-1
 90 -130 l 1,9,-1
 171 -130 l 1,10,-1
 210 -20 l 1,11,-1
 17 516 l 1,12,-1
 97 516 l 1,13,-1
 221 165 l 1,14,-1
 245 81 l 1,15,-1
 250 81 l 1,16,-1
 278 165 l 1,17,-1
 403 516 l 1,0,-1
EndSplineSet
EndChar

StartChar: z
Encoding: 122 122 32
Width: 464
GlyphClass: 2
Flags: W
LayerCount: 2
Fore
SplineSet
33 0 m 1,0,-1
 33 67 l 1,1,-1
 326 446 l 1,2,-1
 42 446 l 1,3,-1
 42 516 l 1,4,-1
 423 516 l 1,5,-1
 423 456 l 1,6,-1
 124 70 l 1,7,-1
 431 70 l 1,8,-1
 431 0 l 1,9,-1
 33 0 l 1,0,-1
EndSplineSet
EndChar

StartChar: A
Encoding: 65 65 33
Width: 641
GlyphClass: 2
Flags: W
LayerCount: 2
Fore
SplineSet
530 0 m 1,0,-1
 460 206 l 1,1,-1
 178 206 l 1,2,-1
 108 0 l 1,3,-1
 23 0 l 1,4,-1
 267 698 l 1,5,-1
 374 698 l 1,6,-1
 618 0 l 1,7,-1
 530 0 l 1,0,-1
321 620 m 1,8,-1
 316 620 l 1,9,-1
 198 280 l 1,10,-1
 439 280 l 1,11,-1
 321 620 l 1,8,-1
EndSplineSet
EndChar

StartChar: B
Encoding: 66 66 34
Width: 653
GlyphClass: 2
Flags: W
LayerCount: 2
Fore
SplineSet
93 698 m 1,0,-1
 380 698 l 2,1,2
 467 698 467 698 516.5 649 c 128,-1,3
 566 600 566 600 566 518 c 0,4,5
 566 479 566 479 555 452 c 128,-1,6
 544 425 544 425 527 407.5 c 128,-1,7
 510 390 510 390 490 381.5 c 128,-1,8
 470 373 470 373 453 370 c 1,9,-1
 453 364 l 1,10,11
 472 363 472 363 495.5 354 c 128,-1,12
 519 345 519 345 540 325.5 c 128,-1,13
 561 306 561 306 575.5 275.5 c 128,-1,14
 590 245 590 245 590 202 c 256,15,16
 590 159 590 159 576.5 122 c 128,-1,17
 563 85 563 85 539 58 c 128,-1,18
 515 31 515 31 482 15.5 c 128,-1,19
 449 0 449 0 410 0 c 2,20,-1
 93 0 l 1,21,-1
 93 698 l 1,0,-1
177 74 m 1,22,-1
 384 74 l 2,23,24
 438 74 438 74 469 101.5 c 128,-1,25
 500 129 500 129 500 182 c 2,26,-1
 500 216 l 2,27,28
 500 269 500 269 469 296.5 c 128,-1,29
 438 324 438 324 384 324 c 2,30,-1
 177 324 l 1,31,-1
 177 74 l 1,22,-1
177 396 m 1,32,-1
 370 396 l 2,33,34
 420 396 420 396 448 421 c 128,-1,35
 476 446 476 446 476 493 c 2,36,-1
 476 527 l 2,37,38
 476 574 476 574 448 599 c 128,-1,39
 420 624 420 624 370 624 c 2,40,-1
 177 624 l 1,41,-1
 177 396 l 1,32,-1
EndSplineSet
EndChar

StartChar: C
Encoding: 67 67 35
Width: 621
GlyphClass: 2
Flags: W
LayerCount: 2
Fore
SplineSet
339 -12 m 0,0,1
 206 -12 206 -12 132 78.5 c 128,-1,2
 58 169 58 169 58 345 c 256,3,4
 58 521 58 521 132 615.5 c 128,-1,5
 206 710 206 710 339 710 c 0,6,7
 427 710 427 710 486.5 670 c 128,-1,8
 546 630 546 630 579 557 c 1,9,-1
 511 516 l 1,10,11
 490 570 490 570 447 602.5 c 128,-1,12
 404 635 404 635 339 635 c 0,13,14
 294 635 294 635 258.5 618 c 128,-1,15
 223 601 223 601 198.5 569.5 c 128,-1,16
 174 538 174 538 161 494.5 c 128,-1,17
 148 451 148 451 148 397 c 2,18,-1
 148 293 l 2,19,20
 148 185 148 185 198 124 c 128,-1,21
 248 63 248 63 339 63 c 0,22,23
 406 63 406 63 451 97.5 c 128,-1,24
 496 132 496 132 517 189 c 1,25,-1
 584 147 l 1,26,27
 551 73 551 73 489 30.5 c 128,-1,28
 427 -12 427 -12 339 -12 c 0,0,1
EndSplineSet
EndChar

StartChar: D
Encoding: 68 68 36
Width: 671
GlyphClass: 2
Flags: W
LayerCount: 2
Fore
SplineSet
93 698 m 1,0,-1
 327 698 l 2,1,2
 392 698 392 698 445 676 c 128,-1,3
 498 654 498 654 535.5 610.5 c 128,-1,4
 573 567 573 567 593 501.5 c 128,-1,5
 613 436 613 436 613 349 c 256,6,7
 613 262 613 262 593 196.5 c 128,-1,8
 573 131 573 131 535.5 87.5 c 128,-1,9
 498 44 498 44 445 22 c 128,-1,10
 392 0 392 0 327 0 c 2,11,-1
 93 0 l 1,12,-1
 93 698 l 1,0,-1
327 74 m 2,13,14
 370 74 370 74 406 88.5 c 128,-1,15
 442 103 442 103 468 131 c 128,-1,16
 494 159 494 159 508.5 199.5 c 128,-1,17
 523 240 523 240 523 292 c 2,18,-1
 523 406 l 2,19,20
 523 458 523 458 508.5 498.5 c 128,-1,21
 494 539 494 539 468 567 c 128,-1,22
 442 595 442 595 406 609.5 c 128,-1,23
 370 624 370 624 327 624 c 2,24,-1
 177 624 l 1,25,-1
 177 74 l 1,26,-1
 327 74 l 2,13,14
EndSplineSet
EndChar

StartChar: E
Encoding: 69 69 37
Width: 583
GlyphClass: 2
Flags: W
LayerCount: 2
Fore
SplineSet
93 0 m 1,0,-1
 93 698 l 1,1,-1
 519 698 l 1,2,-1
 519 624 l 1,3,-1
 177 624 l 1,4,-1
 177 390 l 1,5,-1
 499 390 l 1,6,-1
 499 316 l 1,7,-1
 177 316 l 1,8,-1
 177 74 l 1,9,-1
 519 74 l 1,10,-1
 519 0 l 1,11,-1
 93 0 l 1,0,-1
EndSplineSet
EndChar

StartChar: F
Encoding: 70 70 38
Width: 559
GlyphClass: 2
Flags: W
LayerCount: 2
Fore
SplineSet
93 0 m 1,0,-1
 93 698 l 1,1,-1
 509 698 l 1,2,-1
 509 624 l 1,3,-1
 177 624 l 1,4,-1
 177 390 l 1,5,-1
 480 390 l 1,6,-1
 480 316 l 1,7,-1
 177 316 l 1,8,-1
 177 0 l 1,9,-1
 93 0 l 1,0,-1
EndSplineSet
EndChar

StartChar: G
Encoding: 71 71 39
Width: 695
GlyphClass: 2
Flags: W
LayerCount: 2
Fore
SplineSet
545 102 m 1,0,-1
 542 102 l 1,1,2
 529 53 529 53 478.5 20.5 c 128,-1,3
 428 -12 428 -12 348 -12 c 0,4,5
 284 -12 284 -12 230.5 11.5 c 128,-1,6
 177 35 177 35 139 80.5 c 128,-1,7
 101 126 101 126 79.5 193.5 c 128,-1,8
 58 261 58 261 58 349 c 0,9,10
 58 436 58 436 79 503.5 c 128,-1,11
 100 571 100 571 139 616.5 c 128,-1,12
 178 662 178 662 233 686 c 128,-1,13
 288 710 288 710 355 710 c 0,14,15
 449 710 449 710 512 668 c 128,-1,16
 575 626 575 626 609 557 c 1,17,-1
 540 515 l 1,18,19
 516 571 516 571 468.5 603 c 128,-1,20
 421 635 421 635 355 635 c 0,21,22
 309 635 309 635 271 618.5 c 128,-1,23
 233 602 233 602 205.5 572 c 128,-1,24
 178 542 178 542 163 500 c 128,-1,25
 148 458 148 458 148 406 c 2,26,-1
 148 293 l 2,27,28
 148 241 148 241 163 198.5 c 128,-1,29
 178 156 178 156 205.5 126 c 128,-1,30
 233 96 233 96 273 79.5 c 128,-1,31
 313 63 313 63 363 63 c 0,32,33
 399 63 399 63 431.5 72.5 c 128,-1,34
 464 82 464 82 488.5 101 c 128,-1,35
 513 120 513 120 527 148.5 c 128,-1,36
 541 177 541 177 541 216 c 2,37,-1
 541 285 l 1,38,-1
 387 285 l 1,39,-1
 387 359 l 1,40,-1
 623 359 l 1,41,-1
 623 0 l 1,42,-1
 545 0 l 1,43,-1
 545 102 l 1,0,-1
EndSplineSet
EndChar

StartChar: H
Encoding: 72 72 40
Width: 707
GlyphClass: 2
Flags: W
LayerCount: 2
Fore
SplineSet
530 316 m 1,0,-1
 177 316 l 1,1,-1
 177 0 l 1,2,-1
 93 0 l 1,3,-1
 93 698 l 1,4,-1
 177 698 l 1,5,-1
 177 390 l 1,6,-1
 530 390 l 1,7,-1
 530 698 l 1,8,-1
 614 698 l 1,9,-1
 614 0 l 1,10,-1
 530 0 l 1,11,-1
 530 316 l 1,0,-1
EndSplineSet
EndChar

StartChar: I
Encoding: 73 73 41
Width: 400
GlyphClass: 2
Flags: W
LayerCount: 2
Fore
SplineSet
60 0 m 1,0,-1
 60 70 l 1,1,-1
 158 70 l 1,2,-1
 158 628 l 1,3,-1
 60 628 l 1,4,-1
 60 698 l 1,5,-1
 340 698 l 1,6,-1
 340 628 l 1,7,-1
 242 628 l 1,8,-1
 242 70 l 1,9,-1
 340 70 l 1,10,-1
 340 0 l 1,11,-1
 60 0 l 1,0,-1
EndSplineSet
EndChar

StartChar: J
Encoding: 74 74 42
Width: 510
GlyphClass: 2
Flags: W
LayerCount: 2
Fore
SplineSet
422 698 m 1,0,-1
 422 181 l 2,1,2
 422 137 422 137 407.5 101 c 128,-1,3
 393 65 393 65 366.5 40 c 128,-1,4
 340 15 340 15 303 1.5 c 128,-1,5
 266 -12 266 -12 222 -12 c 0,6,7
 141 -12 141 -12 91.5 31.5 c 128,-1,8
 42 75 42 75 28 147 c 1,9,-1
 104 165 l 1,10,11
 114 120 114 120 142 91.5 c 128,-1,12
 170 63 170 63 224 63 c 256,13,14
 278 63 278 63 308 96 c 128,-1,15
 338 129 338 129 338 196 c 2,16,-1
 338 624 l 1,17,-1
 98 624 l 1,18,-1
 98 698 l 1,19,-1
 422 698 l 1,0,-1
EndSplineSet
EndChar

StartChar: K
Encoding: 75 75 43
Width: 634
GlyphClass: 2
Flags: W
LayerCount: 2
Fore
SplineSet
276 343 m 1,0,-1
 177 233 l 1,1,-1
 177 0 l 1,2,-1
 93 0 l 1,3,-1
 93 698 l 1,4,-1
 177 698 l 1,5,-1
 177 327 l 1,6,-1
 180 327 l 1,7,-1
 280 448 l 1,8,-1
 491 698 l 1,9,-1
 594 698 l 1,10,-1
 334 399 l 1,11,-1
 612 0 l 1,12,-1
 508 0 l 1,13,-1
 276 343 l 1,0,-1
EndSplineSet
EndChar

StartChar: L
Encoding: 76 76 44
Width: 501
GlyphClass: 2
Flags: W
LayerCount: 2
Fore
SplineSet
93 0 m 1,0,-1
 93 698 l 1,1,-1
 177 698 l 1,2,-1
 177 74 l 1,3,-1
 474 74 l 1,4,-1
 474 0 l 1,5,-1
 93 0 l 1,0,-1
EndSplineSet
EndChar

StartChar: M
Encoding: 77 77 45
Width: 812
GlyphClass: 2
Flags: W
LayerCount: 2
Fore
SplineSet
637 588 m 1,0,-1
 632 588 l 1,1,-1
 573 471 l 1,2,-1
 406 167 l 1,3,-1
 239 471 l 1,4,-1
 180 588 l 1,5,-1
 175 588 l 1,6,-1
 175 0 l 1,7,-1
 93 0 l 1,8,-1
 93 698 l 1,9,-1
 205 698 l 1,10,-1
 405 322 l 1,11,-1
 410 322 l 1,12,-1
 611 698 l 1,13,-1
 719 698 l 1,14,-1
 719 0 l 1,15,-1
 637 0 l 1,16,-1
 637 588 l 1,0,-1
EndSplineSet
EndChar

StartChar: N
Encoding: 78 78 46
Width: 707
GlyphClass: 2
Flags: W
LayerCount: 2
Fore
SplineSet
262 426 m 1,0,-1
 178 581 l 1,1,-1
 175 581 l 1,2,-1
 175 0 l 1,3,-1
 93 0 l 1,4,-1
 93 698 l 1,5,-1
 190 698 l 1,6,-1
 445 272 l 1,7,-1
 529 117 l 1,8,-1
 532 117 l 1,9,-1
 532 698 l 1,10,-1
 614 698 l 1,11,-1
 614 0 l 1,12,-1
 517 0 l 1,13,-1
 262 426 l 1,0,-1
EndSplineSet
EndChar

StartChar: O
Encoding: 79 79 47
Width: 708
GlyphClass: 2
Flags: W
LayerCount: 2
Fore
SplineSet
354 -12 m 0,0,1
 286 -12 286 -12 231.5 11.5 c 128,-1,2
 177 35 177 35 138.5 80.5 c 128,-1,3
 100 126 100 126 79 193.5 c 128,-1,4
 58 261 58 261 58 349 c 256,5,6
 58 437 58 437 79 504 c 128,-1,7
 100 571 100 571 138.5 617 c 128,-1,8
 177 663 177 663 231.5 686.5 c 128,-1,9
 286 710 286 710 354 710 c 0,10,11
 421 710 421 710 476 686.5 c 128,-1,12
 531 663 531 663 569.5 617 c 128,-1,13
 608 571 608 571 629 504 c 128,-1,14
 650 437 650 437 650 349 c 256,15,16
 650 261 650 261 629 193.5 c 128,-1,17
 608 126 608 126 569.5 80.5 c 128,-1,18
 531 35 531 35 476 11.5 c 128,-1,19
 421 -12 421 -12 354 -12 c 0,0,1
354 63 m 256,20,21
 399 63 399 63 437 79 c 128,-1,22
 475 95 475 95 502.5 125 c 128,-1,23
 530 155 530 155 545 197 c 128,-1,24
 560 239 560 239 560 291 c 2,25,-1
 560 407 l 2,26,27
 560 459 560 459 545 501 c 128,-1,28
 530 543 530 543 502.5 573 c 128,-1,29
 475 603 475 603 437 619 c 128,-1,30
 399 635 399 635 354 635 c 256,31,32
 309 635 309 635 271 619 c 128,-1,33
 233 603 233 603 205.5 573 c 128,-1,34
 178 543 178 543 163 501 c 128,-1,35
 148 459 148 459 148 407 c 2,36,-1
 148 291 l 2,37,38
 148 239 148 239 163 197 c 128,-1,39
 178 155 178 155 205.5 125 c 128,-1,40
 233 95 233 95 271 79 c 128,-1,41
 309 63 309 63 354 63 c 256,20,21
EndSplineSet
EndChar

StartChar: P
Encoding: 80 80 48
Width: 606
GlyphClass: 2
Flags: W
LayerCount: 2
Fore
SplineSet
93 0 m 1,0,-1
 93 698 l 1,1,-1
 371 698 l 2,2,3
 465 698 465 698 515.5 644.5 c 128,-1,4
 566 591 566 591 566 498 c 256,5,6
 566 405 566 405 515.5 351.5 c 128,-1,7
 465 298 465 298 371 298 c 2,8,-1
 177 298 l 1,9,-1
 177 0 l 1,10,-1
 93 0 l 1,0,-1
177 372 m 1,11,-1
 371 372 l 2,12,13
 421 372 421 372 448.5 398 c 128,-1,14
 476 424 476 424 476 472 c 2,15,-1
 476 524 l 2,16,17
 476 572 476 572 448.5 598 c 128,-1,18
 421 624 421 624 371 624 c 2,19,-1
 177 624 l 1,20,-1
 177 372 l 1,11,-1
EndSplineSet
EndChar

StartChar: Q
Encoding: 81 81 49
Width: 708
GlyphClass: 2
Flags: W
LayerCount: 2
Fore
SplineSet
508 -164 m 1,0,-1
 405 -164 l 2,1,2
 363 -164 363 -164 342 -140.5 c 128,-1,3
 321 -117 321 -117 321 -82 c 2,4,-1
 321 -11 l 1,5,6
 261 -5 261 -5 212 21 c 128,-1,7
 163 47 163 47 129 92.5 c 128,-1,8
 95 138 95 138 76.5 202.5 c 128,-1,9
 58 267 58 267 58 349 c 0,10,11
 58 437 58 437 79 504 c 128,-1,12
 100 571 100 571 138.5 617 c 128,-1,13
 177 663 177 663 231.5 686.5 c 128,-1,14
 286 710 286 710 354 710 c 0,15,16
 421 710 421 710 476 686.5 c 128,-1,17
 531 663 531 663 569.5 617 c 128,-1,18
 608 571 608 571 629 504 c 128,-1,19
 650 437 650 437 650 349 c 0,20,21
 650 188 650 188 583 97.5 c 128,-1,22
 516 7 516 7 401 -9 c 1,23,-1
 401 -94 l 1,24,-1
 508 -94 l 1,25,-1
 508 -164 l 1,0,-1
354 63 m 256,26,27
 399 63 399 63 437 79 c 128,-1,28
 475 95 475 95 502.5 125 c 128,-1,29
 530 155 530 155 545 197 c 128,-1,30
 560 239 560 239 560 291 c 2,31,-1
 560 407 l 2,32,33
 560 459 560 459 545 501 c 128,-1,34
 530 543 530 543 502.5 573 c 128,-1,35
 475 603 475 603 437 619 c 128,-1,36
 399 635 399 635 354 635 c 256,37,38
 309 635 309 635 271 619 c 128,-1,39
 233 603 233 603 205.5 573 c 128,-1,40
 178 543 178 543 163 501 c 128,-1,41
 148 459 148 459 148 407 c 2,42,-1
 148 291 l 2,43,44
 148 239 148 239 163 197 c 128,-1,45
 178 155 178 155 205.5 125 c 128,-1,46
 233 95 233 95 271 79 c 128,-1,47
 309 63 309 63 354 63 c 256,26,27
EndSplineSet
EndChar

StartChar: R
Encoding: 82 82 50
Width: 640
GlyphClass: 2
Flags: W
LayerCount: 2
Fore
SplineSet
177 0 m 1,0,-1
 93 0 l 1,1,-1
 93 698 l 1,2,-1
 371 698 l 2,3,4
 463 698 463 698 514.5 647 c 128,-1,5
 566 596 566 596 566 500 c 0,6,7
 566 423 566 423 530.5 373.5 c 128,-1,8
 495 324 495 324 426 308 c 1,9,-1
 586 0 l 1,10,-1
 491 0 l 1,11,-1
 340 300 l 1,12,-1
 177 300 l 1,13,-1
 177 0 l 1,0,-1
371 372 m 2,14,15
 421 372 421 372 448.5 398 c 128,-1,16
 476 424 476 424 476 472 c 2,17,-1
 476 524 l 2,18,19
 476 572 476 572 448.5 598 c 128,-1,20
 421 624 421 624 371 624 c 2,21,-1
 177 624 l 1,22,-1
 177 372 l 1,23,-1
 371 372 l 2,14,15
EndSplineSet
EndChar

StartChar: S
Encoding: 83 83 51
Width: 581
GlyphClass: 2
Flags: W
LayerCount: 2
Fore
SplineSet
289 -12 m 0,0,1
 204 -12 204 -12 144 20.5 c 128,-1,2
 84 53 84 53 42 110 c 1,3,-1
 104 162 l 1,4,5
 141 113 141 113 186 87.5 c 128,-1,6
 231 62 231 62 292 62 c 0,7,8
 367 62 367 62 406.5 98 c 128,-1,9
 446 134 446 134 446 194 c 0,10,11
 446 244 446 244 416 271 c 128,-1,12
 386 298 386 298 317 314 c 2,13,-1
 260 327 l 2,14,15
 164 349 164 349 113.5 393.5 c 128,-1,16
 63 438 63 438 63 519 c 0,17,18
 63 565 63 565 80 601 c 128,-1,19
 97 637 97 637 127.5 661 c 128,-1,20
 158 685 158 685 200.5 697.5 c 128,-1,21
 243 710 243 710 294 710 c 0,22,23
 373 710 373 710 429.5 681 c 128,-1,24
 486 652 486 652 525 596 c 1,25,-1
 462 550 l 1,26,27
 433 590 433 590 392 613 c 128,-1,28
 351 636 351 636 290 636 c 0,29,30
 223 636 223 636 184.5 607.5 c 128,-1,31
 146 579 146 579 146 522 c 0,32,33
 146 472 146 472 178.5 446.5 c 128,-1,34
 211 421 211 421 277 406 c 2,35,-1
 334 393 l 2,36,37
 437 370 437 370 483 323 c 128,-1,38
 529 276 529 276 529 198 c 0,39,40
 529 150 529 150 512.5 111 c 128,-1,41
 496 72 496 72 465 45 c 128,-1,42
 434 18 434 18 389.5 3 c 128,-1,43
 345 -12 345 -12 289 -12 c 0,0,1
EndSplineSet
EndChar

StartChar: T
Encoding: 84 84 52
Width: 572
GlyphClass: 2
Flags: W
LayerCount: 2
Fore
SplineSet
328 624 m 1,0,-1
 328 0 l 1,1,-1
 244 0 l 1,2,-1
 244 624 l 1,3,-1
 22 624 l 1,4,-1
 22 698 l 1,5,-1
 550 698 l 1,6,-1
 550 624 l 1,7,-1
 328 624 l 1,0,-1
EndSplineSet
EndChar

StartChar: U
Encoding: 85 85 53
Width: 678
GlyphClass: 2
Flags: W
LayerCount: 2
Fore
SplineSet
172 698 m 1,0,-1
 172 266 l 2,1,2
 172 166 172 166 209 114.5 c 128,-1,3
 246 63 246 63 339 63 c 256,4,5
 432 63 432 63 469 114.5 c 128,-1,6
 506 166 506 166 506 266 c 2,7,-1
 506 698 l 1,8,-1
 590 698 l 1,9,-1
 590 286 l 2,10,11
 590 210 590 210 576.5 154 c 128,-1,12
 563 98 563 98 533 61 c 128,-1,13
 503 24 503 24 454.5 6 c 128,-1,14
 406 -12 406 -12 336 -12 c 256,15,16
 266 -12 266 -12 218.5 6 c 128,-1,17
 171 24 171 24 142 61 c 128,-1,18
 113 98 113 98 100.5 154 c 128,-1,19
 88 210 88 210 88 286 c 2,20,-1
 88 698 l 1,21,-1
 172 698 l 1,0,-1
EndSplineSet
EndChar

StartChar: V
Encoding: 86 86 54
Width: 609
GlyphClass: 2
Flags: W
LayerCount: 2
Fore
SplineSet
252 0 m 1,0,-1
 20 698 l 1,1,-1
 110 698 l 1,2,-1
 225 346 l 1,3,-1
 302 84 l 1,4,-1
 307 84 l 1,5,-1
 386 346 l 1,6,-1
 502 698 l 1,7,-1
 589 698 l 1,8,-1
 354 0 l 1,9,-1
 252 0 l 1,0,-1
EndSplineSet
EndChar

StartChar: W
Encoding: 87 87 55
Width: 891
GlyphClass: 2
Flags: W
LayerCount: 2
Fore
SplineSet
190 0 m 1,0,-1
 20 698 l 1,1,-1
 109 698 l 1,2,-1
 184 362 l 1,3,-1
 242 101 l 1,4,-1
 244 101 l 1,5,-1
 309 362 l 1,6,-1
 397 698 l 1,7,-1
 493 698 l 1,8,-1
 578 362 l 1,9,-1
 643 102 l 1,10,-1
 646 102 l 1,11,-1
 706 362 l 1,12,-1
 785 698 l 1,13,-1
 871 698 l 1,14,-1
 692 0 l 1,15,-1
 599 0 l 1,16,-1
 508 348 l 1,17,-1
 444 604 l 1,18,-1
 442 604 l 1,19,-1
 376 348 l 1,20,-1
 283 0 l 1,21,-1
 190 0 l 1,0,-1
EndSplineSet
EndChar

StartChar: X
Encoding: 88 88 56
Width: 613
GlyphClass: 2
Flags: W
LayerCount: 2
Fore
SplineSet
589 0 m 1,0,-1
 488 0 l 1,1,-1
 305 293 l 1,2,-1
 303 293 l 1,3,-1
 120 0 l 1,4,-1
 24 0 l 1,5,-1
 252 355 l 1,6,-1
 30 698 l 1,7,-1
 131 698 l 1,8,-1
 306 420 l 1,9,-1
 308 420 l 1,10,-1
 487 698 l 1,11,-1
 583 698 l 1,12,-1
 359 358 l 1,13,-1
 589 0 l 1,0,-1
EndSplineSet
EndChar

StartChar: Y
Encoding: 89 89 57
Width: 593
GlyphClass: 2
Flags: W
LayerCount: 2
Fore
SplineSet
253 0 m 1,0,-1
 253 276 l 1,1,-1
 13 698 l 1,2,-1
 109 698 l 1,3,-1
 295 362 l 1,4,-1
 298 362 l 1,5,-1
 484 698 l 1,6,-1
 580 698 l 1,7,-1
 337 279 l 1,8,-1
 337 0 l 1,9,-1
 253 0 l 1,0,-1
EndSplineSet
EndChar

StartChar: Z
Encoding: 90 90 58
Width: 580
GlyphClass: 2
Flags: W
LayerCount: 2
Fore
SplineSet
544 0 m 1,0,-1
 36 0 l 1,1,-1
 36 76 l 1,2,-1
 439 624 l 1,3,-1
 57 624 l 1,4,-1
 57 698 l 1,5,-1
 530 698 l 1,6,-1
 530 622 l 1,7,-1
 126 74 l 1,8,-1
 544 74 l 1,9,-1
 544 0 l 1,0,-1
EndSplineSet
EndChar

StartChar: zero
Encoding: 48 48 59
Width: 600
GlyphClass: 1
Flags: W
LayerCount: 2
Fore
SplineSet
300 -12 m 256,0,1
 175 -12 175 -12 117.5 83 c 128,-1,2
 60 178 60 178 60 349 c 256,3,4
 60 520 60 520 117.5 615 c 128,-1,5
 175 710 175 710 300 710 c 256,6,7
 425 710 425 710 482.5 615 c 128,-1,8
 540 520 540 520 540 349 c 256,9,10
 540 178 540 178 482.5 83 c 128,-1,11
 425 -12 425 -12 300 -12 c 256,0,1
300 61 m 256,12,13
 341 61 341 61 370 78 c 128,-1,14
 399 95 399 95 417 126 c 128,-1,15
 435 157 435 157 443.5 199 c 128,-1,16
 452 241 452 241 452 292 c 2,17,-1
 452 406 l 2,18,19
 452 457 452 457 443.5 499 c 128,-1,20
 435 541 435 541 417 572 c 128,-1,21
 399 603 399 603 370 620 c 128,-1,22
 341 637 341 637 300 637 c 256,23,24
 259 637 259 637 230 620 c 128,-1,25
 201 603 201 603 183 572 c 128,-1,26
 165 541 165 541 156.5 499 c 128,-1,27
 148 457 148 457 148 406 c 2,28,-1
 148 292 l 2,29,30
 148 241 148 241 156.5 199 c 128,-1,31
 165 157 165 157 183 126 c 128,-1,32
 201 95 201 95 230 78 c 128,-1,33
 259 61 259 61 300 61 c 256,12,13
EndSplineSet
Substitution2: "'salt' Stylistic Alternatives lookup 28 subtable" zero.alt01
Substitution2: "'ss04' Style Set 4 lookup 26 subtable" zero.alt01
Substitution2: "'ss03' Style Set 3 lookup 25 subtable" zero.alt02
Substitution2: "'zero' Slashed Zero lookup 22 subtable" zero.alt02
Substitution2: "'sinf' Scientific Inferiors lookup 21 subtable" uni2080
Substitution2: "'sups' Superscript lookup 19 subtable" uni2070
Substitution2: "'dnom' Denominators lookup 18 subtable" uni2080
Substitution2: "'numr' Numerators lookup 17 subtable" uni2070
Substitution2: "'frac' Diagonal Fractions lookup 15 subtable" uni2070
AlternateSubs2: "'aalt' Access All Alternates lookup 1 subtable" zero.alt01 zero.alt02
EndChar

StartChar: zero.alt01
Encoding: 65540 -1 60
Width: 600
GlyphClass: 1
Flags: W
LayerCount: 2
Fore
SplineSet
300 -12 m 256,0,1
 175 -12 175 -12 117.5 83 c 128,-1,2
 60 178 60 178 60 349 c 256,3,4
 60 520 60 520 117.5 615 c 128,-1,5
 175 710 175 710 300 710 c 256,6,7
 425 710 425 710 482.5 615 c 128,-1,8
 540 520 540 520 540 349 c 256,9,10
 540 178 540 178 482.5 83 c 128,-1,11
 425 -12 425 -12 300 -12 c 256,0,1
300 61 m 256,12,13
 341 61 341 61 370 78 c 128,-1,14
 399 95 399 95 417 126 c 128,-1,15
 435 157 435 157 443.5 199 c 128,-1,16
 452 241 452 241 452 292 c 2,17,-1
 452 406 l 2,18,19
 452 457 452 457 443.5 499 c 128,-1,20
 435 541 435 541 417 572 c 128,-1,21
 399 603 399 603 370 620 c 128,-1,22
 341 637 341 637 300 637 c 256,23,24
 259 637 259 637 230 620 c 128,-1,25
 201 603 201 603 183 572 c 128,-1,26
 165 541 165 541 156.5 499 c 128,-1,27
 148 457 148 457 148 406 c 2,28,-1
 148 292 l 2,29,30
 148 241 148 241 156.5 199 c 128,-1,31
 165 157 165 157 183 126 c 128,-1,32
 201 95 201 95 230 78 c 128,-1,33
 259 61 259 61 300 61 c 256,12,13
300 292 m 256,34,35
 271 292 271 292 258 306.5 c 128,-1,36
 245 321 245 321 245 344 c 2,37,-1
 245 355 l 2,38,39
 245 378 245 378 258 393 c 128,-1,40
 271 408 271 408 300 408 c 256,41,42
 329 408 329 408 342 393 c 128,-1,43
 355 378 355 378 355 355 c 2,44,-1
 355 344 l 2,45,46
 355 321 355 321 342 306.5 c 128,-1,47
 329 292 329 292 300 292 c 256,34,35
EndSplineSet
EndChar

StartChar: zero.alt02
Encoding: 65541 -1 61
Width: 600
GlyphClass: 1
Flags: W
LayerCount: 2
Fore
SplineSet
300 -12 m 256,0,1
 175 -12 175 -12 117.5 83 c 128,-1,2
 60 178 60 178 60 349 c 256,3,4
 60 520 60 520 117.5 615 c 128,-1,5
 175 710 175 710 300 710 c 256,6,7
 425 710 425 710 482.5 615 c 128,-1,8
 540 520 540 520 540 349 c 256,9,10
 540 178 540 178 482.5 83 c 128,-1,11
 425 -12 425 -12 300 -12 c 256,0,1
300 61 m 0,12,13
 341 61 341 61 370 78 c 128,-1,14
 399 95 399 95 417 126 c 128,-1,15
 435 157 435 157 443.5 199 c 128,-1,16
 452 241 452 241 452 292 c 2,17,-1
 452 406 l 2,18,19
 452 423 452 423 451 438.5 c 128,-1,20
 450 454 450 454 448 469 c 1,21,-1
 168 156 l 1,22,23
 185 111 185 111 217 86 c 128,-1,24
 249 61 249 61 300 61 c 0,12,13
148 292 m 2,25,26
 148 259 148 259 151 229 c 1,27,-1
 431 541 l 1,28,29
 414 586 414 586 382.5 611.5 c 128,-1,30
 351 637 351 637 300 637 c 0,31,32
 259 637 259 637 230 620 c 128,-1,33
 201 603 201 603 183 572 c 128,-1,34
 165 541 165 541 156.5 499 c 128,-1,35
 148 457 148 457 148 406 c 2,36,-1
 148 292 l 2,25,26
EndSplineSet
EndChar

StartChar: one
Encoding: 49 49 62
Width: 600
GlyphClass: 1
Flags: W
LayerCount: 2
Fore
SplineSet
88 0 m 1,0,-1
 88 74 l 1,1,-1
 283 74 l 1,2,-1
 283 636 l 1,3,-1
 276 636 l 1,4,-1
 100 472 l 1,5,-1
 51 525 l 1,6,-1
 236 698 l 1,7,-1
 367 698 l 1,8,-1
 367 74 l 1,9,-1
 547 74 l 1,10,-1
 547 0 l 1,11,-1
 88 0 l 1,0,-1
EndSplineSet
Substitution2: "'sinf' Scientific Inferiors lookup 21 subtable" uni2081
Substitution2: "'sups' Superscript lookup 19 subtable" onesuperior
Substitution2: "'dnom' Denominators lookup 18 subtable" uni2081
Substitution2: "'numr' Numerators lookup 17 subtable" onesuperior
Substitution2: "'frac' Diagonal Fractions lookup 15 subtable" onesuperior
EndChar

StartChar: two
Encoding: 50 50 63
Width: 600
GlyphClass: 1
Flags: W
LayerCount: 2
Fore
SplineSet
533 0 m 1,0,-1
 75 0 l 1,1,-1
 75 86 l 1,2,-1
 303 296 l 2,3,4
 352 341 352 341 385 391.5 c 128,-1,5
 418 442 418 442 418 493 c 2,6,-1
 418 505 l 2,7,8
 418 563 418 563 386 599 c 128,-1,9
 354 635 354 635 289 635 c 0,10,11
 257 635 257 635 233 626 c 128,-1,12
 209 617 209 617 191.5 601 c 128,-1,13
 174 585 174 585 162.5 563.5 c 128,-1,14
 151 542 151 542 144 517 c 1,15,-1
 69 546 l 1,16,17
 79 577 79 577 96.5 606.5 c 128,-1,18
 114 636 114 636 140.5 659 c 128,-1,19
 167 682 167 682 204.5 696 c 128,-1,20
 242 710 242 710 293 710 c 256,21,22
 344 710 344 710 384 695 c 128,-1,23
 424 680 424 680 451 653 c 128,-1,24
 478 626 478 626 492.5 589 c 128,-1,25
 507 552 507 552 507 507 c 0,26,27
 507 466 507 466 495.5 431 c 128,-1,28
 484 396 484 396 464 364.5 c 128,-1,29
 444 333 444 333 415.5 303 c 128,-1,30
 387 273 387 273 354 243 c 2,31,-1
 166 74 l 1,32,-1
 533 74 l 1,33,-1
 533 0 l 1,0,-1
EndSplineSet
Substitution2: "'sinf' Scientific Inferiors lookup 21 subtable" uni2082
Substitution2: "'sups' Superscript lookup 19 subtable" twosuperior
Substitution2: "'dnom' Denominators lookup 18 subtable" uni2082
Substitution2: "'numr' Numerators lookup 17 subtable" twosuperior
Substitution2: "'frac' Diagonal Fractions lookup 15 subtable" twosuperior
EndChar

StartChar: three
Encoding: 51 51 64
Width: 600
GlyphClass: 1
Flags: W
LayerCount: 2
Fore
SplineSet
261 402 m 2,0,1
 332 402 332 402 367.5 434.5 c 128,-1,2
 403 467 403 467 403 518 c 2,3,-1
 403 525 l 2,4,5
 403 580 403 580 368.5 607.5 c 128,-1,6
 334 635 334 635 278 635 c 0,7,8
 224 635 224 635 190 611.5 c 128,-1,9
 156 588 156 588 134 548 c 1,10,-1
 72 596 l 1,11,12
 85 617 85 617 103.5 637.5 c 128,-1,13
 122 658 122 658 147 674 c 128,-1,14
 172 690 172 690 205 700 c 128,-1,15
 238 710 238 710 280 710 c 0,16,17
 324 710 324 710 363 698.5 c 128,-1,18
 402 687 402 687 430.5 664.5 c 128,-1,19
 459 642 459 642 475.5 609 c 128,-1,20
 492 576 492 576 492 534 c 0,21,22
 492 500 492 500 481.5 473 c 128,-1,23
 471 446 471 446 453 426 c 128,-1,24
 435 406 435 406 410.5 392 c 128,-1,25
 386 378 386 378 358 371 c 1,26,-1
 358 367 l 1,27,28
 386 361 386 361 412.5 347.5 c 128,-1,29
 439 334 439 334 459.5 312.5 c 128,-1,30
 480 291 480 291 492.5 260.5 c 128,-1,31
 505 230 505 230 505 191 c 0,32,33
 505 146 505 146 488 108.5 c 128,-1,34
 471 71 471 71 440 44.5 c 128,-1,35
 409 18 409 18 365 3 c 128,-1,36
 321 -12 321 -12 268 -12 c 0,37,38
 223 -12 223 -12 188 -2 c 128,-1,39
 153 8 153 8 126 25 c 128,-1,40
 99 42 99 42 78.5 63 c 128,-1,41
 58 84 58 84 42 107 c 1,42,-1
 105 155 l 1,43,44
 118 134 118 134 133.5 117 c 128,-1,45
 149 100 149 100 168 88 c 128,-1,46
 187 76 187 76 211 69.5 c 128,-1,47
 235 63 235 63 267 63 c 0,48,49
 341 63 341 63 379 96.5 c 128,-1,50
 417 130 417 130 417 192 c 2,51,-1
 417 200 l 2,52,53
 417 262 417 262 379 295.5 c 128,-1,54
 341 329 341 329 267 329 c 2,55,-1
 185 329 l 1,56,-1
 185 402 l 1,57,-1
 261 402 l 2,0,1
EndSplineSet
Substitution2: "'sinf' Scientific Inferiors lookup 21 subtable" uni2083
Substitution2: "'sups' Superscript lookup 19 subtable" threesuperior
Substitution2: "'dnom' Denominators lookup 18 subtable" uni2083
Substitution2: "'numr' Numerators lookup 17 subtable" threesuperior
Substitution2: "'frac' Diagonal Fractions lookup 15 subtable" threesuperior
EndChar

StartChar: four
Encoding: 52 52 65
Width: 600
GlyphClass: 1
Flags: W
LayerCount: 2
Fore
SplineSet
375 0 m 1,0,-1
 375 137 l 1,1,-1
 38 137 l 1,2,-1
 38 211 l 1,3,-1
 330 698 l 1,4,-1
 455 698 l 1,5,-1
 455 207 l 1,6,-1
 556 207 l 1,7,-1
 556 137 l 1,8,-1
 455 137 l 1,9,-1
 455 0 l 1,10,-1
 375 0 l 1,0,-1
117 207 m 1,11,-1
 375 207 l 1,12,-1
 375 633 l 1,13,-1
 370 633 l 1,14,-1
 117 207 l 1,11,-1
EndSplineSet
Substitution2: "'sinf' Scientific Inferiors lookup 21 subtable" uni2084
Substitution2: "'sups' Superscript lookup 19 subtable" uni2074
Substitution2: "'dnom' Denominators lookup 18 subtable" uni2084
Substitution2: "'numr' Numerators lookup 17 subtable" uni2074
Substitution2: "'frac' Diagonal Fractions lookup 15 subtable" uni2074
EndChar

StartChar: five
Encoding: 53 53 66
Width: 600
GlyphClass: 1
Flags: W
LayerCount: 2
Fore
SplineSet
498 624 m 1,0,-1
 192 624 l 1,1,-1
 172 358 l 1,2,-1
 179 358 l 1,3,4
 204 393 204 393 235.5 414 c 128,-1,5
 267 435 267 435 322 435 c 0,6,7
 367 435 367 435 405 420 c 128,-1,8
 443 405 443 405 471 377.5 c 128,-1,9
 499 350 499 350 514.5 310 c 128,-1,10
 530 270 530 270 530 219 c 256,11,12
 530 168 530 168 514 125.5 c 128,-1,13
 498 83 498 83 467.5 52.5 c 128,-1,14
 437 22 437 22 393.5 5 c 128,-1,15
 350 -12 350 -12 295 -12 c 0,16,17
 251 -12 251 -12 217.5 -2 c 128,-1,18
 184 8 184 8 158 25 c 128,-1,19
 132 42 132 42 112.5 63 c 128,-1,20
 93 84 93 84 77 107 c 1,21,-1
 140 155 l 1,22,23
 153 134 153 134 167.5 117 c 128,-1,24
 182 100 182 100 199.5 88 c 128,-1,25
 217 76 217 76 240 69.5 c 128,-1,26
 263 63 263 63 295 63 c 0,27,28
 367 63 367 63 404 101 c 128,-1,29
 441 139 441 139 441 208 c 2,30,-1
 441 218 l 2,31,32
 441 287 441 287 404 325 c 128,-1,33
 367 363 367 363 295 363 c 0,34,35
 247 363 247 363 219.5 345.5 c 128,-1,36
 192 328 192 328 170 304 c 1,37,-1
 99 314 l 1,38,-1
 124 698 l 1,39,-1
 498 698 l 1,40,-1
 498 624 l 1,0,-1
EndSplineSet
Substitution2: "'sinf' Scientific Inferiors lookup 21 subtable" uni2085
Substitution2: "'sups' Superscript lookup 19 subtable" uni2075
Substitution2: "'dnom' Denominators lookup 18 subtable" uni2085
Substitution2: "'numr' Numerators lookup 17 subtable" uni2075
Substitution2: "'frac' Diagonal Fractions lookup 15 subtable" uni2075
EndChar

StartChar: six
Encoding: 54 54 67
Width: 600
GlyphClass: 1
Flags: W
LayerCount: 2
Fore
SplineSet
301 -12 m 0,0,1
 247 -12 247 -12 203.5 6.5 c 128,-1,2
 160 25 160 25 129.5 59.5 c 128,-1,3
 99 94 99 94 83 144 c 128,-1,4
 67 194 67 194 67 256 c 0,5,6
 67 334 67 334 90 402.5 c 128,-1,7
 113 471 113 471 149.5 527.5 c 128,-1,8
 186 584 186 584 230 627.5 c 128,-1,9
 274 671 274 671 316 698 c 1,10,-1
 424 698 l 1,11,12
 368 657 368 657 324 618 c 128,-1,13
 280 579 280 579 247 536.5 c 128,-1,14
 214 494 214 494 191 445.5 c 128,-1,15
 168 397 168 397 154 336 c 1,16,-1
 159 334 l 1,17,18
 184 377 184 377 223.5 405.5 c 128,-1,19
 263 434 263 434 327 434 c 0,20,21
 372 434 372 434 410 419 c 128,-1,22
 448 404 448 404 475 376 c 128,-1,23
 502 348 502 348 517.5 308 c 128,-1,24
 533 268 533 268 533 219 c 0,25,26
 533 168 533 168 516.5 125.5 c 128,-1,27
 500 83 500 83 469.5 52.5 c 128,-1,28
 439 22 439 22 396 5 c 128,-1,29
 353 -12 353 -12 301 -12 c 0,0,1
300 61 m 256,30,31
 369 61 369 61 407.5 99 c 128,-1,32
 446 137 446 137 446 208 c 2,33,-1
 446 216 l 2,34,35
 446 287 446 287 407.5 325 c 128,-1,36
 369 363 369 363 300 363 c 256,37,38
 231 363 231 363 192.5 325 c 128,-1,39
 154 287 154 287 154 216 c 2,40,-1
 154 208 l 2,41,42
 154 137 154 137 192.5 99 c 128,-1,43
 231 61 231 61 300 61 c 256,30,31
EndSplineSet
Substitution2: "'sinf' Scientific Inferiors lookup 21 subtable" uni2086
Substitution2: "'sups' Superscript lookup 19 subtable" uni2076
Substitution2: "'dnom' Denominators lookup 18 subtable" uni2086
Substitution2: "'numr' Numerators lookup 17 subtable" uni2076
Substitution2: "'frac' Diagonal Fractions lookup 15 subtable" uni2076
EndChar

StartChar: seven
Encoding: 55 55 68
Width: 600
GlyphClass: 1
Flags: W
LayerCount: 2
Fore
SplineSet
175 0 m 1,0,-1
 442 626 l 1,1,-1
 144 626 l 1,2,-1
 144 496 l 1,3,-1
 69 496 l 1,4,-1
 69 698 l 1,5,-1
 527 698 l 1,6,-1
 527 624 l 1,7,-1
 265 0 l 1,8,-1
 175 0 l 1,0,-1
EndSplineSet
Substitution2: "'sinf' Scientific Inferiors lookup 21 subtable" uni2087
Substitution2: "'sups' Superscript lookup 19 subtable" uni2077
Substitution2: "'dnom' Denominators lookup 18 subtable" uni2087
Substitution2: "'numr' Numerators lookup 17 subtable" uni2077
Substitution2: "'frac' Diagonal Fractions lookup 15 subtable" uni2077
EndChar

StartChar: eight
Encoding: 56 56 69
Width: 600
GlyphClass: 1
Flags: W
LayerCount: 2
Fore
SplineSet
300 -12 m 256,0,1
 240 -12 240 -12 195 3.5 c 128,-1,2
 150 19 150 19 119.5 46 c 128,-1,3
 89 73 89 73 73.5 110 c 128,-1,4
 58 147 58 147 58 190 c 0,5,6
 58 262 58 262 97 304 c 128,-1,7
 136 346 136 346 199 363 c 1,8,-1
 199 371 l 1,9,10
 144 390 144 390 111.5 432.5 c 128,-1,11
 79 475 79 475 79 535 c 0,12,13
 79 615 79 615 137 662.5 c 128,-1,14
 195 710 195 710 300 710 c 256,15,16
 405 710 405 710 463 662.5 c 128,-1,17
 521 615 521 615 521 535 c 0,18,19
 521 475 521 475 488.5 432.5 c 128,-1,20
 456 390 456 390 401 371 c 1,21,-1
 401 363 l 1,22,23
 464 346 464 346 503 304 c 128,-1,24
 542 262 542 262 542 190 c 0,25,26
 542 147 542 147 526.5 110 c 128,-1,27
 511 73 511 73 480.5 46 c 128,-1,28
 450 19 450 19 405 3.5 c 128,-1,29
 360 -12 360 -12 300 -12 c 256,0,1
300 61 m 256,30,31
 373 61 373 61 413 93.5 c 128,-1,32
 453 126 453 126 453 186 c 2,33,-1
 453 207 l 2,34,35
 453 267 453 267 413 299.5 c 128,-1,36
 373 332 373 332 300 332 c 256,37,38
 227 332 227 332 187 299.5 c 128,-1,39
 147 267 147 267 147 207 c 2,40,-1
 147 186 l 2,41,42
 147 126 147 126 187 93.5 c 128,-1,43
 227 61 227 61 300 61 c 256,30,31
300 402 m 256,44,45
 366 402 366 402 400 430 c 128,-1,46
 434 458 434 458 434 512 c 2,47,-1
 434 527 l 2,48,49
 434 581 434 581 400 609 c 128,-1,50
 366 637 366 637 300 637 c 256,51,52
 234 637 234 637 200 609 c 128,-1,53
 166 581 166 581 166 527 c 2,54,-1
 166 512 l 2,55,56
 166 458 166 458 200 430 c 128,-1,57
 234 402 234 402 300 402 c 256,44,45
EndSplineSet
Substitution2: "'sinf' Scientific Inferiors lookup 21 subtable" uni2088
Substitution2: "'sups' Superscript lookup 19 subtable" uni2078
Substitution2: "'dnom' Denominators lookup 18 subtable" uni2088
Substitution2: "'numr' Numerators lookup 17 subtable" uni2078
Substitution2: "'frac' Diagonal Fractions lookup 15 subtable" uni2078
EndChar

StartChar: nine
Encoding: 57 57 70
Width: 600
GlyphClass: 1
Flags: W
LayerCount: 2
Fore
SplineSet
533 442 m 0,0,1
 533 364 533 364 510 295.5 c 128,-1,2
 487 227 487 227 450.5 170.5 c 128,-1,3
 414 114 414 114 370 70.5 c 128,-1,4
 326 27 326 27 284 0 c 1,5,-1
 176 0 l 1,6,7
 232 41 232 41 276 80 c 128,-1,8
 320 119 320 119 353 161.5 c 128,-1,9
 386 204 386 204 409 252.5 c 128,-1,10
 432 301 432 301 446 362 c 1,11,-1
 441 364 l 1,12,13
 416 321 416 321 376.5 292.5 c 128,-1,14
 337 264 337 264 273 264 c 0,15,16
 228 264 228 264 190 279 c 128,-1,17
 152 294 152 294 125 322 c 128,-1,18
 98 350 98 350 82.5 389.5 c 128,-1,19
 67 429 67 429 67 479 c 0,20,21
 67 530 67 530 83.5 572.5 c 128,-1,22
 100 615 100 615 130.5 645.5 c 128,-1,23
 161 676 161 676 203.5 693 c 128,-1,24
 246 710 246 710 299 710 c 0,25,26
 353 710 353 710 396.5 691.5 c 128,-1,27
 440 673 440 673 470.5 638.5 c 128,-1,28
 501 604 501 604 517 554 c 128,-1,29
 533 504 533 504 533 442 c 0,0,1
300 335 m 256,30,31
 369 335 369 335 407.5 373 c 128,-1,32
 446 411 446 411 446 482 c 2,33,-1
 446 490 l 2,34,35
 446 561 446 561 407.5 599 c 128,-1,36
 369 637 369 637 300 637 c 256,37,38
 231 637 231 637 192.5 599 c 128,-1,39
 154 561 154 561 154 490 c 2,40,-1
 154 482 l 2,41,42
 154 411 154 411 192.5 373 c 128,-1,43
 231 335 231 335 300 335 c 256,30,31
EndSplineSet
Substitution2: "'sinf' Scientific Inferiors lookup 21 subtable" uni2089
Substitution2: "'sups' Superscript lookup 19 subtable" uni2079
Substitution2: "'dnom' Denominators lookup 18 subtable" uni2089
Substitution2: "'numr' Numerators lookup 17 subtable" uni2079
Substitution2: "'frac' Diagonal Fractions lookup 15 subtable" uni2079
EndChar

StartChar: ampersand
Encoding: 38 38 71
Width: 694
GlyphClass: 1
Flags: W
LayerCount: 2
Fore
SplineSet
489 82 m 1,0,1
 478 69 478 69 461 52.5 c 128,-1,2
 444 36 444 36 419.5 22 c 128,-1,3
 395 8 395 8 361.5 -2 c 128,-1,4
 328 -12 328 -12 286 -12 c 0,5,6
 234 -12 234 -12 194 3 c 128,-1,7
 154 18 154 18 127 44.5 c 128,-1,8
 100 71 100 71 86 106 c 128,-1,9
 72 141 72 141 72 181 c 0,10,11
 72 220 72 220 84 250 c 128,-1,12
 96 280 96 280 116.5 303.5 c 128,-1,13
 137 327 137 327 162.5 345 c 128,-1,14
 188 363 188 363 215 378 c 1,15,16
 179 416 179 416 157.5 455.5 c 128,-1,17
 136 495 136 495 136 542 c 0,18,19
 136 577 136 577 149 608 c 128,-1,20
 162 639 162 639 185.5 661.5 c 128,-1,21
 209 684 209 684 242.5 697 c 128,-1,22
 276 710 276 710 317 710 c 0,23,24
 354 710 354 710 385 699 c 128,-1,25
 416 688 416 688 438 668.5 c 128,-1,26
 460 649 460 649 472.5 621 c 128,-1,27
 485 593 485 593 485 560 c 0,28,29
 485 525 485 525 472.5 497.5 c 128,-1,30
 460 470 460 470 438 447 c 128,-1,31
 416 424 416 424 387 404.5 c 128,-1,32
 358 385 358 385 325 367 c 1,33,-1
 482 198 l 1,34,35
 497 236 497 236 505 279 c 128,-1,36
 513 322 513 322 515 367 c 1,37,-1
 651 367 l 1,38,-1
 651 299 l 1,39,-1
 580 299 l 1,40,41
 573 255 573 255 561 216.5 c 128,-1,42
 549 178 549 178 532 145 c 1,43,-1
 668 0 l 1,44,-1
 564 0 l 1,45,-1
 489 82 l 1,0,1
313 643 m 0,46,47
 270 643 270 643 242.5 616 c 128,-1,48
 215 589 215 589 215 549 c 2,49,-1
 215 537 l 2,50,51
 215 507 215 507 233.5 476.5 c 128,-1,52
 252 446 252 446 282 412 c 1,53,54
 306 425 306 425 328.5 439.5 c 128,-1,55
 351 454 351 454 368.5 471 c 128,-1,56
 386 488 386 488 397 506.5 c 128,-1,57
 408 525 408 525 408 546 c 2,58,-1
 408 558 l 2,59,60
 408 599 408 599 379.5 621 c 128,-1,61
 351 643 351 643 313 643 c 0,46,47
293 58 m 0,62,63
 344 58 344 58 381 77.5 c 128,-1,64
 418 97 418 97 444 130 c 1,65,-1
 257 332 l 1,66,67
 237 321 237 321 218.5 309 c 128,-1,68
 200 297 200 297 186 280.5 c 128,-1,69
 172 264 172 264 163.5 242.5 c 128,-1,70
 155 221 155 221 155 192 c 2,71,-1
 155 177 l 2,72,73
 155 122 155 122 192.5 90 c 128,-1,74
 230 58 230 58 293 58 c 0,62,63
EndSplineSet
EndChar

StartChar: at
Encoding: 64 64 72
Width: 891
GlyphClass: 1
Flags: W
LayerCount: 2
Fore
SplineSet
679 -121 m 1,0,-1
 447 -121 l 2,1,2
 361 -121 361 -121 290.5 -92 c 128,-1,3
 220 -63 220 -63 170 -9.5 c 128,-1,4
 120 44 120 44 92.5 119.5 c 128,-1,5
 65 195 65 195 65 288 c 256,6,7
 65 381 65 381 93 458 c 128,-1,8
 121 535 121 535 172 590.5 c 128,-1,9
 223 646 223 646 295 677 c 128,-1,10
 367 708 367 708 456 708 c 0,11,12
 526 708 526 708 593 686.5 c 128,-1,13
 660 665 660 665 711.5 619 c 128,-1,14
 763 573 763 573 794.5 499.5 c 128,-1,15
 826 426 826 426 826 323 c 0,16,17
 826 271 826 271 816.5 225 c 128,-1,18
 807 179 807 179 786 144.5 c 128,-1,19
 765 110 765 110 732 89.5 c 128,-1,20
 699 69 699 69 652 69 c 0,21,22
 604 69 604 69 580 93 c 128,-1,23
 556 117 556 117 551 155 c 1,24,-1
 547 155 l 1,25,26
 527 115 527 115 498 92 c 128,-1,27
 469 69 469 69 423 69 c 0,28,29
 388 69 388 69 356.5 82.5 c 128,-1,30
 325 96 325 96 301 123 c 128,-1,31
 277 150 277 150 263 191.5 c 128,-1,32
 249 233 249 233 249 289 c 256,33,34
 249 345 249 345 263 386.5 c 128,-1,35
 277 428 277 428 301 455 c 128,-1,36
 325 482 325 482 356.5 495.5 c 128,-1,37
 388 509 388 509 423 509 c 0,38,39
 469 509 469 509 496 486.5 c 128,-1,40
 523 464 523 464 537 432 c 1,41,-1
 541 432 l 1,42,-1
 541 500 l 1,43,-1
 610 500 l 1,44,-1
 610 196 l 2,45,46
 610 157 610 157 623.5 143.5 c 128,-1,47
 637 130 637 130 665 130 c 0,48,49
 712 130 712 130 736 178 c 128,-1,50
 760 226 760 226 760 310 c 2,51,-1
 760 356 l 2,52,53
 760 422 760 422 736.5 476 c 128,-1,54
 713 530 713 530 672 568 c 128,-1,55
 631 606 631 606 575 627 c 128,-1,56
 519 648 519 648 455 648 c 0,57,58
 383 648 383 648 324 623 c 128,-1,59
 265 598 265 598 222 553.5 c 128,-1,60
 179 509 179 509 155.5 449.5 c 128,-1,61
 132 390 132 390 132 321 c 2,62,-1
 132 262 l 2,63,64
 132 191 132 191 155 132 c 128,-1,65
 178 73 178 73 219.5 30 c 128,-1,66
 261 -13 261 -13 319 -36.5 c 128,-1,67
 377 -60 377 -60 448 -60 c 2,68,-1
 679 -60 l 1,69,-1
 679 -121 l 1,0,-1
437 135 m 0,70,71
 490 135 490 135 515.5 160 c 128,-1,72
 541 185 541 185 541 231 c 2,73,-1
 541 353 l 2,74,75
 541 391 541 391 516 417 c 128,-1,76
 491 443 491 443 437 443 c 256,77,78
 383 443 383 443 358 412 c 128,-1,79
 333 381 333 381 333 329 c 2,80,-1
 333 249 l 2,81,82
 333 197 333 197 358 166 c 128,-1,83
 383 135 383 135 437 135 c 0,70,71
EndSplineSet
EndChar

StartChar: hyphen
Encoding: 45 45 73
Width: 399
GlyphClass: 1
Flags: W
LayerCount: 2
Fore
SplineSet
69 261 m 1,0,-1
 69 347 l 1,1,-1
 330 347 l 1,2,-1
 330 261 l 1,3,-1
 69 261 l 1,0,-1
EndSplineSet
EndChar

StartChar: endash
Encoding: 8211 8211 75
Width: 588
GlyphClass: 1
Flags: W
LayerCount: 2
Fore
SplineSet
36 266 m 1,0,-1
 36 342 l 1,1,-1
 552 342 l 1,2,-1
 552 266 l 1,3,-1
 36 266 l 1,0,-1
EndSplineSet
EndChar

StartChar: emdash
Encoding: 8212 8212 76
Width: 780
GlyphClass: 1
Flags: W
LayerCount: 2
Fore
SplineSet
36 266 m 1,0,-1
 36 342 l 1,1,-1
 744 342 l 1,2,-1
 744 266 l 1,3,-1
 36 266 l 1,0,-1
EndSplineSet
EndChar

StartChar: underscore
Encoding: 95 95 77
Width: 565
GlyphClass: 1
Flags: W
LayerCount: 2
Fore
SplineSet
30 -165 m 1,0,-1
 30 -95 l 1,1,-1
 535 -95 l 1,2,-1
 535 -165 l 1,3,-1
 30 -165 l 1,0,-1
EndSplineSet
EndChar

StartChar: period
Encoding: 46 46 78
Width: 272
GlyphClass: 1
Flags: W
LayerCount: 2
Fore
SplineSet
136 -12 m 256,0,1
 104 -12 104 -12 89.5 4 c 128,-1,2
 75 20 75 20 75 46 c 2,3,-1
 75 59 l 2,4,5
 75 85 75 85 89.5 101 c 128,-1,6
 104 117 104 117 136 117 c 256,7,8
 168 117 168 117 182.5 101 c 128,-1,9
 197 85 197 85 197 59 c 2,10,-1
 197 46 l 2,11,12
 197 20 197 20 182.5 4 c 128,-1,13
 168 -12 168 -12 136 -12 c 256,0,1
EndSplineSet
EndChar

StartChar: comma
Encoding: 44 44 81
Width: 272
GlyphClass: 1
Flags: W
LayerCount: 2
Fore
SplineSet
136 117 m 256,0,1
 168 117 168 117 182.5 100.5 c 128,-1,2
 197 84 197 84 197 58 c 2,3,-1
 197 44 l 2,4,5
 197 3 197 3 173 -46.5 c 128,-1,6
 149 -96 149 -96 106 -133 c 1,7,-1
 39 -133 l 1,8,9
 69 -101 69 -101 87.5 -72.5 c 128,-1,10
 106 -44 106 -44 114 -9 c 1,11,12
 94 -4 94 -4 84.5 10 c 128,-1,13
 75 24 75 24 75 44 c 2,14,-1
 75 58 l 2,15,16
 75 84 75 84 89.5 100.5 c 128,-1,17
 104 117 104 117 136 117 c 256,0,1
EndSplineSet
EndChar

StartChar: quotesingle
Encoding: 39 39 83
Width: 242
GlyphClass: 1
Flags: W
LayerCount: 2
Fore
SplineSet
85 460 m 1,0,-1
 85 740 l 1,1,-1
 157 740 l 1,2,-1
 157 460 l 1,3,-1
 85 460 l 1,0,-1
EndSplineSet
Position2: "Single Positioning lookup 13 per glyph data 0" dx=100 dy=0 dh=100 dv=0
EndChar

StartChar: quoteleft
Encoding: 8216 8216 85
Width: 273
GlyphClass: 1
Flags: W
LayerCount: 2
Fore
SplineSet
132 490 m 256,0,1
 100 490 100 490 85.5 506.5 c 128,-1,2
 71 523 71 523 71 549 c 2,3,-1
 71 563 l 2,4,5
 71 604 71 604 95 653.5 c 128,-1,6
 119 703 119 703 162 740 c 1,7,-1
 229 740 l 1,8,9
 199 708 199 708 180.5 679.5 c 128,-1,10
 162 651 162 651 154 616 c 1,11,12
 174 611 174 611 183.5 597 c 128,-1,13
 193 583 193 583 193 563 c 2,14,-1
 193 549 l 2,15,16
 193 523 193 523 178.5 506.5 c 128,-1,17
 164 490 164 490 132 490 c 256,0,1
EndSplineSet
Position2: "Single Positioning lookup 13 per glyph data 0" dx=100 dy=0 dh=100 dv=0
EndChar

StartChar: quoteright
Encoding: 8217 8217 86
Width: 273
GlyphClass: 1
Flags: W
LayerCount: 2
Fore
SplineSet
141 750 m 256,0,1
 173 750 173 750 187.5 733.5 c 128,-1,2
 202 717 202 717 202 691 c 2,3,-1
 202 677 l 2,4,5
 202 636 202 636 178 586.5 c 128,-1,6
 154 537 154 537 111 500 c 1,7,-1
 44 500 l 1,8,9
 74 532 74 532 92.5 560.5 c 128,-1,10
 111 589 111 589 119 624 c 1,11,12
 99 629 99 629 89.5 643 c 128,-1,13
 80 657 80 657 80 677 c 2,14,-1
 80 691 l 2,15,16
 80 717 80 717 94.5 733.5 c 128,-1,17
 109 750 109 750 141 750 c 256,0,1
EndSplineSet
Position2: "Single Positioning lookup 13 per glyph data 0" dx=100 dy=0 dh=100 dv=0
EndChar

StartChar: quotesinglbase
Encoding: 8218 8218 89
Width: 274
GlyphClass: 1
Flags: W
LayerCount: 2
Fore
SplineSet
132 134 m 256,0,1
 164 134 164 134 178.5 117.5 c 128,-1,2
 193 101 193 101 193 75 c 2,3,-1
 193 61 l 2,4,5
 193 20 193 20 169 -29.5 c 128,-1,6
 145 -79 145 -79 102 -116 c 1,7,-1
 35 -116 l 1,8,9
 65 -84 65 -84 83.5 -55.5 c 128,-1,10
 102 -27 102 -27 110 8 c 1,11,12
 90 13 90 13 80.5 27 c 128,-1,13
 71 41 71 41 71 61 c 2,14,-1
 71 75 l 2,15,16
 71 101 71 101 85.5 117.5 c 128,-1,17
 100 134 100 134 132 134 c 256,0,1
EndSplineSet
EndChar

StartChar: guilsinglleft
Encoding: 8249 8249 91
Width: 304
GlyphClass: 1
Flags: W
LayerCount: 2
Fore
SplineSet
228 80 m 1,0,-1
 36 246 l 1,1,-1
 36 322 l 1,2,-1
 228 488 l 1,3,-1
 252 434 l 1,4,-1
 115 284 l 1,5,-1
 252 134 l 1,6,-1
 228 80 l 1,0,-1
EndSplineSet
EndChar

StartChar: guilsinglright
Encoding: 8250 8250 92
Width: 304
GlyphClass: 1
Flags: W
LayerCount: 2
Fore
SplineSet
52 134 m 1,0,-1
 189 284 l 1,1,-1
 52 434 l 1,2,-1
 76 488 l 1,3,-1
 268 322 l 1,4,-1
 268 246 l 1,5,-1
 76 80 l 1,6,-1
 52 134 l 1,0,-1
EndSplineSet
EndChar

StartChar: exclamdown
Encoding: 161 161 95
Width: 284
GlyphClass: 1
Flags: W
LayerCount: 2
Fore
SplineSet
97 -182 m 1,0,-1
 97 21 l 1,1,-1
 121 331 l 1,2,-1
 161 331 l 1,3,-1
 185 21 l 1,4,-1
 185 -182 l 1,5,-1
 97 -182 l 1,0,-1
142 399 m 256,6,7
 110 399 110 399 95.5 415 c 128,-1,8
 81 431 81 431 81 457 c 2,9,-1
 81 470 l 2,10,11
 81 496 81 496 95.5 512 c 128,-1,12
 110 528 110 528 142 528 c 256,13,14
 174 528 174 528 188.5 512 c 128,-1,15
 203 496 203 496 203 470 c 2,16,-1
 203 457 l 2,17,18
 203 431 203 431 188.5 415 c 128,-1,19
 174 399 174 399 142 399 c 256,6,7
EndSplineSet
EndChar

StartChar: exclam
Encoding: 33 33 96
Width: 284
GlyphClass: 1
Flags: W
LayerCount: 2
Fore
SplineSet
122 185 m 1,0,-1
 98 495 l 1,1,-1
 98 698 l 1,2,-1
 186 698 l 1,3,-1
 186 495 l 1,4,-1
 162 185 l 1,5,-1
 122 185 l 1,0,-1
142 -12 m 256,6,7
 110 -12 110 -12 95.5 4 c 128,-1,8
 81 20 81 20 81 46 c 2,9,-1
 81 59 l 2,10,11
 81 85 81 85 95.5 101 c 128,-1,12
 110 117 110 117 142 117 c 256,13,14
 174 117 174 117 188.5 101 c 128,-1,15
 203 85 203 85 203 59 c 2,16,-1
 203 46 l 2,17,18
 203 20 203 20 188.5 4 c 128,-1,19
 174 -12 174 -12 142 -12 c 256,6,7
EndSplineSet
Position2: "Single Positioning lookup 13 per glyph data 0" dx=100 dy=0 dh=100 dv=0
EndChar

StartChar: questiondown
Encoding: 191 191 97
Width: 467
GlyphClass: 1
Flags: W
LayerCount: 2
Fore
SplineSet
238 -194 m 0,0,1
 145 -194 145 -194 91 -143 c 128,-1,2
 37 -92 37 -92 37 -5 c 0,3,4
 37 43 37 43 53.5 78.5 c 128,-1,5
 70 114 70 114 96 139 c 128,-1,6
 122 164 122 164 155 179 c 128,-1,7
 188 194 188 194 221 200 c 1,8,-1
 221 308 l 1,9,-1
 298 308 l 1,10,-1
 298 144 l 1,11,12
 216 140 216 140 169.5 104 c 128,-1,13
 123 68 123 68 123 5 c 2,14,-1
 123 -9 l 2,15,16
 123 -60 123 -60 155 -90.5 c 128,-1,17
 187 -121 187 -121 241 -121 c 0,18,19
 299 -121 299 -121 333.5 -88 c 128,-1,20
 368 -55 368 -55 380 -4 c 1,21,-1
 454 -32 l 1,22,23
 445 -64 445 -64 427.5 -93.5 c 128,-1,24
 410 -123 410 -123 383.5 -145.5 c 128,-1,25
 357 -168 357 -168 321 -181 c 128,-1,26
 285 -194 285 -194 238 -194 c 0,0,1
262 399 m 256,27,28
 230 399 230 399 215.5 415 c 128,-1,29
 201 431 201 431 201 457 c 2,30,-1
 201 470 l 2,31,32
 201 496 201 496 215.5 512 c 128,-1,33
 230 528 230 528 262 528 c 256,34,35
 294 528 294 528 308.5 512 c 128,-1,36
 323 496 323 496 323 470 c 2,37,-1
 323 457 l 2,38,39
 323 431 323 431 308.5 415 c 128,-1,40
 294 399 294 399 262 399 c 256,27,28
EndSplineSet
EndChar

StartChar: question
Encoding: 63 63 98
Width: 477
GlyphClass: 1
Flags: W
LayerCount: 2
Fore
SplineSet
179 208 m 1,0,-1
 179 372 l 1,1,2
 261 376 261 376 307.5 412 c 128,-1,3
 354 448 354 448 354 511 c 2,4,-1
 354 525 l 2,5,6
 354 576 354 576 322 606.5 c 128,-1,7
 290 637 290 637 236 637 c 0,8,9
 178 637 178 637 143.5 604 c 128,-1,10
 109 571 109 571 97 520 c 1,11,-1
 23 548 l 1,12,13
 32 580 32 580 49.5 609.5 c 128,-1,14
 67 639 67 639 93.5 661.5 c 128,-1,15
 120 684 120 684 156 697 c 128,-1,16
 192 710 192 710 239 710 c 0,17,18
 332 710 332 710 386 659 c 128,-1,19
 440 608 440 608 440 521 c 0,20,21
 440 473 440 473 423.5 437.5 c 128,-1,22
 407 402 407 402 381 377 c 128,-1,23
 355 352 355 352 322 337 c 128,-1,24
 289 322 289 322 256 316 c 1,25,-1
 256 208 l 1,26,-1
 179 208 l 1,0,-1
218 -12 m 256,27,28
 186 -12 186 -12 171.5 4 c 128,-1,29
 157 20 157 20 157 46 c 2,30,-1
 157 59 l 2,31,32
 157 85 157 85 171.5 101 c 128,-1,33
 186 117 186 117 218 117 c 256,34,35
 250 117 250 117 264.5 101 c 128,-1,36
 279 85 279 85 279 59 c 2,37,-1
 279 46 l 2,38,39
 279 20 279 20 264.5 4 c 128,-1,40
 250 -12 250 -12 218 -12 c 256,27,28
EndSplineSet
Position2: "Single Positioning lookup 13 per glyph data 0" dx=100 dy=0 dh=100 dv=0
EndChar

StartChar: parenleft
Encoding: 40 40 99
Width: 335
GlyphClass: 1
Flags: W
LayerCount: 2
Fore
SplineSet
83 312 m 0,0,1
 83 384 83 384 97 451 c 128,-1,2
 111 518 111 518 135.5 575.5 c 128,-1,3
 160 633 160 633 193 680 c 128,-1,4
 226 727 226 727 264 760 c 1,5,-1
 340 760 l 1,6,7
 298 722 298 722 264.5 674 c 128,-1,8
 231 626 231 626 207.5 572 c 128,-1,9
 184 518 184 518 171 462 c 128,-1,10
 158 406 158 406 158 354 c 2,11,-1
 158 268 l 2,12,13
 158 215 158 215 171 159 c 128,-1,14
 184 103 184 103 208 49 c 128,-1,15
 232 -5 232 -5 265.5 -53 c 128,-1,16
 299 -101 299 -101 340 -137 c 1,17,-1
 264 -137 l 1,18,19
 227 -106 227 -106 194 -59 c 128,-1,20
 161 -12 161 -12 136.5 46 c 128,-1,21
 112 104 112 104 97.5 171.5 c 128,-1,22
 83 239 83 239 83 312 c 0,0,1
EndSplineSet
EndChar

StartChar: parenright
Encoding: 41 41 100
Width: 335
GlyphClass: 1
Flags: W
LayerCount: 2
Fore
SplineSet
252 312 m 0,0,1
 252 239 252 239 237.5 171.5 c 128,-1,2
 223 104 223 104 198.5 46 c 128,-1,3
 174 -12 174 -12 141 -59 c 128,-1,4
 108 -106 108 -106 71 -137 c 1,5,-1
 -5 -137 l 1,6,7
 36 -101 36 -101 69.5 -53 c 128,-1,8
 103 -5 103 -5 127 49 c 128,-1,9
 151 103 151 103 164 159 c 128,-1,10
 177 215 177 215 177 268 c 2,11,-1
 177 354 l 2,12,13
 177 406 177 406 164 462 c 128,-1,14
 151 518 151 518 127.5 572 c 128,-1,15
 104 626 104 626 70.5 674 c 128,-1,16
 37 722 37 722 -5 760 c 1,17,-1
 71 760 l 1,18,19
 109 727 109 727 142 680 c 128,-1,20
 175 633 175 633 199.5 575.5 c 128,-1,21
 224 518 224 518 238 451 c 128,-1,22
 252 384 252 384 252 312 c 0,0,1
EndSplineSet
EndChar

StartChar: bracketleft
Encoding: 91 91 101
Width: 317
GlyphClass: 1
Flags: W
LayerCount: 2
Fore
SplineSet
93 -138 m 1,0,-1
 93 760 l 1,1,-1
 257 760 l 1,2,-1
 257 697 l 1,3,-1
 162 697 l 1,4,-1
 162 -75 l 1,5,-1
 257 -75 l 1,6,-1
 257 -138 l 1,7,-1
 93 -138 l 1,0,-1
EndSplineSet
EndChar

StartChar: bracketright
Encoding: 93 93 102
Width: 317
GlyphClass: 1
Flags: W
LayerCount: 2
Fore
SplineSet
224 760 m 1,0,-1
 224 -138 l 1,1,-1
 60 -138 l 1,2,-1
 60 -75 l 1,3,-1
 155 -75 l 1,4,-1
 155 697 l 1,5,-1
 60 697 l 1,6,-1
 60 760 l 1,7,-1
 224 760 l 1,0,-1
EndSplineSet
EndChar

StartChar: braceleft
Encoding: 123 123 103
Width: 343
GlyphClass: 1
Flags: W
LayerCount: 2
Fore
SplineSet
199 -138 m 2,0,1
 159 -138 159 -138 139 -114.5 c 128,-1,2
 119 -91 119 -91 119 -56 c 2,3,-1
 119 184 l 2,4,5
 119 227 119 227 91.5 249.5 c 128,-1,6
 64 272 64 272 22 272 c 1,7,-1
 22 350 l 1,8,9
 64 350 64 350 91.5 372.5 c 128,-1,10
 119 395 119 395 119 438 c 2,11,-1
 119 678 l 2,12,13
 119 713 119 713 139 736.5 c 128,-1,14
 159 760 159 760 199 760 c 2,15,-1
 283 760 l 1,16,-1
 283 697 l 1,17,-1
 188 697 l 1,18,-1
 188 447 l 2,19,20
 188 400 188 400 161.5 363.5 c 128,-1,21
 135 327 135 327 93 319 c 1,22,-1
 93 303 l 1,23,24
 135 295 135 295 161.5 258.5 c 128,-1,25
 188 222 188 222 188 175 c 2,26,-1
 188 -75 l 1,27,-1
 283 -75 l 1,28,-1
 283 -138 l 1,29,-1
 199 -138 l 2,0,1
EndSplineSet
EndChar

StartChar: braceright
Encoding: 125 125 104
Width: 343
GlyphClass: 1
Flags: W
LayerCount: 2
Fore
SplineSet
144 760 m 2,0,1
 184 760 184 760 204 736.5 c 128,-1,2
 224 713 224 713 224 678 c 2,3,-1
 224 438 l 2,4,5
 224 395 224 395 251.5 372.5 c 128,-1,6
 279 350 279 350 321 350 c 1,7,-1
 321 272 l 1,8,9
 279 272 279 272 251.5 249.5 c 128,-1,10
 224 227 224 227 224 184 c 2,11,-1
 224 -56 l 2,12,13
 224 -91 224 -91 204 -114.5 c 128,-1,14
 184 -138 184 -138 144 -138 c 2,15,-1
 60 -138 l 1,16,-1
 60 -75 l 1,17,-1
 155 -75 l 1,18,-1
 155 175 l 2,19,20
 155 222 155 222 181.5 258.5 c 128,-1,21
 208 295 208 295 250 303 c 1,22,-1
 250 319 l 1,23,24
 208 327 208 327 181.5 363.5 c 128,-1,25
 155 400 155 400 155 447 c 2,26,-1
 155 697 l 1,27,-1
 60 697 l 1,28,-1
 60 760 l 1,29,-1
 144 760 l 2,0,1
EndSplineSet
EndChar

StartChar: slash
Encoding: 47 47 105
Width: 383
GlyphClass: 1
Flags: W
LayerCount: 2
Fore
SplineSet
9 -151 m 1,0,-1
 270 740 l 1,1,-1
 342 740 l 1,2,-1
 81 -151 l 1,3,-1
 9 -151 l 1,0,-1
EndSplineSet
Substitution2: "'frac' Diagonal Fractions lookup 15 subtable" fraction
EndChar

StartChar: backslash
Encoding: 92 92 106
Width: 383
GlyphClass: 1
Flags: W
LayerCount: 2
Fore
SplineSet
299 -151 m 1,0,-1
 40 740 l 1,1,-1
 112 740 l 1,2,-1
 371 -151 l 1,3,-1
 299 -151 l 1,0,-1
EndSplineSet
EndChar

StartChar: fraction
Encoding: 8260 8260 107
Width: 147
GlyphClass: 1
Flags: W
LayerCount: 2
Fore
SplineSet
-203 0 m 1,0,-1
 283 698 l 1,1,-1
 350 698 l 1,2,-1
 -136 0 l 1,3,-1
 -203 0 l 1,0,-1
EndSplineSet
EndChar

StartChar: percent
Encoding: 37 37 109
Width: 927
GlyphClass: 1
Flags: W
LayerCount: 2
Fore
SplineSet
183 0 m 1,0,-1
 667 698 l 1,1,-1
 744 698 l 1,2,-1
 260 0 l 1,3,-1
 183 0 l 1,0,-1
223 314 m 256,4,5
 147 314 147 314 106 364.5 c 128,-1,6
 65 415 65 415 65 512 c 256,7,8
 65 609 65 609 106 659.5 c 128,-1,9
 147 710 147 710 223 710 c 256,10,11
 299 710 299 710 340 659.5 c 128,-1,12
 381 609 381 609 381 512 c 256,13,14
 381 415 381 415 340 364.5 c 128,-1,15
 299 314 299 314 223 314 c 256,4,5
223 366 m 256,16,17
 309 366 309 366 309 482 c 2,18,-1
 309 542 l 2,19,20
 309 658 309 658 223 658 c 256,21,22
 137 658 137 658 137 542 c 2,23,-1
 137 482 l 2,24,25
 137 366 137 366 223 366 c 256,16,17
704 -12 m 256,26,27
 628 -12 628 -12 587 38.5 c 128,-1,28
 546 89 546 89 546 186 c 256,29,30
 546 283 546 283 587 333.5 c 128,-1,31
 628 384 628 384 704 384 c 256,32,33
 780 384 780 384 821 333.5 c 128,-1,34
 862 283 862 283 862 186 c 256,35,36
 862 89 862 89 821 38.5 c 128,-1,37
 780 -12 780 -12 704 -12 c 256,26,27
704 40 m 256,38,39
 790 40 790 40 790 156 c 2,40,-1
 790 216 l 2,41,42
 790 332 790 332 704 332 c 256,43,44
 618 332 618 332 618 216 c 2,45,-1
 618 156 l 2,46,47
 618 40 618 40 704 40 c 256,38,39
EndSplineSet
EndChar

StartChar: perthousand
Encoding: 8240 8240 110
Width: 1306
GlyphClass: 1
Flags: W
LayerCount: 2
Fore
SplineSet
183 0 m 1,0,-1
 667 698 l 1,1,-1
 744 698 l 1,2,-1
 260 0 l 1,3,-1
 183 0 l 1,0,-1
223 314 m 256,4,5
 147 314 147 314 106 364.5 c 128,-1,6
 65 415 65 415 65 512 c 256,7,8
 65 609 65 609 106 659.5 c 128,-1,9
 147 710 147 710 223 710 c 256,10,11
 299 710 299 710 340 659.5 c 128,-1,12
 381 609 381 609 381 512 c 256,13,14
 381 415 381 415 340 364.5 c 128,-1,15
 299 314 299 314 223 314 c 256,4,5
223 366 m 256,16,17
 309 366 309 366 309 482 c 2,18,-1
 309 542 l 2,19,20
 309 658 309 658 223 658 c 256,21,22
 137 658 137 658 137 542 c 2,23,-1
 137 482 l 2,24,25
 137 366 137 366 223 366 c 256,16,17
704 -12 m 256,26,27
 628 -12 628 -12 587 38.5 c 128,-1,28
 546 89 546 89 546 186 c 256,29,30
 546 283 546 283 587 333.5 c 128,-1,31
 628 384 628 384 704 384 c 256,32,33
 780 384 780 384 821 333.5 c 128,-1,34
 862 283 862 283 862 186 c 256,35,36
 862 89 862 89 821 38.5 c 128,-1,37
 780 -12 780 -12 704 -12 c 256,26,27
704 40 m 256,38,39
 790 40 790 40 790 156 c 2,40,-1
 790 216 l 2,41,42
 790 332 790 332 704 332 c 256,43,44
 618 332 618 332 618 216 c 2,45,-1
 618 156 l 2,46,47
 618 40 618 40 704 40 c 256,38,39
1083 -12 m 256,48,49
 1007 -12 1007 -12 966 38.5 c 128,-1,50
 925 89 925 89 925 186 c 256,51,52
 925 283 925 283 966 333.5 c 128,-1,53
 1007 384 1007 384 1083 384 c 256,54,55
 1159 384 1159 384 1200 333.5 c 128,-1,56
 1241 283 1241 283 1241 186 c 256,57,58
 1241 89 1241 89 1200 38.5 c 128,-1,59
 1159 -12 1159 -12 1083 -12 c 256,48,49
1083 40 m 256,60,61
 1169 40 1169 40 1169 156 c 2,62,-1
 1169 216 l 2,63,64
 1169 332 1169 332 1083 332 c 256,65,66
 997 332 997 332 997 216 c 2,67,-1
 997 156 l 2,68,69
 997 40 997 40 1083 40 c 256,60,61
EndSplineSet
EndChar

StartChar: bar
Encoding: 124 124 111
Width: 314
GlyphClass: 1
Flags: W
LayerCount: 2
Fore
SplineSet
123 -138 m 1,0,-1
 123 760 l 1,1,-1
 191 760 l 1,2,-1
 191 -138 l 1,3,-1
 123 -138 l 1,0,-1
EndSplineSet
EndChar

StartChar: brokenbar
Encoding: 166 166 112
Width: 314
GlyphClass: 1
Flags: W
LayerCount: 2
Fore
SplineSet
123 406 m 1,0,-1
 123 760 l 1,1,-1
 191 760 l 1,2,-1
 191 406 l 1,3,-1
 123 406 l 1,0,-1
123 -138 m 1,4,-1
 123 216 l 1,5,-1
 191 216 l 1,6,-1
 191 -138 l 1,7,-1
 123 -138 l 1,4,-1
EndSplineSet
EndChar

StartChar: section
Encoding: 167 167 113
Width: 586
GlyphClass: 1
Flags: W
LayerCount: 2
Fore
SplineSet
475 4 m 0,0,1
 475 -33 475 -33 460.5 -62.5 c 128,-1,2
 446 -92 446 -92 420 -112.5 c 128,-1,3
 394 -133 394 -133 357.5 -144 c 128,-1,4
 321 -155 321 -155 277 -155 c 0,5,6
 232 -155 232 -155 188.5 -142 c 128,-1,7
 145 -129 145 -129 110 -99 c 1,8,-1
 156 -43 l 1,9,10
 180 -63 180 -63 210 -74.5 c 128,-1,11
 240 -86 240 -86 278 -86 c 0,12,13
 334 -86 334 -86 365 -62.5 c 128,-1,14
 396 -39 396 -39 396 2 c 0,15,16
 396 40 396 40 368.5 62 c 128,-1,17
 341 84 341 84 292 99 c 2,18,-1
 229 118 l 2,19,20
 148 142 148 142 112 181 c 128,-1,21
 76 220 76 220 76 271 c 0,22,23
 76 319 76 319 104.5 356 c 128,-1,24
 133 393 133 393 185 414 c 1,25,-1
 185 421 l 1,26,27
 152 443 152 443 131.5 475 c 128,-1,28
 111 507 111 507 111 552 c 0,29,30
 111 588 111 588 125 617 c 128,-1,31
 139 646 139 646 165 667 c 128,-1,32
 191 688 191 688 227.5 699 c 128,-1,33
 264 710 264 710 308 710 c 0,34,35
 353 710 353 710 397 697 c 128,-1,36
 441 684 441 684 476 654 c 1,37,-1
 429 598 l 1,38,39
 405 618 405 618 375 629.5 c 128,-1,40
 345 641 345 641 307 641 c 0,41,42
 251 641 251 641 220 617.5 c 128,-1,43
 189 594 189 594 189 553 c 0,44,45
 189 515 189 515 216.5 493 c 128,-1,46
 244 471 244 471 293 456 c 2,47,-1
 356 437 l 2,48,49
 437 413 437 413 473.5 374 c 128,-1,50
 510 335 510 335 510 284 c 0,51,52
 510 236 510 236 481.5 199 c 128,-1,53
 453 162 453 162 400 141 c 1,54,-1
 400 135 l 1,55,56
 436 112 436 112 455.5 79.5 c 128,-1,57
 475 47 475 47 475 4 c 0,0,1
431 263 m 0,58,59
 431 305 431 305 402.5 331.5 c 128,-1,60
 374 358 374 358 314 375 c 2,61,-1
 252 392 l 2,62,63
 244 394 244 394 236 397 c 128,-1,64
 228 400 228 400 220 403 c 1,65,66
 190 382 190 382 172.5 354.5 c 128,-1,67
 155 327 155 327 155 292 c 0,68,69
 155 250 155 250 183 223.5 c 128,-1,70
 211 197 211 197 271 180 c 2,71,-1
 333 163 l 2,72,73
 341 161 341 161 349 158 c 128,-1,74
 357 155 357 155 365 152 c 1,75,76
 395 174 395 174 413 201 c 128,-1,77
 431 228 431 228 431 263 c 0,58,59
EndSplineSet
EndChar

StartChar: paragraph
Encoding: 182 182 114
Width: 652
GlyphClass: 1
Flags: W
LayerCount: 2
Fore
SplineSet
246 300 m 1,0,1
 205 300 205 300 170 316 c 128,-1,2
 135 332 135 332 108.5 359 c 128,-1,3
 82 386 82 386 67 422 c 128,-1,4
 52 458 52 458 52 499 c 0,5,6
 52 539 52 539 67 575.5 c 128,-1,7
 82 612 82 612 108.5 639 c 128,-1,8
 135 666 135 666 170 682 c 128,-1,9
 205 698 205 698 246 698 c 2,10,-1
 570 698 l 1,11,-1
 570 630 l 1,12,-1
 503 630 l 1,13,-1
 503 -149 l 1,14,-1
 430 -149 l 1,15,-1
 430 630 l 1,16,-1
 319 630 l 1,17,-1
 319 -149 l 1,18,-1
 246 -149 l 1,19,-1
 246 300 l 1,0,1
EndSplineSet
EndChar

StartChar: copyright
Encoding: 169 169 115
Width: 776
GlyphClass: 1
Flags: W
LayerCount: 2
Fore
SplineSet
388 -11 m 256,0,1
 318 -11 318 -11 257 14 c 128,-1,2
 196 39 196 39 151 85.5 c 128,-1,3
 106 132 106 132 80 199 c 128,-1,4
 54 266 54 266 54 349 c 256,5,6
 54 432 54 432 80 499 c 128,-1,7
 106 566 106 566 151 612.5 c 128,-1,8
 196 659 196 659 257 684 c 128,-1,9
 318 709 318 709 388 709 c 256,10,11
 458 709 458 709 519 684 c 128,-1,12
 580 659 580 659 625 612.5 c 128,-1,13
 670 566 670 566 696 499 c 128,-1,14
 722 432 722 432 722 349 c 256,15,16
 722 266 722 266 696 199 c 128,-1,17
 670 132 670 132 625 85.5 c 128,-1,18
 580 39 580 39 519 14 c 128,-1,19
 458 -11 458 -11 388 -11 c 256,0,1
388 49 m 0,20,21
 446 49 446 49 495 69.5 c 128,-1,22
 544 90 544 90 579.5 126 c 128,-1,23
 615 162 615 162 634.5 211.5 c 128,-1,24
 654 261 654 261 654 319 c 2,25,-1
 654 379 l 2,26,27
 654 437 654 437 634.5 486.5 c 128,-1,28
 615 536 615 536 579.5 572 c 128,-1,29
 544 608 544 608 495 628.5 c 128,-1,30
 446 649 446 649 388 649 c 0,31,32
 329 649 329 649 280.5 628.5 c 128,-1,33
 232 608 232 608 196.5 572 c 128,-1,34
 161 536 161 536 141.5 486.5 c 128,-1,35
 122 437 122 437 122 379 c 2,36,-1
 122 319 l 2,37,38
 122 261 122 261 141.5 211.5 c 128,-1,39
 161 162 161 162 196.5 126 c 128,-1,40
 232 90 232 90 280.5 69.5 c 128,-1,41
 329 49 329 49 388 49 c 0,20,21
396 155 m 0,42,43
 318 155 318 155 274.5 207.5 c 128,-1,44
 231 260 231 260 231 349 c 256,45,46
 231 438 231 438 274.5 490.5 c 128,-1,47
 318 543 318 543 396 543 c 0,48,49
 447 543 447 543 479.5 519 c 128,-1,50
 512 495 512 495 529 456 c 1,51,-1
 472 424 l 1,52,53
 461 450 461 450 443 465 c 128,-1,54
 425 480 425 480 396 480 c 0,55,56
 352 480 352 480 329.5 452.5 c 128,-1,57
 307 425 307 425 307 381 c 2,58,-1
 307 316 l 2,59,60
 307 272 307 272 329.5 244.5 c 128,-1,61
 352 217 352 217 396 217 c 0,62,63
 428 217 428 217 447 233.5 c 128,-1,64
 466 250 466 250 481 277 c 1,65,-1
 535 243 l 1,66,67
 518 205 518 205 483.5 180 c 128,-1,68
 449 155 449 155 396 155 c 0,42,43
EndSplineSet
EndChar

StartChar: registered
Encoding: 174 174 116
Width: 476
GlyphClass: 1
Flags: W
LayerCount: 2
Fore
SplineSet
238 298 m 0,0,1
 197 298 197 298 161 313.5 c 128,-1,2
 125 329 125 329 98 357 c 128,-1,3
 71 385 71 385 55.5 422.5 c 128,-1,4
 40 460 40 460 40 504 c 256,5,6
 40 548 40 548 55.5 585.5 c 128,-1,7
 71 623 71 623 98 651 c 128,-1,8
 125 679 125 679 161 694.5 c 128,-1,9
 197 710 197 710 238 710 c 0,10,11
 278 710 278 710 314 694.5 c 128,-1,12
 350 679 350 679 377 651 c 128,-1,13
 404 623 404 623 420 585.5 c 128,-1,14
 436 548 436 548 436 504 c 256,15,16
 436 460 436 460 420 422.5 c 128,-1,17
 404 385 404 385 377 357 c 128,-1,18
 350 329 350 329 314 313.5 c 128,-1,19
 278 298 278 298 238 298 c 0,0,1
238 338 m 256,20,21
 272 338 272 338 300.5 351 c 128,-1,22
 329 364 329 364 349.5 385.5 c 128,-1,23
 370 407 370 407 381.5 435 c 128,-1,24
 393 463 393 463 393 493 c 2,25,-1
 393 515 l 2,26,27
 393 545 393 545 381.5 573 c 128,-1,28
 370 601 370 601 349.5 622.5 c 128,-1,29
 329 644 329 644 300.5 657 c 128,-1,30
 272 670 272 670 238 670 c 256,31,32
 204 670 204 670 175.5 657 c 128,-1,33
 147 644 147 644 126.5 622.5 c 128,-1,34
 106 601 106 601 94.5 573 c 128,-1,35
 83 545 83 545 83 515 c 2,36,-1
 83 493 l 2,37,38
 83 463 83 463 94.5 435 c 128,-1,39
 106 407 106 407 126.5 385.5 c 128,-1,40
 147 364 147 364 175.5 351 c 128,-1,41
 204 338 204 338 238 338 c 256,20,21
203 396 m 1,42,-1
 163 396 l 1,43,-1
 163 605 l 1,44,-1
 253 605 l 2,45,46
 283 605 283 605 300 587.5 c 128,-1,47
 317 570 317 570 317 542 c 0,48,49
 317 518 317 518 306 503 c 128,-1,50
 295 488 295 488 278 481 c 1,51,-1
 327 396 l 1,52,-1
 282 396 l 1,53,-1
 238 476 l 1,54,-1
 203 476 l 1,55,-1
 203 396 l 1,42,-1
251 508 m 2,56,57
 274 508 274 508 274 529 c 2,58,-1
 274 551 l 2,59,60
 274 572 274 572 251 572 c 2,61,-1
 203 572 l 1,62,-1
 203 508 l 1,63,-1
 251 508 l 2,56,57
EndSplineSet
EndChar

StartChar: trademark
Encoding: 8482 8482 117
Width: 658
GlyphClass: 1
Flags: W
LayerCount: 2
Fore
SplineSet
122 419 m 1,0,-1
 122 653 l 1,1,-1
 32 653 l 1,2,-1
 32 698 l 1,3,-1
 261 698 l 1,4,-1
 261 653 l 1,5,-1
 172 653 l 1,6,-1
 172 419 l 1,7,-1
 122 419 l 1,0,-1
313 419 m 1,8,-1
 313 698 l 1,9,-1
 376 698 l 1,10,-1
 445 565 l 1,11,-1
 448 565 l 1,12,-1
 516 698 l 1,13,-1
 576 698 l 1,14,-1
 576 419 l 1,15,-1
 530 419 l 1,16,-1
 530 545 l 1,17,-1
 531 628 l 1,18,-1
 527 628 l 1,19,-1
 445 473 l 1,20,-1
 362 628 l 1,21,-1
 358 628 l 1,22,-1
 360 545 l 1,23,-1
 360 419 l 1,24,-1
 313 419 l 1,8,-1
EndSplineSet
EndChar

StartChar: ordfeminine
Encoding: 170 170 118
Width: 399
GlyphClass: 1
Flags: W
LayerCount: 2
Fore
SplineSet
360 350 m 1,0,-1
 326 350 l 2,1,2
 297 350 297 350 280.5 363 c 128,-1,3
 264 376 264 376 264 403 c 1,4,-1
 260 403 l 1,5,6
 249 380 249 380 222 362 c 128,-1,7
 195 344 195 344 149 344 c 0,8,9
 96 344 96 344 68 371 c 128,-1,10
 40 398 40 398 40 442 c 0,11,12
 40 496 40 496 78.5 521 c 128,-1,13
 117 546 117 546 189 546 c 2,14,-1
 260 546 l 1,15,-1
 260 574 l 2,16,17
 260 652 260 652 185 652 c 0,18,19
 151 652 151 652 128 637.5 c 128,-1,20
 105 623 105 623 94 600 c 1,21,-1
 52 634 l 1,22,23
 67 660 67 660 100 682 c 128,-1,24
 133 704 133 704 188 704 c 0,25,26
 251 704 251 704 287 671 c 128,-1,27
 323 638 323 638 323 577 c 2,28,-1
 323 406 l 1,29,-1
 360 406 l 1,30,-1
 360 350 l 1,0,-1
187 500 m 2,31,32
 146 500 146 500 124.5 488 c 128,-1,33
 103 476 103 476 103 453 c 2,34,-1
 103 443 l 2,35,36
 103 395 103 395 163 395 c 0,37,38
 182 395 182 395 199.5 399.5 c 128,-1,39
 217 404 217 404 230.5 412.5 c 128,-1,40
 244 421 244 421 252 432.5 c 128,-1,41
 260 444 260 444 260 459 c 2,42,-1
 260 500 l 1,43,-1
 187 500 l 2,31,32
EndSplineSet
EndChar

StartChar: ordmasculine
Encoding: 186 186 119
Width: 398
GlyphClass: 1
Flags: W
LayerCount: 2
Fore
SplineSet
199 344 m 256,0,1
 126 344 126 344 85 391.5 c 128,-1,2
 44 439 44 439 44 524 c 256,3,4
 44 609 44 609 85 656.5 c 128,-1,5
 126 704 126 704 199 704 c 256,6,7
 272 704 272 704 313 656.5 c 128,-1,8
 354 609 354 609 354 524 c 256,9,10
 354 439 354 439 313 391.5 c 128,-1,11
 272 344 272 344 199 344 c 256,0,1
199 396 m 256,12,13
 243 396 243 396 264.5 423 c 128,-1,14
 286 450 286 450 286 493 c 2,15,-1
 286 555 l 2,16,17
 286 598 286 598 264.5 625 c 128,-1,18
 243 652 243 652 199 652 c 256,19,20
 155 652 155 652 133.5 625 c 128,-1,21
 112 598 112 598 112 555 c 2,22,-1
 112 493 l 2,23,24
 112 450 112 450 133.5 423 c 128,-1,25
 155 396 155 396 199 396 c 256,12,13
EndSplineSet
EndChar

StartChar: degree
Encoding: 176 176 120
Width: 468
GlyphClass: 1
Flags: W
LayerCount: 2
Fore
SplineSet
234 366 m 256,0,1
 198 366 198 366 167.5 379 c 128,-1,2
 137 392 137 392 114.5 415 c 128,-1,3
 92 438 92 438 79 469.5 c 128,-1,4
 66 501 66 501 66 538 c 256,5,6
 66 575 66 575 79 606.5 c 128,-1,7
 92 638 92 638 114.5 661 c 128,-1,8
 137 684 137 684 167.5 697 c 128,-1,9
 198 710 198 710 234 710 c 256,10,11
 270 710 270 710 300.5 697 c 128,-1,12
 331 684 331 684 353.5 661 c 128,-1,13
 376 638 376 638 389 606.5 c 128,-1,14
 402 575 402 575 402 538 c 256,15,16
 402 501 402 501 389 469.5 c 128,-1,17
 376 438 376 438 353.5 415 c 128,-1,18
 331 392 331 392 300.5 379 c 128,-1,19
 270 366 270 366 234 366 c 256,0,1
234 430 m 256,20,21
 279 430 279 430 305.5 461.5 c 128,-1,22
 332 493 332 493 332 538 c 256,23,24
 332 583 332 583 305.5 614.5 c 128,-1,25
 279 646 279 646 234 646 c 256,26,27
 189 646 189 646 162.5 614.5 c 128,-1,28
 136 583 136 583 136 538 c 256,29,30
 136 493 136 493 162.5 461.5 c 128,-1,31
 189 430 189 430 234 430 c 256,20,21
EndSplineSet
EndChar

StartChar: asterisk
Encoding: 42 42 121
Width: 450
GlyphClass: 1
Flags: W
LayerCount: 2
Fore
SplineSet
143 388 m 1,0,-1
 87 429 l 1,1,-1
 178 545 l 1,2,-1
 36 584 l 1,3,-1
 58 651 l 1,4,-1
 196 600 l 1,5,-1
 190 747 l 1,6,-1
 260 747 l 1,7,-1
 254 600 l 1,8,-1
 392 651 l 1,9,-1
 414 584 l 1,10,-1
 272 545 l 1,11,-1
 363 429 l 1,12,-1
 307 388 l 1,13,-1
 225 511 l 1,14,-1
 143 388 l 1,0,-1
EndSplineSet
EndChar

StartChar: dagger
Encoding: 8224 8224 122
Width: 552
GlyphClass: 1
Flags: W
LayerCount: 2
Fore
SplineSet
241 -200 m 1,0,-1
 241 452 l 1,1,-1
 50 452 l 1,2,-1
 50 516 l 1,3,-1
 241 516 l 1,4,-1
 241 740 l 1,5,-1
 311 740 l 1,6,-1
 311 516 l 1,7,-1
 502 516 l 1,8,-1
 502 452 l 1,9,-1
 311 452 l 1,10,-1
 311 -200 l 1,11,-1
 241 -200 l 1,0,-1
EndSplineSet
EndChar

StartChar: daggerdbl
Encoding: 8225 8225 123
Width: 552
GlyphClass: 1
Flags: W
LayerCount: 2
Fore
SplineSet
241 -200 m 1,0,-1
 241 24 l 1,1,-1
 50 24 l 1,2,-1
 50 88 l 1,3,-1
 241 88 l 1,4,-1
 241 452 l 1,5,-1
 50 452 l 1,6,-1
 50 516 l 1,7,-1
 241 516 l 1,8,-1
 241 740 l 1,9,-1
 311 740 l 1,10,-1
 311 516 l 1,11,-1
 502 516 l 1,12,-1
 502 452 l 1,13,-1
 311 452 l 1,14,-1
 311 88 l 1,15,-1
 502 88 l 1,16,-1
 502 24 l 1,17,-1
 311 24 l 1,18,-1
 311 -200 l 1,19,-1
 241 -200 l 1,0,-1
EndSplineSet
EndChar

StartChar: numbersign
Encoding: 35 35 124
Width: 713
GlyphClass: 1
Flags: W
LayerCount: 2
Fore
SplineSet
406 205 m 1,0,-1
 252 205 l 1,1,-1
 216 0 l 1,2,-1
 152 0 l 1,3,-1
 188 205 l 1,4,-1
 60 205 l 1,5,-1
 60 265 l 1,6,-1
 198 265 l 1,7,-1
 226 433 l 1,8,-1
 99 433 l 1,9,-1
 99 493 l 1,10,-1
 237 493 l 1,11,-1
 272 698 l 1,12,-1
 336 698 l 1,13,-1
 301 493 l 1,14,-1
 455 493 l 1,15,-1
 490 698 l 1,16,-1
 554 698 l 1,17,-1
 519 493 l 1,18,-1
 647 493 l 1,19,-1
 647 433 l 1,20,-1
 508 433 l 1,21,-1
 480 265 l 1,22,-1
 608 265 l 1,23,-1
 608 205 l 1,24,-1
 470 205 l 1,25,-1
 434 0 l 1,26,-1
 370 0 l 1,27,-1
 406 205 l 1,0,-1
416 265 m 1,28,-1
 444 433 l 1,29,-1
 290 433 l 1,30,-1
 262 265 l 1,31,-1
 416 265 l 1,28,-1
EndSplineSet
EndChar

StartChar: asciicircum
Encoding: 94 94 125
Width: 600
GlyphClass: 1
Flags: W
LayerCount: 2
Fore
SplineSet
489 296 m 1,0,-1
 302 624 l 1,1,-1
 298 624 l 1,2,-1
 111 296 l 1,3,-1
 50 328 l 1,4,-1
 257 698 l 1,5,-1
 343 698 l 1,6,-1
 550 328 l 1,7,-1
 489 296 l 1,0,-1
EndSplineSet
EndChar

StartChar: asciitilde
Encoding: 126 126 126
Width: 600
GlyphClass: 1
Flags: W
LayerCount: 2
Fore
SplineSet
419 236 m 0,0,1
 382 236 382 236 353.5 246 c 128,-1,2
 325 256 325 256 290 273 c 0,3,4
 262 287 262 287 235 297 c 128,-1,5
 208 307 208 307 177 307 c 0,6,7
 152 307 152 307 134.5 299.5 c 128,-1,8
 117 292 117 292 94 275 c 1,9,-1
 61 319 l 1,10,11
 81 344 81 344 108.5 359 c 128,-1,12
 136 374 136 374 181 374 c 0,13,14
 218 374 218 374 246.5 364 c 128,-1,15
 275 354 275 354 310 337 c 0,16,17
 338 323 338 323 365 313 c 128,-1,18
 392 303 392 303 423 303 c 0,19,20
 448 303 448 303 465.5 310.5 c 128,-1,21
 483 318 483 318 506 335 c 1,22,-1
 539 291 l 1,23,24
 519 266 519 266 491.5 251 c 128,-1,25
 464 236 464 236 419 236 c 0,0,1
EndSplineSet
EndChar

StartChar: plus
Encoding: 43 43 127
Width: 600
GlyphClass: 1
Flags: W
LayerCount: 2
Fore
SplineSet
262 62 m 1,0,-1
 262 271 l 1,1,-1
 67 271 l 1,2,-1
 67 339 l 1,3,-1
 262 339 l 1,4,-1
 262 548 l 1,5,-1
 338 548 l 1,6,-1
 338 339 l 1,7,-1
 533 339 l 1,8,-1
 533 271 l 1,9,-1
 338 271 l 1,10,-1
 338 62 l 1,11,-1
 262 62 l 1,0,-1
EndSplineSet
EndChar

StartChar: minus
Encoding: 8722 8722 128
Width: 600
GlyphClass: 1
Flags: W
LayerCount: 2
Fore
SplineSet
67 271 m 1,0,-1
 67 339 l 1,1,-1
 533 339 l 1,2,-1
 533 271 l 1,3,-1
 67 271 l 1,0,-1
EndSplineSet
EndChar

StartChar: plusminus
Encoding: 177 177 129
Width: 600
GlyphClass: 1
Flags: W
LayerCount: 2
Fore
SplineSet
262 152 m 1,0,-1
 262 351 l 1,1,-1
 67 351 l 1,2,-1
 67 419 l 1,3,-1
 262 419 l 1,4,-1
 262 618 l 1,5,-1
 338 618 l 1,6,-1
 338 419 l 1,7,-1
 533 419 l 1,8,-1
 533 351 l 1,9,-1
 338 351 l 1,10,-1
 338 152 l 1,11,-1
 262 152 l 1,0,-1
67 0 m 1,12,-1
 67 68 l 1,13,-1
 533 68 l 1,14,-1
 533 0 l 1,15,-1
 67 0 l 1,12,-1
EndSplineSet
EndChar

StartChar: multiply
Encoding: 215 215 130
Width: 600
GlyphClass: 1
Flags: W
LayerCount: 2
Fore
SplineSet
300 256 m 1,0,-1
 141 93 l 1,1,-1
 92 142 l 1,2,-1
 251 305 l 1,3,-1
 92 468 l 1,4,-1
 141 517 l 1,5,-1
 300 354 l 1,6,-1
 459 517 l 1,7,-1
 508 468 l 1,8,-1
 349 305 l 1,9,-1
 508 142 l 1,10,-1
 459 93 l 1,11,-1
 300 256 l 1,0,-1
EndSplineSet
EndChar

StartChar: divide
Encoding: 247 247 131
Width: 600
GlyphClass: 1
Flags: W
LayerCount: 2
Fore
SplineSet
67 271 m 1,0,-1
 67 339 l 1,1,-1
 533 339 l 1,2,-1
 533 271 l 1,3,-1
 67 271 l 1,0,-1
300 52 m 256,4,5
 265 52 265 52 251.5 66 c 128,-1,6
 238 80 238 80 238 100 c 2,7,-1
 238 122 l 2,8,9
 238 142 238 142 251.5 156 c 128,-1,10
 265 170 265 170 300 170 c 256,11,12
 335 170 335 170 348.5 156 c 128,-1,13
 362 142 362 142 362 122 c 2,14,-1
 362 100 l 2,15,16
 362 80 362 80 348.5 66 c 128,-1,17
 335 52 335 52 300 52 c 256,4,5
300 440 m 256,18,19
 265 440 265 440 251.5 454 c 128,-1,20
 238 468 238 468 238 488 c 2,21,-1
 238 510 l 2,22,23
 238 530 238 530 251.5 544 c 128,-1,24
 265 558 265 558 300 558 c 256,25,26
 335 558 335 558 348.5 544 c 128,-1,27
 362 530 362 530 362 510 c 2,28,-1
 362 488 l 2,29,30
 362 468 362 468 348.5 454 c 128,-1,31
 335 440 335 440 300 440 c 256,18,19
EndSplineSet
EndChar

StartChar: equal
Encoding: 61 61 132
Width: 600
GlyphClass: 1
Flags: W
LayerCount: 2
Fore
SplineSet
67 372 m 1,0,-1
 67 440 l 1,1,-1
 533 440 l 1,2,-1
 533 372 l 1,3,-1
 67 372 l 1,0,-1
67 172 m 1,4,-1
 67 240 l 1,5,-1
 533 240 l 1,6,-1
 533 172 l 1,7,-1
 67 172 l 1,4,-1
EndSplineSet
EndChar

StartChar: notequal
Encoding: 8800 8800 134
Width: 600
GlyphClass: 1
Flags: W
LayerCount: 2
Fore
SplineSet
139 72 m 1,0,-1
 193 172 l 1,1,-1
 67 172 l 1,2,-1
 67 240 l 1,3,-1
 230 240 l 1,4,-1
 299 372 l 1,5,-1
 67 372 l 1,6,-1
 67 440 l 1,7,-1
 336 440 l 1,8,-1
 389 540 l 1,9,-1
 461 540 l 1,10,-1
 407 440 l 1,11,-1
 533 440 l 1,12,-1
 533 372 l 1,13,-1
 370 372 l 1,14,-1
 301 240 l 1,15,-1
 533 240 l 1,16,-1
 533 172 l 1,17,-1
 264 172 l 1,18,-1
 211 72 l 1,19,-1
 139 72 l 1,0,-1
EndSplineSet
EndChar

StartChar: less
Encoding: 60 60 135
Width: 600
GlyphClass: 1
Flags: W
LayerCount: 2
Fore
SplineSet
90 237 m 1,0,-1
 90 317 l 1,1,-1
 510 566 l 1,2,-1
 510 482 l 1,3,-1
 165 281 l 1,4,-1
 165 273 l 1,5,-1
 510 72 l 1,6,-1
 510 -12 l 1,7,-1
 90 237 l 1,0,-1
EndSplineSet
EndChar

StartChar: greater
Encoding: 62 62 136
Width: 600
GlyphClass: 1
Flags: W
LayerCount: 2
Fore
SplineSet
90 72 m 1,0,-1
 435 273 l 1,1,-1
 435 281 l 1,2,-1
 90 482 l 1,3,-1
 90 566 l 1,4,-1
 510 317 l 1,5,-1
 510 237 l 1,6,-1
 90 -12 l 1,7,-1
 90 72 l 1,0,-1
EndSplineSet
EndChar

StartChar: lessequal
Encoding: 8804 8804 137
Width: 600
GlyphClass: 1
Flags: W
LayerCount: 2
Fore
SplineSet
90 0 m 1,0,-1
 90 68 l 1,1,-1
 510 68 l 1,2,-1
 510 0 l 1,3,-1
 90 0 l 1,0,-1
510 511 m 1,4,-1
 166 360 l 1,5,-1
 166 353 l 1,6,-1
 510 202 l 1,7,-1
 510 121 l 1,8,-1
 90 312 l 1,9,-1
 90 401 l 1,10,-1
 510 591 l 1,11,-1
 510 511 l 1,4,-1
EndSplineSet
EndChar

StartChar: greaterequal
Encoding: 8805 8805 138
Width: 600
GlyphClass: 1
Flags: W
LayerCount: 2
Fore
SplineSet
90 202 m 1,0,-1
 434 353 l 1,1,-1
 434 360 l 1,2,-1
 90 511 l 1,3,-1
 90 591 l 1,4,-1
 510 401 l 1,5,-1
 510 312 l 1,6,-1
 90 121 l 1,7,-1
 90 202 l 1,0,-1
90 68 m 1,8,-1
 510 68 l 1,9,-1
 510 0 l 1,10,-1
 90 0 l 1,11,-1
 90 68 l 1,8,-1
EndSplineSet
EndChar

StartChar: periodcentered
Encoding: 183 183 139
Width: 326
GlyphClass: 1
Flags: W
LayerCount: 2
Fore
SplineSet
163 240 m 256,0,1
 131 240 131 240 116.5 256 c 128,-1,2
 102 272 102 272 102 298 c 2,3,-1
 102 311 l 2,4,5
 102 337 102 337 116.5 353 c 128,-1,6
 131 369 131 369 163 369 c 256,7,8
 195 369 195 369 209.5 353 c 128,-1,9
 224 337 224 337 224 311 c 2,10,-1
 224 298 l 2,11,12
 224 272 224 272 209.5 256 c 128,-1,13
 195 240 195 240 163 240 c 256,0,1
EndSplineSet
EndChar

StartChar: bullet
Encoding: 8226 8226 140
Width: 396
GlyphClass: 1
Flags: W
LayerCount: 2
Fore
SplineSet
198 186 m 256,0,1
 131 186 131 186 103.5 216 c 128,-1,2
 76 246 76 246 76 290 c 2,3,-1
 76 318 l 2,4,5
 76 362 76 362 103.5 392 c 128,-1,6
 131 422 131 422 198 422 c 256,7,8
 265 422 265 422 292.5 392 c 128,-1,9
 320 362 320 362 320 318 c 2,10,-1
 320 290 l 2,11,12
 320 246 320 246 292.5 216 c 128,-1,13
 265 186 265 186 198 186 c 256,0,1
EndSplineSet
EndChar

StartChar: lozenge
Encoding: 9674 9674 141
Width: 600
GlyphClass: 1
Flags: W
LayerCount: 2
Fore
SplineSet
261 0 m 1,0,-1
 47 349 l 1,1,-1
 261 698 l 1,2,-1
 340 698 l 1,3,-1
 554 349 l 1,4,-1
 340 0 l 1,5,-1
 261 0 l 1,0,-1
304 75 m 1,6,-1
 470 349 l 1,7,-1
 304 623 l 1,8,-1
 297 623 l 1,9,-1
 131 349 l 1,10,-1
 297 75 l 1,11,-1
 304 75 l 1,6,-1
EndSplineSet
EndChar

StartChar: logicalnot
Encoding: 172 172 142
Width: 600
GlyphClass: 1
Flags: W
LayerCount: 2
Fore
SplineSet
464 78 m 1,0,-1
 464 271 l 1,1,-1
 67 271 l 1,2,-1
 67 339 l 1,3,-1
 533 339 l 1,4,-1
 533 78 l 1,5,-1
 464 78 l 1,0,-1
EndSplineSet
EndChar

StartChar: radical
Encoding: 8730 8730 143
Width: 600
GlyphClass: 1
Flags: W
LayerCount: 2
Fore
SplineSet
253 0 m 1,0,-1
 128 452 l 1,1,-1
 29 452 l 1,2,-1
 29 516 l 1,3,-1
 189 516 l 1,4,-1
 234 350 l 1,5,-1
 309 67 l 1,6,-1
 314 67 l 1,7,-1
 392 350 l 1,8,-1
 489 698 l 1,9,-1
 567 698 l 1,10,-1
 366 0 l 1,11,-1
 253 0 l 1,0,-1
EndSplineSet
EndChar

StartChar: integral
Encoding: 8747 8747 144
Width: 426
GlyphClass: 1
Flags: W
LayerCount: 2
Fore
SplineSet
50 -130 m 1,0,-1
 173 -130 l 1,1,-1
 173 622 l 2,2,3
 173 675 173 675 200.5 707.5 c 128,-1,4
 228 740 228 740 286 740 c 2,5,-1
 376 740 l 1,6,-1
 376 670 l 1,7,-1
 253 670 l 1,8,-1
 253 -82 l 2,9,10
 253 -135 253 -135 225.5 -167.5 c 128,-1,11
 198 -200 198 -200 140 -200 c 2,12,-1
 50 -200 l 1,13,-1
 50 -130 l 1,0,-1
EndSplineSet
EndChar

StartChar: infinity
Encoding: 8734 8734 145
Width: 740
GlyphClass: 1
Flags: W
LayerCount: 2
Fore
SplineSet
194 115 m 0,0,1
 153 115 153 115 120 129 c 128,-1,2
 87 143 87 143 64 168.5 c 128,-1,3
 41 194 41 194 28.5 229 c 128,-1,4
 16 264 16 264 16 305 c 256,5,6
 16 346 16 346 28.5 381 c 128,-1,7
 41 416 41 416 64 441.5 c 128,-1,8
 87 467 87 467 120 481 c 128,-1,9
 153 495 153 495 194 495 c 0,10,11
 273 495 273 495 318 460.5 c 128,-1,12
 363 426 363 426 387 355 c 1,13,-1
 392 355 l 1,14,15
 407 429 407 429 448 462 c 128,-1,16
 489 495 489 495 546 495 c 0,17,18
 587 495 587 495 620 481 c 128,-1,19
 653 467 653 467 676 441.5 c 128,-1,20
 699 416 699 416 711.5 381 c 128,-1,21
 724 346 724 346 724 305 c 256,22,23
 724 264 724 264 711.5 229 c 128,-1,24
 699 194 699 194 676 168.5 c 128,-1,25
 653 143 653 143 620 129 c 128,-1,26
 587 115 587 115 546 115 c 0,27,28
 467 115 467 115 422 149.5 c 128,-1,29
 377 184 377 184 353 255 c 1,30,-1
 348 255 l 1,31,32
 333 181 333 181 292 148 c 128,-1,33
 251 115 251 115 194 115 c 0,0,1
194 183 m 0,34,35
 243 183 243 183 277.5 211 c 128,-1,36
 312 239 312 239 329 305 c 1,37,38
 312 371 312 371 277.5 399 c 128,-1,39
 243 427 243 427 194 427 c 0,40,41
 150 427 150 427 124 400.5 c 128,-1,42
 98 374 98 374 98 330 c 2,43,-1
 98 280 l 2,44,45
 98 236 98 236 124 209.5 c 128,-1,46
 150 183 150 183 194 183 c 0,34,35
546 183 m 0,47,48
 590 183 590 183 616 209.5 c 128,-1,49
 642 236 642 236 642 280 c 2,50,-1
 642 330 l 2,51,52
 642 374 642 374 616 400.5 c 128,-1,53
 590 427 590 427 546 427 c 0,54,55
 497 427 497 427 462.5 399 c 128,-1,56
 428 371 428 371 411 305 c 1,57,58
 428 239 428 239 462.5 211 c 128,-1,59
 497 183 497 183 546 183 c 0,47,48
EndSplineSet
EndChar

StartChar: uni212E
Encoding: 8494 8494 146
Width: 726
GlyphClass: 1
Flags: W
LayerCount: 2
Fore
SplineSet
180 109 m 1,0,1
 212 79 212 79 257.5 59 c 128,-1,2
 303 39 303 39 363 39 c 0,3,4
 453 39 453 39 512 80 c 128,-1,5
 571 121 571 121 607 188 c 1,6,-1
 653 163 l 1,7,8
 633 125 633 125 605 93 c 128,-1,9
 577 61 577 61 541 37.5 c 128,-1,10
 505 14 505 14 460.5 1 c 128,-1,11
 416 -12 416 -12 363 -12 c 0,12,13
 292 -12 292 -12 232.5 13.5 c 128,-1,14
 173 39 173 39 129 86 c 128,-1,15
 85 133 85 133 60.5 199.5 c 128,-1,16
 36 266 36 266 36 349 c 0,17,18
 36 431 36 431 60.5 498 c 128,-1,19
 85 565 85 565 129 612 c 128,-1,20
 173 659 173 659 232.5 684.5 c 128,-1,21
 292 710 292 710 363 710 c 0,22,23
 433 710 433 710 493 684.5 c 128,-1,24
 553 659 553 659 597 612 c 128,-1,25
 641 565 641 565 665.5 498 c 128,-1,26
 690 431 690 431 690 349 c 1,27,-1
 180 349 l 1,28,-1
 180 109 l 1,0,1
546 397 m 1,29,-1
 546 592 l 1,30,31
 514 622 514 622 468.5 642 c 128,-1,32
 423 662 423 662 363 662 c 256,33,34
 303 662 303 662 257.5 642 c 128,-1,35
 212 622 212 622 180 592 c 1,36,-1
 180 397 l 1,37,-1
 546 397 l 1,29,-1
EndSplineSet
EndChar

StartChar: uni2113
Encoding: 8467 8467 147
Width: 488
GlyphClass: 1
Flags: W
LayerCount: 2
Fore
SplineSet
272 -12 m 0,0,1
 198 -12 198 -12 160 35.5 c 128,-1,2
 122 83 122 83 122 159 c 2,3,-1
 122 169 l 1,4,5
 108 158 108 158 94.5 149 c 128,-1,6
 81 140 81 140 67 131 c 1,7,-1
 34 185 l 1,8,9
 55 199 55 199 77.5 213.5 c 128,-1,10
 100 228 100 228 120 244 c 1,11,-1
 120 561 l 2,12,13
 120 615 120 615 130.5 651.5 c 128,-1,14
 141 688 141 688 159.5 710.5 c 128,-1,15
 178 733 178 733 204 742.5 c 128,-1,16
 230 752 230 752 260 752 c 0,17,18
 329 752 329 752 364.5 709 c 128,-1,19
 400 666 400 666 400 584 c 0,20,21
 400 485 400 485 347.5 398.5 c 128,-1,22
 295 312 295 312 197 222 c 1,23,-1
 197 178 l 2,24,25
 197 112 197 112 218.5 85 c 128,-1,26
 240 58 240 58 279 58 c 0,27,28
 324 58 324 58 352.5 87.5 c 128,-1,29
 381 117 381 117 402 163 c 1,30,-1
 459 128 l 1,31,32
 446 99 446 99 428.5 73.5 c 128,-1,33
 411 48 411 48 388 29 c 128,-1,34
 365 10 365 10 336 -1 c 128,-1,35
 307 -12 307 -12 272 -12 c 0,0,1
263 685 m 256,36,37
 234 685 234 685 215.5 660.5 c 128,-1,38
 197 636 197 636 197 568 c 2,39,-1
 197 308 l 1,40,41
 260 374 260 374 293 440.5 c 128,-1,42
 326 507 326 507 326 574 c 2,43,-1
 326 591 l 2,44,45
 326 642 326 642 309 663.5 c 128,-1,46
 292 685 292 685 263 685 c 256,36,37
EndSplineSet
EndChar

StartChar: uni2116
Encoding: 8470 8470 148
Width: 1027
GlyphClass: 1
Flags: W
LayerCount: 2
Fore
SplineSet
823 364 m 256,0,1
 789 364 789 364 760 375.5 c 128,-1,2
 731 387 731 387 709.5 409 c 128,-1,3
 688 431 688 431 675.5 463.5 c 128,-1,4
 663 496 663 496 663 537 c 256,5,6
 663 578 663 578 675.5 610.5 c 128,-1,7
 688 643 688 643 709.5 665 c 128,-1,8
 731 687 731 687 760 698.5 c 128,-1,9
 789 710 789 710 823 710 c 256,10,11
 857 710 857 710 886 698.5 c 128,-1,12
 915 687 915 687 936.5 665 c 128,-1,13
 958 643 958 643 970.5 610.5 c 128,-1,14
 983 578 983 578 983 537 c 256,15,16
 983 496 983 496 970.5 463.5 c 128,-1,17
 958 431 958 431 936.5 409 c 128,-1,18
 915 387 915 387 886 375.5 c 128,-1,19
 857 364 857 364 823 364 c 256,0,1
93 0 m 1,20,-1
 93 698 l 1,21,-1
 185 698 l 1,22,-1
 409 293 l 1,23,-1
 506 116 l 1,24,-1
 509 116 l 1,25,-1
 509 698 l 1,26,-1
 587 698 l 1,27,-1
 587 0 l 1,28,-1
 493 0 l 1,29,-1
 257 419 l 1,30,-1
 174 574 l 1,31,-1
 171 574 l 1,32,-1
 171 0 l 1,33,-1
 93 0 l 1,20,-1
823 417 m 256,34,35
 865 417 865 417 889 444 c 128,-1,36
 913 471 913 471 913 509 c 2,37,-1
 913 565 l 2,38,39
 913 603 913 603 889 630 c 128,-1,40
 865 657 865 657 823 657 c 256,41,42
 781 657 781 657 757 630 c 128,-1,43
 733 603 733 603 733 565 c 2,44,-1
 733 509 l 2,45,46
 733 471 733 471 757 444 c 128,-1,47
 781 417 781 417 823 417 c 256,34,35
686 243 m 1,48,-1
 686 309 l 1,49,-1
 960 309 l 1,50,-1
 960 243 l 1,51,-1
 686 243 l 1,48,-1
EndSplineSet
EndChar

StartChar: partialdiff
Encoding: 8706 8706 149
Width: 591
GlyphClass: 1
Flags: W
LayerCount: 2
Fore
SplineSet
523 269 m 0,0,1
 523 126 523 126 461.5 57 c 128,-1,2
 400 -12 400 -12 296 -12 c 0,3,4
 241 -12 241 -12 198 6 c 128,-1,5
 155 24 155 24 125 58 c 128,-1,6
 95 92 95 92 79 139.5 c 128,-1,7
 63 187 63 187 63 246 c 256,8,9
 63 305 63 305 78.5 352.5 c 128,-1,10
 94 400 94 400 123 434 c 128,-1,11
 152 468 152 468 192.5 486 c 128,-1,12
 233 504 233 504 283 504 c 0,13,14
 327 504 327 504 357 489.5 c 128,-1,15
 387 475 387 475 409 449 c 1,16,-1
 412 451 l 1,17,18
 400 487 400 487 373 521 c 128,-1,19
 346 555 346 555 309.5 586.5 c 128,-1,20
 273 618 273 618 229.5 646 c 128,-1,21
 186 674 186 674 141 698 c 1,22,-1
 267 698 l 1,23,24
 301 677 301 677 345.5 644 c 128,-1,25
 390 611 390 611 429.5 560 c 128,-1,26
 469 509 469 509 496 437.5 c 128,-1,27
 523 366 523 366 523 269 c 0,0,1
293 57 m 256,28,29
 359 57 359 57 398.5 95 c 128,-1,30
 438 133 438 133 438 211 c 2,31,-1
 438 281 l 2,32,33
 438 359 438 359 398.5 397 c 128,-1,34
 359 435 359 435 293 435 c 256,35,36
 227 435 227 435 187.5 397 c 128,-1,37
 148 359 148 359 148 281 c 2,38,-1
 148 211 l 2,39,40
 148 133 148 133 187.5 95 c 128,-1,41
 227 57 227 57 293 57 c 256,28,29
EndSplineSet
EndChar

StartChar: currency
Encoding: 164 164 150
Width: 612
GlyphClass: 1
Flags: W
LayerCount: 2
Fore
SplineSet
306 119 m 256,0,1
 222 119 222 119 168 164 c 1,2,-1
 66 62 l 1,3,-1
 18 109 l 1,4,-1
 124 215 l 1,5,6
 92 271 92 271 92 349 c 256,7,8
 92 427 92 427 124 483 c 1,9,-1
 18 589 l 1,10,-1
 66 636 l 1,11,-1
 168 534 l 1,12,13
 222 579 222 579 306 579 c 256,14,15
 390 579 390 579 444 534 c 1,16,-1
 546 636 l 1,17,-1
 594 589 l 1,18,-1
 488 483 l 1,19,20
 520 427 520 427 520 349 c 256,21,22
 520 271 520 271 488 215 c 1,23,-1
 594 109 l 1,24,-1
 546 62 l 1,25,-1
 444 164 l 1,26,27
 390 119 390 119 306 119 c 256,0,1
306 186 m 256,28,29
 364 186 364 186 399.5 218.5 c 128,-1,30
 435 251 435 251 435 317 c 2,31,-1
 435 381 l 2,32,33
 435 447 435 447 399.5 479.5 c 128,-1,34
 364 512 364 512 306 512 c 256,35,36
 248 512 248 512 212.5 479.5 c 128,-1,37
 177 447 177 447 177 381 c 2,38,-1
 177 317 l 2,39,40
 177 251 177 251 212.5 218.5 c 128,-1,41
 248 186 248 186 306 186 c 256,28,29
EndSplineSet
EndChar

StartChar: cent
Encoding: 162 162 151
Width: 514
GlyphClass: 1
Flags: W
LayerCount: 2
Fore
SplineSet
235 -114 m 1,0,-1
 235 -9 l 1,1,2
 144 4 144 4 95.5 75 c 128,-1,3
 47 146 47 146 47 258 c 0,4,5
 47 371 47 371 96 441.5 c 128,-1,6
 145 512 145 512 235 525 c 1,7,-1
 235 630 l 1,8,-1
 305 630 l 1,9,-1
 305 527 l 1,10,11
 368 522 368 522 408 489.5 c 128,-1,12
 448 457 448 457 469 409 c 1,13,-1
 405 374 l 1,14,15
 378 445 378 445 304 456 c 1,16,-1
 304 60 l 1,17,18
 382 69 382 69 418 148 c 1,19,-1
 476 109 l 1,20,21
 454 58 454 58 411 26 c 128,-1,22
 368 -6 368 -6 305 -11 c 1,23,-1
 305 -114 l 1,24,-1
 235 -114 l 1,0,-1
133 214 m 2,25,26
 133 157 133 157 159 115.5 c 128,-1,27
 185 74 185 74 236 63 c 1,28,-1
 236 453 l 1,29,30
 185 442 185 442 159 401 c 128,-1,31
 133 360 133 360 133 302 c 2,32,-1
 133 214 l 2,25,26
EndSplineSet
EndChar

StartChar: Euro
Encoding: 8364 8364 152
Width: 625
GlyphClass: 1
Flags: W
LayerCount: 2
Fore
SplineSet
338 -12 m 0,0,1
 206 -12 206 -12 132 81 c 128,-1,2
 58 174 58 174 58 349 c 256,3,4
 58 524 58 524 132 617 c 128,-1,5
 206 710 206 710 338 710 c 0,6,7
 426 710 426 710 484.5 669.5 c 128,-1,8
 543 629 543 629 576 557 c 1,9,-1
 511 517 l 1,10,11
 490 571 490 571 446 603.5 c 128,-1,12
 402 636 402 636 338 636 c 0,13,14
 259 636 259 636 210 589 c 128,-1,15
 161 542 161 542 149 464 c 1,16,-1
 406 464 l 1,17,-1
 406 397 l 1,18,-1
 145 397 l 1,19,-1
 145 301 l 1,20,-1
 406 301 l 1,21,-1
 406 234 l 1,22,-1
 149 234 l 1,23,24
 162 156 162 156 210.5 109 c 128,-1,25
 259 62 259 62 338 62 c 0,26,27
 404 62 404 62 449 97 c 128,-1,28
 494 132 494 132 516 189 c 1,29,-1
 581 146 l 1,30,31
 565 112 565 112 543 83 c 128,-1,32
 521 54 521 54 491.5 33 c 128,-1,33
 462 12 462 12 424 0 c 128,-1,34
 386 -12 386 -12 338 -12 c 0,0,1
EndSplineSet
EndChar

StartChar: florin
Encoding: 402 402 153
Width: 485
GlyphClass: 1
Flags: W
LayerCount: 2
Fore
SplineSet
4 -64 m 1,0,-1
 149 -64 l 1,1,-1
 186 301 l 1,2,-1
 43 301 l 1,3,-1
 51 374 l 1,4,-1
 193 374 l 1,5,-1
 214 580 l 2,6,7
 219 633 219 633 250.5 665.5 c 128,-1,8
 282 698 282 698 340 698 c 2,9,-1
 461 698 l 1,10,-1
 453 628 l 1,11,-1
 300 628 l 1,12,-1
 274 374 l 1,13,-1
 443 374 l 1,14,-1
 436 301 l 1,15,-1
 267 301 l 1,16,-1
 235 -16 l 2,17,18
 230 -68 230 -68 199 -101 c 128,-1,19
 168 -134 168 -134 109 -134 c 2,20,-1
 -3 -134 l 1,21,-1
 4 -64 l 1,0,-1
EndSplineSet
EndChar

StartChar: sterling
Encoding: 163 163 154
Width: 595
GlyphClass: 1
Flags: W
LayerCount: 2
Fore
SplineSet
82 0 m 1,0,-1
 82 100 l 1,1,2
 124 118 124 118 139 156.5 c 128,-1,3
 154 195 154 195 154 237 c 0,4,5
 154 250 154 250 153 262.5 c 128,-1,6
 152 275 152 275 150 286 c 1,7,-1
 60 286 l 1,8,-1
 60 356 l 1,9,-1
 131 356 l 1,10,11
 120 390 120 390 110 423.5 c 128,-1,12
 100 457 100 457 100 499 c 0,13,14
 100 545 100 545 115.5 584 c 128,-1,15
 131 623 131 623 160.5 651 c 128,-1,16
 190 679 190 679 233 694.5 c 128,-1,17
 276 710 276 710 330 710 c 0,18,19
 407 710 407 710 458.5 680 c 128,-1,20
 510 650 510 650 544 596 c 1,21,-1
 481 550 l 1,22,23
 455 590 455 590 418.5 613 c 128,-1,24
 382 636 382 636 327 636 c 0,25,26
 262 636 262 636 224.5 600 c 128,-1,27
 187 564 187 564 187 491 c 0,28,29
 187 453 187 453 196 420.5 c 128,-1,30
 205 388 205 388 215 356 c 1,31,-1
 431 356 l 1,32,-1
 431 286 l 1,33,-1
 233 286 l 1,34,35
 236 266 236 266 236 246 c 0,36,37
 236 190 236 190 213.5 145 c 128,-1,38
 191 100 191 100 161 80 c 1,39,-1
 161 75 l 1,40,-1
 525 75 l 1,41,-1
 525 0 l 1,42,-1
 82 0 l 1,0,-1
EndSplineSet
EndChar

StartChar: dollar
Encoding: 36 36 155
Width: 598
GlyphClass: 1
Flags: W
LayerCount: 2
Fore
SplineSet
270 -82 m 1,0,-1
 270 0 l 1,1,2
 194 5 194 5 141.5 37.5 c 128,-1,3
 89 70 89 70 52 119 c 1,4,-1
 111 172 l 1,5,6
 143 129 143 129 181.5 103.5 c 128,-1,7
 220 78 220 78 271 71 c 1,8,-1
 271 328 l 1,9,10
 168 351 168 351 120.5 395.5 c 128,-1,11
 73 440 73 440 73 518 c 0,12,13
 73 558 73 558 87.5 589.5 c 128,-1,14
 102 621 102 621 128 644 c 128,-1,15
 154 667 154 667 190 680.5 c 128,-1,16
 226 694 226 694 270 698 c 1,17,-1
 270 780 l 1,18,-1
 332 780 l 1,19,-1
 332 699 l 1,20,21
 400 693 400 693 449.5 664.5 c 128,-1,22
 499 636 499 636 535 586 c 1,23,-1
 474 540 l 1,24,25
 449 575 449 575 414 597.5 c 128,-1,26
 379 620 379 620 331 627 c 1,27,-1
 331 393 l 1,28,-1
 340 391 l 2,29,30
 444 368 444 368 491.5 323.5 c 128,-1,31
 539 279 539 279 539 200 c 0,32,33
 539 114 539 114 483.5 61.5 c 128,-1,34
 428 9 428 9 332 0 c 1,35,-1
 332 -82 l 1,36,-1
 270 -82 l 1,0,-1
460 195 m 256,37,38
 460 246 460 246 430.5 273 c 128,-1,39
 401 300 401 300 331 317 c 1,40,-1
 331 71 l 1,41,42
 391 79 391 79 425.5 111.5 c 128,-1,43
 460 144 460 144 460 195 c 256,37,38
152 524 m 0,44,45
 152 473 152 473 181.5 447.5 c 128,-1,46
 211 422 211 422 271 406 c 1,47,-1
 271 627 l 1,48,49
 217 620 217 620 184.5 594 c 128,-1,50
 152 568 152 568 152 524 c 0,44,45
EndSplineSet
EndChar

StartChar: yen
Encoding: 165 165 156
Width: 605
GlyphClass: 1
Flags: W
LayerCount: 2
Fore
SplineSet
344 145 m 1,0,-1
 344 0 l 1,1,-1
 261 0 l 1,2,-1
 261 145 l 1,3,-1
 85 145 l 1,4,-1
 85 212 l 1,5,-1
 261 212 l 1,6,-1
 261 308 l 1,7,-1
 85 308 l 1,8,-1
 85 375 l 1,9,-1
 221 375 l 1,10,-1
 34 698 l 1,11,-1
 128 698 l 1,12,-1
 303 383 l 1,13,-1
 308 383 l 1,14,-1
 478 698 l 1,15,-1
 571 698 l 1,16,-1
 384 375 l 1,17,-1
 520 375 l 1,18,-1
 520 308 l 1,19,-1
 344 308 l 1,20,-1
 344 212 l 1,21,-1
 520 212 l 1,22,-1
 520 145 l 1,23,-1
 344 145 l 1,0,-1
EndSplineSet
EndChar

StartChar: uni0E3F
Encoding: 3647 3647 157
Width: 641
GlyphClass: 1
Flags: W
LayerCount: 2
Fore
SplineSet
282 21 m 1,0,-1
 93 21 l 1,1,-1
 93 677 l 1,2,-1
 282 677 l 1,3,-1
 282 780 l 1,4,-1
 349 780 l 1,5,-1
 349 677 l 1,6,-1
 376 677 l 2,7,8
 461 677 461 677 508 631.5 c 128,-1,9
 555 586 555 586 555 509 c 0,10,11
 555 476 555 476 546.5 452 c 128,-1,12
 538 428 538 428 522.5 411 c 128,-1,13
 507 394 507 394 486 383.5 c 128,-1,14
 465 373 465 373 440 368 c 1,15,-1
 440 363 l 1,16,17
 467 359 467 359 492 349.5 c 128,-1,18
 517 340 517 340 537 322 c 128,-1,19
 557 304 557 304 569 276 c 128,-1,20
 581 248 581 248 581 208 c 256,21,22
 581 168 581 168 568 133.5 c 128,-1,23
 555 99 555 99 531 74 c 128,-1,24
 507 49 507 49 474.5 35 c 128,-1,25
 442 21 442 21 403 21 c 2,26,-1
 349 21 l 1,27,-1
 349 -84 l 1,28,-1
 282 -84 l 1,29,-1
 282 21 l 1,0,-1
383 89 m 2,30,31
 440 89 440 89 471 115.5 c 128,-1,32
 502 142 502 142 502 190 c 2,33,-1
 502 227 l 2,34,35
 502 276 502 276 471 302.5 c 128,-1,36
 440 329 440 329 383 329 c 2,37,-1
 347 329 l 1,38,-1
 347 89 l 1,39,-1
 383 89 l 2,30,31
375 388 m 2,40,41
 426 388 426 388 450.5 412.5 c 128,-1,42
 475 437 475 437 475 482 c 2,43,-1
 475 516 l 2,44,45
 475 561 475 561 450.5 585 c 128,-1,46
 426 609 426 609 375 609 c 2,47,-1
 347 609 l 1,48,-1
 347 388 l 1,49,-1
 375 388 l 2,40,41
284 89 m 1,50,-1
 284 329 l 1,51,-1
 169 329 l 1,52,-1
 169 89 l 1,53,-1
 284 89 l 1,50,-1
284 388 m 1,54,-1
 284 609 l 1,55,-1
 169 609 l 1,56,-1
 169 388 l 1,57,-1
 284 388 l 1,54,-1
EndSplineSet
EndChar

StartChar: uni20A1
Encoding: 8353 8353 158
Width: 628
GlyphClass: 1
Flags: W
LayerCount: 2
Fore
SplineSet
316 -1 m 1,0,1
 302 0 302 0 289 1.5 c 128,-1,2
 276 3 276 3 265 6 c 1,3,-1
 255 -82 l 1,4,-1
 187 -82 l 1,5,-1
 199 28 l 1,6,7
 131 63 131 63 94.5 143 c 128,-1,8
 58 223 58 223 58 347 c 0,9,10
 58 500 58 500 113 587 c 128,-1,11
 168 674 168 674 268 694 c 1,12,-1
 277 780 l 1,13,-1
 345 780 l 1,14,-1
 336 700 l 1,15,-1
 339 700 l 2,16,17
 352 700 352 700 364.5 699 c 128,-1,18
 377 698 377 698 388 696 c 1,19,-1
 397 780 l 1,20,-1
 465 780 l 1,21,-1
 455 678 l 1,22,23
 497 661 497 661 527.5 627 c 128,-1,24
 558 593 558 593 579 547 c 1,25,-1
 512 506 l 1,26,27
 500 535 500 535 483.5 558.5 c 128,-1,28
 467 582 467 582 444 597 c 1,29,-1
 390 78 l 1,30,31
 438 89 438 89 469 121.5 c 128,-1,32
 500 154 500 154 517 200 c 1,33,-1
 584 156 l 1,34,35
 555 95 555 95 508 53 c 128,-1,36
 461 11 461 11 384 1 c 1,37,-1
 375 -82 l 1,38,-1
 307 -82 l 1,39,-1
 316 -1 l 1,0,1
327 625 m 1,40,-1
 271 85 l 1,41,42
 295 74 295 74 325 73 c 1,43,-1
 382 620 l 1,44,45
 360 625 360 625 341 625 c 2,46,-1
 327 625 l 1,40,-1
148 293 m 2,47,48
 148 236 148 236 163.5 190.5 c 128,-1,49
 179 145 179 145 211 117 c 1,50,-1
 261 612 l 1,51,52
 206 591 206 591 177 537 c 128,-1,53
 148 483 148 483 148 406 c 2,54,-1
 148 293 l 2,47,48
EndSplineSet
EndChar

StartChar: uni20A4
Encoding: 8356 8356 159
Width: 595
GlyphClass: 1
Flags: W
LayerCount: 2
Fore
SplineSet
525 0 m 1,0,-1
 82 0 l 1,1,-1
 82 100 l 1,2,3
 124 118 124 118 139 156.5 c 128,-1,4
 154 195 154 195 154 238 c 1,5,-1
 60 238 l 1,6,-1
 60 305 l 1,7,-1
 146 305 l 1,8,9
 141 328 141 328 133.5 349.5 c 128,-1,10
 126 371 126 371 119 393 c 1,11,-1
 60 393 l 1,12,-1
 60 460 l 1,13,-1
 103 460 l 1,14,15
 100 478 100 478 100 499 c 0,16,17
 100 545 100 545 115.5 584 c 128,-1,18
 131 623 131 623 160.5 651 c 128,-1,19
 190 679 190 679 233 694.5 c 128,-1,20
 276 710 276 710 330 710 c 0,21,22
 407 710 407 710 458.5 680 c 128,-1,23
 510 650 510 650 544 596 c 1,24,-1
 481 550 l 1,25,26
 455 590 455 590 418.5 613 c 128,-1,27
 382 636 382 636 327 636 c 0,28,29
 262 636 262 636 224.5 600 c 128,-1,30
 187 564 187 564 187 491 c 0,31,32
 187 483 187 483 187.5 475.5 c 128,-1,33
 188 468 188 468 189 460 c 1,34,-1
 431 460 l 1,35,-1
 431 393 l 1,36,-1
 203 393 l 1,37,38
 210 371 210 371 217 349.5 c 128,-1,39
 224 328 224 328 229 305 c 1,40,-1
 431 305 l 1,41,-1
 431 238 l 1,42,-1
 236 238 l 1,43,44
 234 184 234 184 212 142 c 128,-1,45
 190 100 190 100 161 80 c 1,46,-1
 161 75 l 1,47,-1
 525 75 l 1,48,-1
 525 0 l 1,0,-1
EndSplineSet
EndChar

StartChar: uni20A6
Encoding: 8358 8358 160
Width: 696
GlyphClass: 1
Flags: W
LayerCount: 2
Fore
SplineSet
362 237 m 1,0,-1
 177 237 l 1,1,-1
 177 0 l 1,2,-1
 95 0 l 1,3,-1
 95 234 l 1,4,-1
 15 234 l 1,5,-1
 15 301 l 1,6,-1
 95 301 l 1,7,-1
 95 397 l 1,8,-1
 15 397 l 1,9,-1
 15 464 l 1,10,-1
 95 464 l 1,11,-1
 95 698 l 1,12,-1
 190 698 l 1,13,-1
 329 461 l 1,14,-1
 519 461 l 1,15,-1
 519 698 l 1,16,-1
 601 698 l 1,17,-1
 601 464 l 1,18,-1
 681 464 l 1,19,-1
 681 397 l 1,20,-1
 601 397 l 1,21,-1
 601 301 l 1,22,-1
 681 301 l 1,23,-1
 681 234 l 1,24,-1
 601 234 l 1,25,-1
 601 0 l 1,26,-1
 502 0 l 1,27,-1
 362 237 l 1,0,-1
332 298 m 1,28,-1
 180 567 l 1,29,-1
 177 567 l 1,30,-1
 177 298 l 1,31,-1
 332 298 l 1,28,-1
516 120 m 1,32,-1
 519 120 l 1,33,-1
 519 400 l 1,34,-1
 359 400 l 1,35,-1
 516 120 l 1,32,-1
EndSplineSet
EndChar

StartChar: uni20A8
Encoding: 8360 8360 161
Width: 713
GlyphClass: 1
Flags: W
LayerCount: 2
Fore
SplineSet
93 0 m 1,0,-1
 93 698 l 1,1,-1
 266 698 l 2,2,3
 356 698 356 698 400.5 649.5 c 128,-1,4
 445 601 445 601 445 511 c 0,5,6
 445 442 445 442 418.5 397.5 c 128,-1,7
 392 353 392 353 337 336 c 1,8,-1
 434 132 l 2,9,10
 453 93 453 93 474 74 c 128,-1,11
 495 55 495 55 532 55 c 0,12,13
 568 55 568 55 588 71.5 c 128,-1,14
 608 88 608 88 608 120 c 0,15,16
 608 131 608 131 606 139.5 c 128,-1,17
 604 148 604 148 598 156.5 c 128,-1,18
 592 165 592 165 581.5 176.5 c 128,-1,19
 571 188 571 188 554 205 c 2,20,-1
 535 224 l 2,21,22
 493 266 493 266 477.5 296.5 c 128,-1,23
 462 327 462 327 462 361 c 0,24,25
 462 411 462 411 493.5 444 c 128,-1,26
 525 477 525 477 583 477 c 0,27,28
 609 477 609 477 634.5 471 c 128,-1,29
 660 465 660 465 683 448 c 1,30,-1
 651 391 l 1,31,32
 623 413 623 413 587 413 c 0,33,34
 563 413 563 413 550 399.5 c 128,-1,35
 537 386 537 386 537 362 c 0,36,37
 537 339 537 339 548.5 321 c 128,-1,38
 560 303 560 303 590 273 c 2,39,-1
 605 258 l 2,40,41
 628 235 628 235 643 218 c 128,-1,42
 658 201 658 201 667 186 c 128,-1,43
 676 171 676 171 679.5 155.5 c 128,-1,44
 683 140 683 140 683 120 c 0,45,46
 683 60 683 60 644.5 24 c 128,-1,47
 606 -12 606 -12 525 -12 c 0,48,49
 468 -12 468 -12 428 11.5 c 128,-1,50
 388 35 388 35 362 94 c 2,51,-1
 260 322 l 1,52,-1
 173 322 l 1,53,-1
 173 0 l 1,54,-1
 93 0 l 1,0,-1
258 392 m 2,55,56
 308 392 308 392 335.5 416 c 128,-1,57
 363 440 363 440 363 486 c 2,58,-1
 363 532 l 2,59,60
 363 578 363 578 335.5 602 c 128,-1,61
 308 626 308 626 258 626 c 2,62,-1
 173 626 l 1,63,-1
 173 392 l 1,64,-1
 258 392 l 2,55,56
EndSplineSet
EndChar

StartChar: uni20A9
Encoding: 8361 8361 162
Width: 952
GlyphClass: 1
Flags: W
LayerCount: 2
Fore
SplineSet
567 238 m 1,0,-1
 376 238 l 1,1,-1
 313 0 l 1,2,-1
 222 0 l 1,3,-1
 166 235 l 1,4,-1
 37 235 l 1,5,-1
 37 302 l 1,6,-1
 150 302 l 1,7,-1
 128 397 l 1,8,-1
 37 397 l 1,9,-1
 37 464 l 1,10,-1
 112 464 l 1,11,-1
 56 698 l 1,12,-1
 139 698 l 1,13,-1
 192 461 l 1,14,-1
 365 461 l 1,15,-1
 427 698 l 1,16,-1
 523 698 l 1,17,-1
 583 461 l 1,18,-1
 760 461 l 1,19,-1
 815 698 l 1,20,-1
 899 698 l 1,21,-1
 839 464 l 1,22,-1
 915 464 l 1,23,-1
 915 397 l 1,24,-1
 822 397 l 1,25,-1
 798 302 l 1,26,-1
 915 302 l 1,27,-1
 915 235 l 1,28,-1
 781 235 l 1,29,-1
 720 0 l 1,30,-1
 629 0 l 1,31,-1
 567 238 l 1,0,-1
339 362 m 1,32,-1
 348 400 l 1,33,-1
 206 400 l 1,34,-1
 214 362 l 1,35,-1
 272 101 l 1,36,-1
 274 101 l 1,37,-1
 339 362 l 1,32,-1
676 102 m 1,38,-1
 736 362 l 1,39,-1
 745 400 l 1,40,-1
 599 400 l 1,41,-1
 608 362 l 1,42,-1
 673 102 l 1,43,-1
 676 102 l 1,38,-1
393 299 m 1,44,-1
 551 299 l 1,45,-1
 538 348 l 1,46,-1
 474 611 l 1,47,-1
 472 611 l 1,48,-1
 406 348 l 1,49,-1
 393 299 l 1,44,-1
EndSplineSet
EndChar

StartChar: uni20AA
Encoding: 8362 8362 163
Width: 770
GlyphClass: 1
Flags: W
LayerCount: 2
Fore
SplineSet
261 540 m 1,0,-1
 341 540 l 1,1,-1
 341 70 l 1,2,-1
 491 70 l 2,3,4
 511 70 511 70 530 75.5 c 128,-1,5
 549 81 549 81 564 93.5 c 128,-1,6
 579 106 579 106 588 127.5 c 128,-1,7
 597 149 597 149 597 182 c 2,8,-1
 597 698 l 1,9,-1
 677 698 l 1,10,-1
 677 198 l 2,11,12
 677 148 677 148 663 111 c 128,-1,13
 649 74 649 74 624.5 49 c 128,-1,14
 600 24 600 24 565.5 12 c 128,-1,15
 531 0 531 0 491 0 c 2,16,-1
 261 0 l 1,17,-1
 261 540 l 1,0,-1
93 0 m 1,18,-1
 93 698 l 1,19,-1
 325 698 l 2,20,21
 406 698 406 698 457.5 649 c 128,-1,22
 509 600 509 600 509 500 c 2,23,-1
 509 158 l 1,24,-1
 429 158 l 1,25,-1
 429 516 l 2,26,27
 429 549 429 549 420.5 570.5 c 128,-1,28
 412 592 412 592 397.5 604.5 c 128,-1,29
 383 617 383 617 364 622.5 c 128,-1,30
 345 628 345 628 324 628 c 2,31,-1
 173 628 l 1,32,-1
 173 0 l 1,33,-1
 93 0 l 1,18,-1
EndSplineSet
EndChar

StartChar: uni20AB
Encoding: 8363 8363 164
Width: 580
GlyphClass: 1
Flags: W
LayerCount: 2
Fore
SplineSet
392 209 m 1,0,-1
 388 209 l 1,1,2
 367 171 367 171 332 151 c 128,-1,3
 297 131 297 131 247 131 c 0,4,5
 166 131 166 131 118.5 186.5 c 128,-1,6
 71 242 71 242 71 346 c 256,7,8
 71 450 71 450 118.5 505.5 c 128,-1,9
 166 561 166 561 247 561 c 0,10,11
 297 561 297 561 332 540.5 c 128,-1,12
 367 520 367 520 388 482 c 1,13,-1
 392 482 l 1,14,-1
 392 619 l 1,15,-1
 243 619 l 1,16,-1
 243 680 l 1,17,-1
 392 680 l 1,18,-1
 392 740 l 1,19,-1
 468 740 l 1,20,-1
 468 680 l 1,21,-1
 536 680 l 1,22,-1
 536 619 l 1,23,-1
 468 619 l 1,24,-1
 468 140 l 1,25,-1
 392 140 l 1,26,-1
 392 209 l 1,0,-1
275 195 m 0,27,28
 326 195 326 195 359 220.5 c 128,-1,29
 392 246 392 246 392 288 c 2,30,-1
 392 404 l 2,31,32
 392 446 392 446 359 471.5 c 128,-1,33
 326 497 326 497 275 497 c 0,34,35
 219 497 219 497 185.5 465 c 128,-1,36
 152 433 152 433 152 380 c 2,37,-1
 152 312 l 2,38,39
 152 259 152 259 185.5 227 c 128,-1,40
 219 195 219 195 275 195 c 0,27,28
71 0 m 1,41,-1
 71 67 l 1,42,-1
 498 67 l 1,43,-1
 498 0 l 1,44,-1
 71 0 l 1,41,-1
EndSplineSet
EndChar

StartChar: uni20AD
Encoding: 8365 8365 165
Width: 617
GlyphClass: 1
Flags: W
LayerCount: 2
Fore
SplineSet
177 0 m 1,0,-1
 95 0 l 1,1,-1
 95 327 l 1,2,-1
 10 327 l 1,3,-1
 10 396 l 1,4,-1
 95 396 l 1,5,-1
 95 698 l 1,6,-1
 177 698 l 1,7,-1
 177 396 l 1,8,-1
 257 396 l 1,9,-1
 481 698 l 1,10,-1
 574 698 l 1,11,-1
 344 396 l 1,12,-1
 558 396 l 1,13,-1
 558 327 l 1,14,-1
 350 327 l 1,15,-1
 590 0 l 1,16,-1
 490 0 l 1,17,-1
 259 327 l 1,18,-1
 177 327 l 1,19,-1
 177 0 l 1,0,-1
EndSplineSet
EndChar

StartChar: uni20AE
Encoding: 8366 8366 166
Width: 608
GlyphClass: 1
Flags: W
LayerCount: 2
Fore
SplineSet
346 217 m 1,0,-1
 346 0 l 1,1,-1
 262 0 l 1,2,-1
 262 176 l 1,3,-1
 129 112 l 1,4,-1
 129 181 l 1,5,-1
 262 245 l 1,6,-1
 262 336 l 1,7,-1
 129 272 l 1,8,-1
 129 341 l 1,9,-1
 262 405 l 1,10,-1
 262 624 l 1,11,-1
 40 624 l 1,12,-1
 40 698 l 1,13,-1
 568 698 l 1,14,-1
 568 624 l 1,15,-1
 346 624 l 1,16,-1
 346 446 l 1,17,-1
 480 511 l 1,18,-1
 480 442 l 1,19,-1
 346 377 l 1,20,-1
 346 286 l 1,21,-1
 480 351 l 1,22,-1
 480 282 l 1,23,-1
 346 217 l 1,0,-1
EndSplineSet
EndChar

StartChar: uni20B1
Encoding: 8369 8369 167
Width: 628
GlyphClass: 1
Flags: W
LayerCount: 2
Fore
SplineSet
193 0 m 1,0,-1
 110 0 l 1,1,-1
 110 332 l 1,2,-1
 30 332 l 1,3,-1
 30 399 l 1,4,-1
 110 399 l 1,5,-1
 110 495 l 1,6,-1
 30 495 l 1,7,-1
 30 562 l 1,8,-1
 110 562 l 1,9,-1
 110 698 l 1,10,-1
 341 698 l 2,11,12
 413 698 413 698 456.5 662 c 128,-1,13
 500 626 500 626 519 562 c 1,14,-1
 610 562 l 1,15,-1
 610 495 l 1,16,-1
 531 495 l 1,17,18
 532 483 532 483 532.5 470.5 c 128,-1,19
 533 458 533 458 533 446 c 256,20,21
 533 434 533 434 532.5 422 c 128,-1,22
 532 410 532 410 531 399 c 1,23,-1
 610 399 l 1,24,-1
 610 332 l 1,25,-1
 519 332 l 1,26,27
 501 267 501 267 457.5 230.5 c 128,-1,28
 414 194 414 194 341 194 c 2,29,-1
 193 194 l 1,30,-1
 193 0 l 1,0,-1
193 559 m 1,31,-1
 442 559 l 1,32,33
 431 589 431 589 405 607.5 c 128,-1,34
 379 626 379 626 341 626 c 2,35,-1
 193 626 l 1,36,-1
 193 559 l 1,31,-1
450 396 m 1,37,-1
 450 498 l 1,38,-1
 193 498 l 1,39,-1
 193 396 l 1,40,-1
 450 396 l 1,37,-1
341 266 m 2,41,42
 379 266 379 266 406 284.5 c 128,-1,43
 433 303 433 303 444 335 c 1,44,-1
 193 335 l 1,45,-1
 193 266 l 1,46,-1
 341 266 l 2,41,42
EndSplineSet
EndChar

StartChar: uni20B2
Encoding: 8370 8370 168
Width: 676
GlyphClass: 1
Flags: W
LayerCount: 2
Fore
SplineSet
223 -82 m 1,0,-1
 240 12 l 1,1,2
 153 42 153 42 105.5 126.5 c 128,-1,3
 58 211 58 211 58 352 c 0,4,5
 58 526 58 526 132.5 613 c 128,-1,6
 207 700 207 700 341 700 c 0,7,8
 345 700 345 700 359 699 c 1,9,-1
 373 780 l 1,10,-1
 438 780 l 1,11,-1
 422 690 l 1,12,13
 538 659 538 659 589 547 c 1,14,-1
 521 506 l 1,15,16
 505 547 505 547 477.5 575 c 128,-1,17
 450 603 450 603 408 617 c 1,18,-1
 363 359 l 1,19,-1
 604 359 l 1,20,-1
 604 260 l 2,21,22
 604 182 604 182 578 131.5 c 128,-1,23
 552 81 552 81 512 51.5 c 128,-1,24
 472 22 472 22 425 10 c 128,-1,25
 378 -2 378 -2 335 -2 c 0,26,27
 327 -2 327 -2 320 -1.5 c 128,-1,28
 313 -1 313 -1 303 0 c 1,29,-1
 288 -82 l 1,30,-1
 223 -82 l 1,0,-1
148 293 m 2,31,32
 148 219 148 219 175 168 c 128,-1,33
 202 117 202 117 254 92 c 1,34,-1
 348 626 l 1,35,-1
 342 626 l 2,36,37
 249 626 249 626 198.5 568 c 128,-1,38
 148 510 148 510 148 406 c 2,39,-1
 148 293 l 2,31,32
350 283 m 1,40,-1
 314 74 l 1,41,42
 325 73 325 73 332.5 72.5 c 128,-1,43
 340 72 340 72 348 72 c 0,44,45
 431 72 431 72 476.5 117 c 128,-1,46
 522 162 522 162 522 240 c 2,47,-1
 522 283 l 1,48,-1
 350 283 l 1,40,-1
EndSplineSet
EndChar

StartChar: uni20B4
Encoding: 8372 8372 169
Width: 628
GlyphClass: 1
Flags: W
LayerCount: 2
Fore
SplineSet
316 -12 m 0,0,1
 268 -12 268 -12 229.5 2 c 128,-1,2
 191 16 191 16 164 40.5 c 128,-1,3
 137 65 137 65 122 99.5 c 128,-1,4
 107 134 107 134 107 176 c 0,5,6
 107 198 107 198 111 215.5 c 128,-1,7
 115 233 115 233 120 248 c 1,8,-1
 46 248 l 1,9,-1
 46 315 l 1,10,-1
 171 315 l 1,11,-1
 337 411 l 1,12,-1
 46 411 l 1,13,-1
 46 478 l 1,14,-1
 421 478 l 1,15,16
 430 500 430 500 430 529 c 0,17,18
 430 583 430 583 397.5 609.5 c 128,-1,19
 365 636 365 636 307 636 c 0,20,21
 268 636 268 636 233 621 c 128,-1,22
 198 606 198 606 168 571 c 1,23,-1
 115 624 l 1,24,25
 157 670 157 670 208 690 c 128,-1,26
 259 710 259 710 314 710 c 0,27,28
 358 710 358 710 394.5 698 c 128,-1,29
 431 686 431 686 457.5 663.5 c 128,-1,30
 484 641 484 641 498.5 608.5 c 128,-1,31
 513 576 513 576 513 536 c 0,32,33
 513 502 513 502 504 478 c 1,34,-1
 582 478 l 1,35,-1
 582 411 l 1,36,-1
 456 411 l 1,37,-1
 290 315 l 1,38,-1
 582 315 l 1,39,-1
 582 248 l 1,40,-1
 206 248 l 1,41,42
 198 234 198 234 194 218 c 128,-1,43
 190 202 190 202 190 182 c 0,44,45
 190 122 190 122 225.5 92 c 128,-1,46
 261 62 261 62 321 62 c 0,47,48
 363 62 363 62 400.5 79.5 c 128,-1,49
 438 97 438 97 479 140 c 1,50,-1
 530 85 l 1,51,52
 490 37 490 37 435 12.5 c 128,-1,53
 380 -12 380 -12 316 -12 c 0,0,1
EndSplineSet
EndChar

StartChar: uni20B5
Encoding: 8373 8373 170
Width: 628
GlyphClass: 1
Flags: W
LayerCount: 2
Fore
SplineSet
223 -82 m 1,0,-1
 240 12 l 1,1,2
 152 42 152 42 105 128 c 128,-1,3
 58 214 58 214 58 349 c 0,4,5
 58 520 58 520 131.5 610 c 128,-1,6
 205 700 205 700 337 700 c 0,7,8
 345 700 345 700 359 699 c 1,9,-1
 373 780 l 1,10,-1
 438 780 l 1,11,-1
 422 689 l 1,12,13
 479 672 479 672 517 637 c 128,-1,14
 555 602 555 602 579 549 c 1,15,-1
 511 508 l 1,16,17
 497 544 497 544 472 571.5 c 128,-1,18
 447 599 447 599 408 614 c 1,19,-1
 314 74 l 1,20,21
 322 73 322 73 327 73 c 128,-1,22
 332 73 332 73 337 73 c 0,23,24
 406 73 406 73 451 107.5 c 128,-1,25
 496 142 496 142 517 199 c 1,26,-1
 584 157 l 1,27,28
 568 123 568 123 545.5 94 c 128,-1,29
 523 65 523 65 493 43.5 c 128,-1,30
 463 22 463 22 424.5 10 c 128,-1,31
 386 -2 386 -2 337 -2 c 0,32,33
 329 -2 329 -2 321.5 -1.5 c 128,-1,34
 314 -1 314 -1 303 0 c 1,35,-1
 288 -82 l 1,36,-1
 223 -82 l 1,0,-1
148 293 m 2,37,38
 148 220 148 220 174.5 168 c 128,-1,39
 201 116 201 116 254 90 c 1,40,-1
 348 626 l 1,41,-1
 337 626 l 2,42,43
 292 626 292 626 257 610 c 128,-1,44
 222 594 222 594 197.5 565.5 c 128,-1,45
 173 537 173 537 160.5 496 c 128,-1,46
 148 455 148 455 148 406 c 2,47,-1
 148 293 l 2,37,38
EndSplineSet
EndChar

StartChar: uni20B8
Encoding: 8376 8376 171
Width: 608
GlyphClass: 1
Flags: W
LayerCount: 2
Fore
SplineSet
40 628 m 1,0,-1
 40 698 l 1,1,-1
 568 698 l 1,2,-1
 568 628 l 1,3,-1
 40 628 l 1,0,-1
346 468 m 1,4,-1
 346 0 l 1,5,-1
 262 0 l 1,6,-1
 262 468 l 1,7,-1
 40 468 l 1,8,-1
 40 538 l 1,9,-1
 568 538 l 1,10,-1
 568 468 l 1,11,-1
 346 468 l 1,4,-1
EndSplineSet
EndChar

StartChar: uni20B9
Encoding: 8377 8377 172
Width: 605
GlyphClass: 1
Flags: W
LayerCount: 2
Fore
SplineSet
394 0 m 1,0,-1
 175 298 l 1,1,-1
 53 298 l 1,2,-1
 53 368 l 1,3,-1
 275 368 l 2,4,5
 326 368 326 368 359 392 c 128,-1,6
 392 416 392 416 392 464 c 1,7,-1
 53 464 l 1,8,-1
 53 534 l 1,9,-1
 392 534 l 1,10,11
 390 580 390 580 358 604 c 128,-1,12
 326 628 326 628 275 628 c 2,13,-1
 53 628 l 1,14,-1
 53 698 l 1,15,-1
 571 698 l 1,16,-1
 571 628 l 1,17,-1
 405 628 l 1,18,-1
 405 624 l 1,19,20
 411 623 411 623 421 620 c 128,-1,21
 431 617 431 617 441.5 607.5 c 128,-1,22
 452 598 452 598 460.5 580.5 c 128,-1,23
 469 563 469 563 472 534 c 1,24,-1
 571 534 l 1,25,-1
 571 464 l 1,26,-1
 472 464 l 1,27,28
 463 386 463 386 412 342 c 128,-1,29
 361 298 361 298 273 298 c 1,30,-1
 496 0 l 1,31,-1
 394 0 l 1,0,-1
EndSplineSet
EndChar

StartChar: uni20BA
Encoding: 8378 8378 173
Width: 606
GlyphClass: 1
Flags: W
LayerCount: 2
Fore
SplineSet
110 248 m 1,0,-1
 13 201 l 1,1,-1
 13 270 l 1,2,-1
 110 317 l 1,3,-1
 110 408 l 1,4,-1
 13 361 l 1,5,-1
 13 430 l 1,6,-1
 110 477 l 1,7,-1
 110 698 l 1,8,-1
 194 698 l 1,9,-1
 194 517 l 1,10,-1
 410 621 l 1,11,-1
 410 552 l 1,12,-1
 194 448 l 1,13,-1
 194 357 l 1,14,-1
 410 461 l 1,15,-1
 410 392 l 1,16,-1
 194 288 l 1,17,-1
 194 73 l 1,18,-1
 302 73 l 2,19,20
 385 73 385 73 432 135.5 c 128,-1,21
 479 198 479 198 479 305 c 1,22,-1
 561 305 l 1,23,24
 561 241 561 241 545 185.5 c 128,-1,25
 529 130 529 130 497 88.5 c 128,-1,26
 465 47 465 47 417.5 23.5 c 128,-1,27
 370 0 370 0 307 0 c 2,28,-1
 110 0 l 1,29,-1
 110 248 l 1,0,-1
EndSplineSet
EndChar

StartChar: uni20BD
Encoding: 8381 8381 174
Width: 623
GlyphClass: 1
Flags: W
LayerCount: 2
Fore
SplineSet
194 132 m 1,0,-1
 194 0 l 1,1,-1
 110 0 l 1,2,-1
 110 132 l 1,3,-1
 30 132 l 1,4,-1
 30 202 l 1,5,-1
 110 202 l 1,6,-1
 110 299 l 1,7,-1
 30 299 l 1,8,-1
 30 369 l 1,9,-1
 110 369 l 1,10,-1
 110 698 l 1,11,-1
 388 698 l 2,12,13
 482 698 482 698 532.5 644 c 128,-1,14
 583 590 583 590 583 498 c 256,15,16
 583 406 583 406 532.5 352.5 c 128,-1,17
 482 299 482 299 388 299 c 2,18,-1
 194 299 l 1,19,-1
 194 202 l 1,20,-1
 469 202 l 1,21,-1
 469 132 l 1,22,-1
 194 132 l 1,0,-1
194 369 m 1,23,-1
 388 369 l 2,24,25
 438 369 438 369 465.5 395 c 128,-1,26
 493 421 493 421 493 469 c 2,27,-1
 493 524 l 2,28,29
 493 572 493 572 465.5 598 c 128,-1,30
 438 624 438 624 388 624 c 2,31,-1
 194 624 l 1,32,-1
 194 369 l 1,23,-1
EndSplineSet
EndChar

StartChar: uni20BF
Encoding: 8383 8383 175
Width: 643
GlyphClass: 1
Flags: W
LayerCount: 2
Fore
SplineSet
332 21 m 1,0,-1
 272 21 l 1,1,-1
 272 -82 l 1,2,-1
 202 -82 l 1,3,-1
 202 21 l 1,4,-1
 92 21 l 1,5,-1
 92 677 l 1,6,-1
 202 677 l 1,7,-1
 202 780 l 1,8,-1
 272 780 l 1,9,-1
 272 677 l 1,10,-1
 332 677 l 1,11,-1
 332 780 l 1,12,-1
 402 780 l 1,13,-1
 402 676 l 1,14,15
 474 668 474 668 514.5 623 c 128,-1,16
 555 578 555 578 555 508 c 0,17,18
 555 475 555 475 545.5 450.5 c 128,-1,19
 536 426 536 426 520 409 c 128,-1,20
 504 392 504 392 483 382 c 128,-1,21
 462 372 462 372 438 368 c 1,22,-1
 438 362 l 1,23,24
 462 358 462 358 487.5 349.5 c 128,-1,25
 513 341 513 341 533.5 324 c 128,-1,26
 554 307 554 307 567 279.5 c 128,-1,27
 580 252 580 252 580 211 c 256,28,29
 580 170 580 170 566.5 135.5 c 128,-1,30
 553 101 553 101 529 75.5 c 128,-1,31
 505 50 505 50 472.5 35.5 c 128,-1,32
 440 21 440 21 402 21 c 1,33,-1
 402 -82 l 1,34,-1
 332 -82 l 1,35,-1
 332 21 l 1,0,-1
175 395 m 1,36,-1
 372 395 l 2,37,38
 422 395 422 395 445 417.5 c 128,-1,39
 468 440 468 440 468 485 c 2,40,-1
 468 513 l 2,41,42
 468 558 468 558 445 580.5 c 128,-1,43
 422 603 422 603 372 603 c 2,44,-1
 175 603 l 1,45,-1
 175 395 l 1,36,-1
175 95 m 1,46,-1
 376 95 l 2,47,48
 430 95 430 95 461.5 120 c 128,-1,49
 493 145 493 145 493 193 c 2,50,-1
 493 225 l 2,51,52
 493 273 493 273 461.5 298 c 128,-1,53
 430 323 430 323 376 323 c 2,54,-1
 175 323 l 1,55,-1
 175 95 l 1,46,-1
EndSplineSet
EndChar

StartChar: fi
Encoding: 64257 64257 176
Width: 567
GlyphClass: 3
Flags: W
LayerCount: 2
Fore
SplineSet
113 446 m 1,0,-1
 29 446 l 1,1,-1
 29 516 l 1,2,-1
 113 516 l 1,3,-1
 113 620 l 2,4,5
 113 674 113 674 141 707 c 128,-1,6
 169 740 169 740 226 740 c 2,7,-1
 304 740 l 1,8,-1
 304 670 l 1,9,-1
 193 670 l 1,10,-1
 193 516 l 1,11,-1
 482 516 l 1,12,-1
 482 0 l 1,13,-1
 402 0 l 1,14,-1
 402 446 l 1,15,-1
 193 446 l 1,16,-1
 193 0 l 1,17,-1
 113 0 l 1,18,-1
 113 446 l 1,0,-1
442 637 m 256,19,20
 416 637 416 637 404.5 649.5 c 128,-1,21
 393 662 393 662 393 682 c 2,22,-1
 393 695 l 2,23,24
 393 715 393 715 404.5 727.5 c 128,-1,25
 416 740 416 740 442 740 c 256,26,27
 468 740 468 740 479.5 727.5 c 128,-1,28
 491 715 491 715 491 695 c 2,29,-1
 491 682 l 2,30,31
 491 662 491 662 479.5 649.5 c 128,-1,32
 468 637 468 637 442 637 c 256,19,20
EndSplineSet
Ligature2: "'liga' Standard Ligatures lookup 29 subtable" f i
EndChar

StartChar: ae
Encoding: 230 230 190
Width: 864
GlyphClass: 2
Flags: W
LayerCount: 2
Fore
SplineSet
260 238 m 2,0,1
 191 236 191 236 159.5 215.5 c 128,-1,2
 128 195 128 195 128 157 c 2,3,-1
 128 136 l 2,4,5
 128 98 128 98 155.5 77 c 128,-1,6
 183 56 183 56 231 56 c 0,7,8
 260 56 260 56 284.5 63 c 128,-1,9
 309 70 309 70 327 83 c 128,-1,10
 345 96 345 96 355.5 113 c 128,-1,11
 366 130 366 130 366 150 c 2,12,-1
 366 238 l 1,13,-1
 260 238 l 2,0,1
731 298 m 1,14,-1
 731 309 l 2,15,16
 731 378 731 378 693.5 419.5 c 128,-1,17
 656 461 656 461 594 461 c 0,18,19
 561 461 561 461 534 449.5 c 128,-1,20
 507 438 507 438 487.5 417 c 128,-1,21
 468 396 468 396 457 367.5 c 128,-1,22
 446 339 446 339 446 305 c 2,23,-1
 446 298 l 1,24,-1
 731 298 l 1,14,-1
599 58 m 0,25,26
 698 58 698 58 741 146 c 1,27,-1
 798 106 l 1,28,29
 773 52 773 52 721.5 20 c 128,-1,30
 670 -12 670 -12 603 -12 c 0,31,32
 562 -12 562 -12 528.5 -0.5 c 128,-1,33
 495 11 495 11 470.5 28.5 c 128,-1,34
 446 46 446 46 431 66.5 c 128,-1,35
 416 87 416 87 412 104 c 1,36,-1
 406 104 l 1,37,38
 403 87 403 87 388.5 67 c 128,-1,39
 374 47 374 47 350 29.5 c 128,-1,40
 326 12 326 12 292 0 c 128,-1,41
 258 -12 258 -12 215 -12 c 0,42,43
 137 -12 137 -12 90.5 29.5 c 128,-1,44
 44 71 44 71 44 142 c 0,45,46
 44 217 44 217 99 257.5 c 128,-1,47
 154 298 154 298 264 298 c 2,48,-1
 366 298 l 1,49,-1
 366 346 l 2,50,51
 366 401 366 401 336 430 c 128,-1,52
 306 459 306 459 247 459 c 0,53,54
 197 459 197 459 166 439 c 128,-1,55
 135 419 135 419 113 383 c 1,56,-1
 65 427 l 1,57,58
 85 468 85 468 131.5 498 c 128,-1,59
 178 528 178 528 249 528 c 0,60,61
 293 528 293 528 322.5 515.5 c 128,-1,62
 352 503 352 503 370.5 485.5 c 128,-1,63
 389 468 389 468 398 448 c 128,-1,64
 407 428 407 428 411 413 c 1,65,-1
 417 413 l 1,66,67
 421 430 421 430 436 450 c 128,-1,68
 451 470 451 470 475 487.5 c 128,-1,69
 499 505 499 505 531.5 516.5 c 128,-1,70
 564 528 564 528 603 528 c 0,71,72
 652 528 652 528 691.5 509 c 128,-1,73
 731 490 731 490 759 456.5 c 128,-1,74
 787 423 787 423 802 377 c 128,-1,75
 817 331 817 331 817 276 c 2,76,-1
 817 238 l 1,77,-1
 446 238 l 1,78,-1
 446 214 l 2,79,80
 446 181 446 181 456.5 152.5 c 128,-1,81
 467 124 467 124 486.5 103 c 128,-1,82
 506 82 506 82 534.5 70 c 128,-1,83
 563 58 563 58 599 58 c 0,25,26
EndSplineSet
EndChar

StartChar: ccedilla
Encoding: 231 231 191
Width: 503
GlyphClass: 1
Flags: W
LayerCount: 2
Fore
SplineSet
277 528 m 0,0,1
 354 528 354 528 400.5 494.5 c 128,-1,2
 447 461 447 461 470 408 c 1,3,-1
 403 373 l 1,4,5
 389 413 389 413 357 435 c 128,-1,6
 325 457 325 457 277 457 c 0,7,8
 241 457 241 457 214 445.5 c 128,-1,9
 187 434 187 434 169 413.5 c 128,-1,10
 151 393 151 393 142 364.5 c 128,-1,11
 133 336 133 336 133 302 c 2,12,-1
 133 214 l 2,13,14
 133 146 133 146 169.5 102.5 c 128,-1,15
 206 59 206 59 277 59 c 0,16,17
 374 59 374 59 417 149 c 1,18,-1
 475 110 l 1,19,20
 452 59 452 59 408 26.5 c 128,-1,21
 364 -6 364 -6 299 -11 c 1,22,-1
 289 -61 l 1,23,-1
 292 -64 l 1,24,25
 311 -58 311 -58 331 -58 c 0,26,27
 360 -58 360 -58 379.5 -75 c 128,-1,28
 399 -92 399 -92 399 -124 c 0,29,30
 399 -145 399 -145 390 -161 c 128,-1,31
 381 -177 381 -177 365.5 -187 c 128,-1,32
 350 -197 350 -197 330 -202 c 128,-1,33
 310 -207 310 -207 288 -207 c 0,34,35
 247 -207 247 -207 223.5 -193.5 c 128,-1,36
 200 -180 200 -180 189 -166 c 1,37,-1
 227 -125 l 1,38,39
 236 -136 236 -136 251 -144.5 c 128,-1,40
 266 -153 266 -153 288 -153 c 0,41,42
 307 -153 307 -153 319.5 -145.5 c 128,-1,43
 332 -138 332 -138 332 -122 c 0,44,45
 332 -108 332 -108 319 -97.5 c 128,-1,46
 306 -87 306 -87 264 -81 c 2,47,-1
 236 -77 l 1,48,-1
 249 -11 l 1,49,50
 152 -1 152 -1 99.5 71 c 128,-1,51
 47 143 47 143 47 258 c 0,52,53
 47 320 47 320 62.5 370 c 128,-1,54
 78 420 78 420 107.5 455 c 128,-1,55
 137 490 137 490 180 509 c 128,-1,56
 223 528 223 528 277 528 c 0,0,1
EndSplineSet
EndChar

StartChar: eth
Encoding: 240 240 192
Width: 555
GlyphClass: 1
Flags: W
LayerCount: 2
Fore
SplineSet
418 712 m 1,0,-1
 340 656 l 1,1,2
 371 625 371 625 401 586 c 128,-1,3
 431 547 431 547 454 499 c 128,-1,4
 477 451 477 451 491 394 c 128,-1,5
 505 337 505 337 505 271 c 0,6,7
 505 201 505 201 488 148 c 128,-1,8
 471 95 471 95 440.5 59.5 c 128,-1,9
 410 24 410 24 368 6 c 128,-1,10
 326 -12 326 -12 276 -12 c 0,11,12
 223 -12 223 -12 180.5 7 c 128,-1,13
 138 26 138 26 108.5 60 c 128,-1,14
 79 94 79 94 63 141.5 c 128,-1,15
 47 189 47 189 47 246 c 256,16,17
 47 303 47 303 63 350.5 c 128,-1,18
 79 398 79 398 108.5 432 c 128,-1,19
 138 466 138 466 180.5 485 c 128,-1,20
 223 504 223 504 276 504 c 0,21,22
 325 504 325 504 358 478 c 128,-1,23
 391 452 391 452 406 406 c 1,24,-1
 410 408 l 1,25,26
 399 465 399 465 364.5 517.5 c 128,-1,27
 330 570 330 570 282 615 c 1,28,-1
 203 559 l 1,29,-1
 172 600 l 1,30,-1
 242 650 l 1,31,32
 210 676 210 676 177 698 c 128,-1,33
 144 720 144 720 111 740 c 1,34,-1
 234 740 l 1,35,36
 249 731 249 731 266 719 c 128,-1,37
 283 707 283 707 300 692 c 1,38,-1
 385 753 l 1,39,-1
 418 712 l 1,0,-1
276 57 m 256,40,41
 341 57 341 57 380 99 c 128,-1,42
 419 141 419 141 419 213 c 2,43,-1
 419 279 l 2,44,45
 419 351 419 351 380 393 c 128,-1,46
 341 435 341 435 276 435 c 256,47,48
 211 435 211 435 172 393 c 128,-1,49
 133 351 133 351 133 279 c 2,50,-1
 133 213 l 2,51,52
 133 141 133 141 172 99 c 128,-1,53
 211 57 211 57 276 57 c 256,40,41
EndSplineSet
EndChar

StartChar: dotlessi
Encoding: 305 305 197
Width: 250
GlyphClass: 2
Flags: W
LayerCount: 2
Fore
SplineSet
85 0 m 1,0,-1
 85 516 l 1,1,-1
 165 516 l 1,2,-1
 165 0 l 1,3,-1
 85 0 l 1,0,-1
EndSplineSet
EndChar

StartChar: uni0237
Encoding: 567 567 203
Width: 250
GlyphClass: 2
Flags: W
LayerCount: 2
Fore
SplineSet
1 -130 m 1,0,-1
 85 -130 l 1,1,-1
 85 516 l 1,2,-1
 165 516 l 1,3,-1
 165 -80 l 2,4,5
 165 -134 165 -134 138 -167 c 128,-1,6
 111 -200 111 -200 53 -200 c 2,7,-1
 1 -200 l 1,8,-1
 1 -130 l 1,0,-1
EndSplineSet
EndChar

StartChar: lslash
Encoding: 322 322 206
Width: 278
GlyphClass: 1
Flags: W
LayerCount: 2
Fore
SplineSet
244 0 m 1,0,-1
 173 0 l 2,1,2
 131 0 131 0 109.5 23.5 c 128,-1,3
 88 47 88 47 88 83 c 2,4,-1
 88 325 l 1,5,-1
 18 302 l 1,6,-1
 18 370 l 1,7,-1
 88 393 l 1,8,-1
 88 740 l 1,9,-1
 168 740 l 1,10,-1
 168 420 l 1,11,-1
 271 454 l 1,12,-1
 271 386 l 1,13,-1
 168 352 l 1,14,-1
 168 70 l 1,15,-1
 244 70 l 1,16,-1
 244 0 l 1,0,-1
EndSplineSet
EndChar

StartChar: oslash
Encoding: 248 248 212
Width: 568
GlyphClass: 2
Flags: W
LayerCount: 2
Fore
SplineSet
35 -6 m 1,0,-1
 102 78 l 1,1,2
 51 149 51 149 51 258 c 0,3,4
 51 319 51 319 68 369 c 128,-1,5
 85 419 85 419 115.5 454.5 c 128,-1,6
 146 490 146 490 189 509 c 128,-1,7
 232 528 232 528 284 528 c 0,8,9
 326 528 326 528 361.5 515 c 128,-1,10
 397 502 397 502 426 479 c 1,11,-1
 488 556 l 1,12,-1
 533 522 l 1,13,-1
 466 437 l 1,14,15
 490 403 490 403 503.5 357.5 c 128,-1,16
 517 312 517 312 517 258 c 0,17,18
 517 196 517 196 500 146.5 c 128,-1,19
 483 97 483 97 452 61.5 c 128,-1,20
 421 26 421 26 378.5 7 c 128,-1,21
 336 -12 336 -12 284 -12 c 0,22,23
 201 -12 201 -12 142 36 c 1,24,-1
 80 -40 l 1,25,-1
 35 -6 l 1,0,-1
284 59 m 0,26,27
 349 59 349 59 390 99 c 128,-1,28
 431 139 431 139 431 221 c 2,29,-1
 431 295 l 2,30,31
 431 319 431 319 427 339 c 128,-1,32
 423 359 423 359 416 376 c 1,33,-1
 186 92 l 1,34,35
 223 59 223 59 284 59 c 0,26,27
137 221 m 2,36,37
 137 173 137 173 152 139 c 1,38,-1
 382 424 l 1,39,40
 343 457 343 457 284 457 c 0,41,42
 219 457 219 457 178 417 c 128,-1,43
 137 377 137 377 137 295 c 2,44,-1
 137 221 l 2,36,37
EndSplineSet
EndChar

StartChar: oe
Encoding: 339 339 214
Width: 931
GlyphClass: 1
Flags: W
LayerCount: 2
Fore
SplineSet
280 59 m 256,0,1
 345 59 345 59 386 99 c 128,-1,2
 427 139 427 139 427 221 c 2,3,-1
 427 295 l 2,4,5
 427 377 427 377 386 417 c 128,-1,6
 345 457 345 457 280 457 c 256,7,8
 215 457 215 457 174 417 c 128,-1,9
 133 377 133 377 133 295 c 2,10,-1
 133 221 l 2,11,12
 133 139 133 139 174 99 c 128,-1,13
 215 59 215 59 280 59 c 256,0,1
798 298 m 1,14,-1
 798 309 l 2,15,16
 798 378 798 378 760.5 419.5 c 128,-1,17
 723 461 723 461 661 461 c 0,18,19
 628 461 628 461 601 449.5 c 128,-1,20
 574 438 574 438 554.5 417 c 128,-1,21
 535 396 535 396 524 367.5 c 128,-1,22
 513 339 513 339 513 305 c 2,23,-1
 513 298 l 1,24,-1
 798 298 l 1,14,-1
667 -12 m 0,25,26
 629 -12 629 -12 598.5 -3 c 128,-1,27
 568 6 568 6 544 22 c 128,-1,28
 520 38 520 38 502 59 c 128,-1,29
 484 80 484 80 473 103 c 1,30,-1
 468 103 l 1,31,32
 445 53 445 53 395 20.5 c 128,-1,33
 345 -12 345 -12 280 -12 c 0,34,35
 228 -12 228 -12 185 7 c 128,-1,36
 142 26 142 26 111.5 61.5 c 128,-1,37
 81 97 81 97 64 146.5 c 128,-1,38
 47 196 47 196 47 258 c 0,39,40
 47 319 47 319 64 369 c 128,-1,41
 81 419 81 419 111.5 454.5 c 128,-1,42
 142 490 142 490 185 509 c 128,-1,43
 228 528 228 528 280 528 c 0,44,45
 346 528 346 528 395 498.5 c 128,-1,46
 444 469 444 469 468 413 c 1,47,-1
 474 413 l 1,48,49
 496 466 496 466 544 497 c 128,-1,50
 592 528 592 528 661 528 c 0,51,52
 712 528 712 528 753 509.5 c 128,-1,53
 794 491 794 491 823.5 457.5 c 128,-1,54
 853 424 853 424 868.5 377.5 c 128,-1,55
 884 331 884 331 884 276 c 2,56,-1
 884 238 l 1,57,-1
 513 238 l 1,58,-1
 513 214 l 2,59,60
 513 181 513 181 523.5 152.5 c 128,-1,61
 534 124 534 124 553.5 103 c 128,-1,62
 573 82 573 82 601.5 70 c 128,-1,63
 630 58 630 58 666 58 c 0,64,65
 716 58 716 58 752 81 c 128,-1,66
 788 104 788 104 809 147 c 1,67,-1
 865 106 l 1,68,69
 840 53 840 53 789.5 20.5 c 128,-1,70
 739 -12 739 -12 667 -12 c 0,25,26
EndSplineSet
EndChar

StartChar: germandbls
Encoding: 223 223 216
Width: 640
GlyphClass: 1
Flags: W
LayerCount: 2
Fore
SplineSet
613 149 m 0,0,1
 613 74 613 74 565 31 c 128,-1,2
 517 -12 517 -12 432 -12 c 0,3,4
 372 -12 372 -12 329 10 c 128,-1,5
 286 32 286 32 255 72 c 1,6,-1
 309 120 l 1,7,8
 361 56 361 56 438 56 c 0,9,10
 485 56 485 56 510.5 78 c 128,-1,11
 536 100 536 100 536 140 c 0,12,13
 536 170 536 170 522 191 c 128,-1,14
 508 212 508 212 466 221 c 2,15,-1
 435 228 l 2,16,17
 404 235 404 235 377.5 245.5 c 128,-1,18
 351 256 351 256 331.5 273 c 128,-1,19
 312 290 312 290 300.5 315 c 128,-1,20
 289 340 289 340 289 376 c 0,21,22
 289 445 289 445 337 482.5 c 128,-1,23
 385 520 385 520 467 522 c 1,24,-1
 467 527 l 2,25,26
 467 607 467 607 433.5 645.5 c 128,-1,27
 400 684 400 684 329 684 c 256,28,29
 258 684 258 684 225.5 645.5 c 128,-1,30
 193 607 193 607 193 527 c 2,31,-1
 193 0 l 1,32,-1
 113 0 l 1,33,-1
 113 446 l 1,34,-1
 29 446 l 1,35,-1
 29 516 l 1,36,-1
 113 516 l 1,37,-1
 113 521 l 2,38,39
 113 573 113 573 127.5 616 c 128,-1,40
 142 659 142 659 169.5 689 c 128,-1,41
 197 719 197 719 237 735.5 c 128,-1,42
 277 752 277 752 329 752 c 0,43,44
 380 752 380 752 420.5 735.5 c 128,-1,45
 461 719 461 719 488.5 689 c 128,-1,46
 516 659 516 659 530.5 616 c 128,-1,47
 545 573 545 573 545 521 c 2,48,-1
 545 460 l 1,49,-1
 498 460 l 2,50,51
 435 460 435 460 400.5 441.5 c 128,-1,52
 366 423 366 423 366 380 c 0,53,54
 366 342 366 342 386.5 325 c 128,-1,55
 407 308 407 308 445 299 c 2,56,-1
 475 292 l 2,57,58
 549 275 549 275 581 241 c 128,-1,59
 613 207 613 207 613 149 c 0,0,1
EndSplineSet
Substitution2: "'salt' Stylistic Alternatives lookup 28 subtable" germandbls.alt01
Substitution2: "'ss05' Style Set 5 lookup 27 subtable" germandbls.alt01
Substitution2: "'aalt' Access All Alternates lookup 0 subtable" germandbls.alt01
EndChar

StartChar: germandbls.alt01
Encoding: 65548 -1 217
Width: 558
GlyphClass: 1
Flags: W
LayerCount: 2
Fore
SplineSet
85 0 m 1,0,-1
 85 621 l 2,1,2
 85 674 85 674 112 707 c 128,-1,3
 139 740 139 740 196 740 c 2,4,-1
 327 740 l 1,5,-1
 327 670 l 1,6,-1
 163 670 l 1,7,-1
 163 516 l 1,8,-1
 503 516 l 1,9,-1
 503 451 l 1,10,-1
 329 216 l 1,11,12
 427 208 427 208 482.5 159.5 c 128,-1,13
 538 111 538 111 538 18 c 0,14,15
 538 -36 538 -36 520.5 -77 c 128,-1,16
 503 -118 503 -118 470 -145 c 128,-1,17
 437 -172 437 -172 390.5 -186 c 128,-1,18
 344 -200 344 -200 286 -200 c 2,19,-1
 224 -200 l 1,20,-1
 224 -130 l 1,21,-1
 286 -130 l 2,22,23
 372 -131 372 -131 412 -97.5 c 128,-1,24
 452 -64 452 -64 452 11 c 2,25,-1
 452 20 l 2,26,27
 452 91 452 91 409 121 c 128,-1,28
 366 151 366 151 270 151 c 2,29,-1
 254 151 l 1,30,-1
 254 222 l 1,31,-1
 418 446 l 1,32,-1
 163 446 l 1,33,-1
 163 0 l 1,34,-1
 85 0 l 1,0,-1
EndSplineSet
EndChar

StartChar: thorn
Encoding: 254 254 218
Width: 580
GlyphClass: 1
Flags: W
LayerCount: 2
Fore
SplineSet
85 740 m 1,0,-1
 165 740 l 1,1,-1
 165 432 l 1,2,-1
 169 432 l 1,3,4
 189 481 189 481 227.5 504.5 c 128,-1,5
 266 528 266 528 320 528 c 0,6,7
 368 528 368 528 407 509 c 128,-1,8
 446 490 446 490 473.5 455 c 128,-1,9
 501 420 501 420 515.5 370 c 128,-1,10
 530 320 530 320 530 258 c 256,11,12
 530 196 530 196 515.5 146 c 128,-1,13
 501 96 501 96 473.5 61 c 128,-1,14
 446 26 446 26 407 7 c 128,-1,15
 368 -12 368 -12 320 -12 c 0,16,17
 215 -12 215 -12 169 84 c 1,18,-1
 165 84 l 1,19,-1
 165 -200 l 1,20,-1
 85 -200 l 1,21,-1
 85 740 l 1,0,-1
298 60 m 0,22,23
 366 60 366 60 405 102.5 c 128,-1,24
 444 145 444 145 444 214 c 2,25,-1
 444 302 l 2,26,27
 444 371 444 371 405 413.5 c 128,-1,28
 366 456 366 456 298 456 c 0,29,30
 271 456 271 456 246.5 448.5 c 128,-1,31
 222 441 222 441 204 428 c 128,-1,32
 186 415 186 415 175.5 396.5 c 128,-1,33
 165 378 165 378 165 357 c 2,34,-1
 165 165 l 2,35,36
 165 140 165 140 175.5 120.5 c 128,-1,37
 186 101 186 101 204 87.5 c 128,-1,38
 222 74 222 74 246.5 67 c 128,-1,39
 271 60 271 60 298 60 c 0,22,23
EndSplineSet
EndChar

StartChar: AE
Encoding: 198 198 232
Width: 907
GlyphClass: 2
Flags: W
LayerCount: 2
Fore
SplineSet
417 205 m 1,0,-1
 192 205 l 1,1,-1
 90 0 l 1,2,-1
 4 0 l 1,3,-1
 361 698 l 1,4,-1
 843 698 l 1,5,-1
 843 624 l 1,6,-1
 500 624 l 1,7,-1
 500 390 l 1,8,-1
 823 390 l 1,9,-1
 823 316 l 1,10,-1
 500 316 l 1,11,-1
 500 74 l 1,12,-1
 843 74 l 1,13,-1
 843 0 l 1,14,-1
 417 0 l 1,15,-1
 417 205 l 1,0,-1
404 624 m 1,16,-1
 227 279 l 1,17,-1
 417 279 l 1,18,-1
 417 624 l 1,19,-1
 404 624 l 1,16,-1
EndSplineSet
EndChar

StartChar: Ccedilla
Encoding: 199 199 233
Width: 621
GlyphClass: 1
Flags: W
LayerCount: 2
Fore
SplineSet
339 635 m 0,0,1
 294 635 294 635 258.5 618 c 128,-1,2
 223 601 223 601 198.5 569.5 c 128,-1,3
 174 538 174 538 161 494.5 c 128,-1,4
 148 451 148 451 148 397 c 2,5,-1
 148 293 l 2,6,7
 148 185 148 185 198 124 c 128,-1,8
 248 63 248 63 339 63 c 0,9,10
 406 63 406 63 451 97.5 c 128,-1,11
 496 132 496 132 517 189 c 1,12,-1
 584 147 l 1,13,14
 553 78 553 78 496.5 36 c 128,-1,15
 440 -6 440 -6 361 -11 c 1,16,-1
 351 -61 l 1,17,-1
 354 -64 l 1,18,19
 373 -58 373 -58 393 -58 c 0,20,21
 422 -58 422 -58 441.5 -75 c 128,-1,22
 461 -92 461 -92 461 -124 c 0,23,24
 461 -145 461 -145 452 -161 c 128,-1,25
 443 -177 443 -177 427.5 -187 c 128,-1,26
 412 -197 412 -197 392 -202 c 128,-1,27
 372 -207 372 -207 350 -207 c 0,28,29
 309 -207 309 -207 285.5 -193.5 c 128,-1,30
 262 -180 262 -180 251 -166 c 1,31,-1
 289 -125 l 1,32,33
 298 -136 298 -136 313 -144.5 c 128,-1,34
 328 -153 328 -153 350 -153 c 0,35,36
 369 -153 369 -153 381.5 -145.5 c 128,-1,37
 394 -138 394 -138 394 -122 c 0,38,39
 394 -108 394 -108 381 -97.5 c 128,-1,40
 368 -87 368 -87 326 -81 c 2,41,-1
 298 -77 l 1,42,-1
 311 -11 l 1,43,44
 191 -2 191 -2 124.5 88 c 128,-1,45
 58 178 58 178 58 345 c 0,46,47
 58 521 58 521 132 615.5 c 128,-1,48
 206 710 206 710 339 710 c 0,49,50
 427 710 427 710 486.5 670 c 128,-1,51
 546 630 546 630 579 557 c 1,52,-1
 511 516 l 1,53,54
 490 570 490 570 447 602.5 c 128,-1,55
 404 635 404 635 339 635 c 0,0,1
EndSplineSet
EndChar

StartChar: Dcroat
Encoding: 272 272 234
Width: 674
GlyphClass: 1
Flags: W
LayerCount: 2
Fore
SplineSet
96 337 m 1,0,-1
 17 337 l 1,1,-1
 17 401 l 1,2,-1
 96 401 l 1,3,-1
 96 698 l 1,4,-1
 330 698 l 2,5,6
 395 698 395 698 448 676 c 128,-1,7
 501 654 501 654 538.5 610.5 c 128,-1,8
 576 567 576 567 596 501.5 c 128,-1,9
 616 436 616 436 616 349 c 256,10,11
 616 262 616 262 596 196.5 c 128,-1,12
 576 131 576 131 538.5 87.5 c 128,-1,13
 501 44 501 44 448 22 c 128,-1,14
 395 0 395 0 330 0 c 2,15,-1
 96 0 l 1,16,-1
 96 337 l 1,0,-1
330 74 m 2,17,18
 373 74 373 74 409 88.5 c 128,-1,19
 445 103 445 103 471 131 c 128,-1,20
 497 159 497 159 511.5 199.5 c 128,-1,21
 526 240 526 240 526 292 c 2,22,-1
 526 406 l 2,23,24
 526 458 526 458 511.5 498.5 c 128,-1,25
 497 539 497 539 471 567 c 128,-1,26
 445 595 445 595 409 609.5 c 128,-1,27
 373 624 373 624 330 624 c 2,28,-1
 180 624 l 1,29,-1
 180 401 l 1,30,-1
 317 401 l 1,31,-1
 317 337 l 1,32,-1
 180 337 l 1,33,-1
 180 74 l 1,34,-1
 330 74 l 2,17,18
EndSplineSet
EndChar

StartChar: IJ
Encoding: 306 306 244
Width: 645
GlyphClass: 1
Flags: W
LayerCount: 2
Fore
SplineSet
557 698 m 1,0,-1
 557 225 l 2,1,2
 557 114 557 114 494.5 51 c 128,-1,3
 432 -12 432 -12 320 -12 c 0,4,5
 270 -12 270 -12 231 0.5 c 128,-1,6
 192 13 192 13 164 35.5 c 128,-1,7
 136 58 136 58 118 88 c 128,-1,8
 100 118 100 118 93 154 c 1,9,-1
 169 172 l 1,10,11
 175 149 175 149 186.5 129 c 128,-1,12
 198 109 198 109 216.5 94.5 c 128,-1,13
 235 80 235 80 261.5 71.5 c 128,-1,14
 288 63 288 63 323 63 c 0,15,16
 393 63 393 63 433 98 c 128,-1,17
 473 133 473 133 473 208 c 2,18,-1
 473 623 l 1,19,-1
 321 623 l 1,20,-1
 321 698 l 1,21,-1
 557 698 l 1,0,-1
88 698 m 1,22,-1
 172 698 l 1,23,-1
 172 290 l 1,24,-1
 88 290 l 1,25,-1
 88 698 l 1,22,-1
EndSplineSet
EndChar

StartChar: Lslash
Encoding: 321 321 245
Width: 508
GlyphClass: 1
Flags: W
LayerCount: 2
Fore
SplineSet
477 0 m 1,0,-1
 96 0 l 1,1,-1
 96 271 l 1,2,-1
 -7 237 l 1,3,-1
 -7 304 l 1,4,-1
 96 339 l 1,5,-1
 96 698 l 1,6,-1
 180 698 l 1,7,-1
 180 367 l 1,8,-1
 361 428 l 1,9,-1
 361 357 l 1,10,-1
 180 298 l 1,11,-1
 180 75 l 1,12,-1
 477 75 l 1,13,-1
 477 0 l 1,0,-1
EndSplineSet
EndChar

StartChar: Oslash
Encoding: 216 216 251
Width: 708
GlyphClass: 2
Flags: W
LayerCount: 2
Fore
SplineSet
354 -12 m 0,0,1
 252 -12 252 -12 181 41 c 1,2,-1
 121 -45 l 1,3,-1
 64 -8 l 1,4,-1
 132 89 l 1,5,6
 96 135 96 135 77 199.5 c 128,-1,7
 58 264 58 264 58 349 c 0,8,9
 58 437 58 437 79 504 c 128,-1,10
 100 571 100 571 138.5 617 c 128,-1,11
 177 663 177 663 231.5 686.5 c 128,-1,12
 286 710 286 710 354 710 c 0,13,14
 456 710 456 710 527 657 c 1,15,-1
 587 743 l 1,16,-1
 644 706 l 1,17,-1
 576 609 l 1,18,19
 612 563 612 563 631 498.5 c 128,-1,20
 650 434 650 434 650 349 c 0,21,22
 650 261 650 261 629 193.5 c 128,-1,23
 608 126 608 126 569.5 80.5 c 128,-1,24
 531 35 531 35 476 11.5 c 128,-1,25
 421 -12 421 -12 354 -12 c 0,0,1
148 291 m 2,26,27
 148 253 148 253 156.5 220 c 128,-1,28
 165 187 165 187 180 160 c 1,29,-1
 482 592 l 1,30,31
 430 635 430 635 354 635 c 0,32,33
 309 635 309 635 271 619 c 128,-1,34
 233 603 233 603 205.5 573 c 128,-1,35
 178 543 178 543 163 501 c 128,-1,36
 148 459 148 459 148 407 c 2,37,-1
 148 291 l 2,26,27
560 407 m 2,38,39
 560 445 560 445 551.5 478 c 128,-1,40
 543 511 543 511 528 538 c 1,41,-1
 226 106 l 1,42,43
 278 63 278 63 354 63 c 0,44,45
 399 63 399 63 437 79 c 128,-1,46
 475 95 475 95 502.5 125 c 128,-1,47
 530 155 530 155 545 197 c 128,-1,48
 560 239 560 239 560 291 c 2,49,-1
 560 407 l 2,38,39
EndSplineSet
EndChar

StartChar: OE
Encoding: 338 338 253
Width: 985
GlyphClass: 1
Flags: W
LayerCount: 2
Fore
SplineSet
495 0 m 1,0,1
 467 -5 467 -5 431.5 -8.5 c 128,-1,2
 396 -12 396 -12 367 -12 c 0,3,4
 295 -12 295 -12 237.5 11.5 c 128,-1,5
 180 35 180 35 140 80.5 c 128,-1,6
 100 126 100 126 79 193.5 c 128,-1,7
 58 261 58 261 58 349 c 256,8,9
 58 437 58 437 79 504.5 c 128,-1,10
 100 572 100 572 140 617.5 c 128,-1,11
 180 663 180 663 237.5 686.5 c 128,-1,12
 295 710 295 710 367 710 c 0,13,14
 396 710 396 710 431.5 706.5 c 128,-1,15
 467 703 467 703 495 698 c 1,16,-1
 921 698 l 1,17,-1
 921 624 l 1,18,-1
 578 624 l 1,19,-1
 578 390 l 1,20,-1
 901 390 l 1,21,-1
 901 316 l 1,22,-1
 578 316 l 1,23,-1
 578 74 l 1,24,-1
 921 74 l 1,25,-1
 921 0 l 1,26,-1
 495 0 l 1,0,1
377 63 m 0,27,28
 405 63 405 63 436 67.5 c 128,-1,29
 467 72 467 72 494 81 c 1,30,-1
 494 617 l 1,31,32
 467 626 467 626 436 630.5 c 128,-1,33
 405 635 405 635 377 635 c 0,34,35
 318 635 318 635 275 619 c 128,-1,36
 232 603 232 603 204 573 c 128,-1,37
 176 543 176 543 162 501 c 128,-1,38
 148 459 148 459 148 407 c 2,39,-1
 148 291 l 2,40,41
 148 239 148 239 162 197 c 128,-1,42
 176 155 176 155 204 125 c 128,-1,43
 232 95 232 95 275 79 c 128,-1,44
 318 63 318 63 377 63 c 0,27,28
EndSplineSet
EndChar

StartChar: uni1E9E
Encoding: 7838 7838 255
Width: 700
GlyphClass: 1
Flags: W
LayerCount: 2
Fore
SplineSet
648 196 m 0,0,1
 648 97 648 97 588.5 42.5 c 128,-1,2
 529 -12 529 -12 428 -12 c 0,3,4
 361 -12 361 -12 312.5 10.5 c 128,-1,5
 264 33 264 33 229 81 c 1,6,-1
 287 130 l 1,7,8
 341 59 341 59 428 59 c 0,9,10
 491 59 491 59 524.5 92 c 128,-1,11
 558 125 558 125 558 181 c 2,12,-1
 558 211 l 2,13,14
 558 267 558 267 524.5 299.5 c 128,-1,15
 491 332 491 332 428 332 c 2,16,-1
 334 332 l 1,17,-1
 334 409 l 1,18,-1
 519 624 l 1,19,-1
 177 624 l 1,20,-1
 177 0 l 1,21,-1
 93 0 l 1,22,-1
 93 698 l 1,23,-1
 604 698 l 1,24,-1
 604 616 l 1,25,-1
 423 405 l 1,26,-1
 423 401 l 1,27,28
 528 399 528 399 588 346 c 128,-1,29
 648 293 648 293 648 196 c 0,0,1
EndSplineSet
EndChar

StartChar: Thorn
Encoding: 222 222 256
Width: 606
GlyphClass: 1
Flags: W
LayerCount: 2
Fore
SplineSet
93 0 m 1,0,-1
 93 698 l 1,1,-1
 177 698 l 1,2,-1
 177 554 l 1,3,-1
 371 554 l 2,4,5
 465 554 465 554 515.5 500 c 128,-1,6
 566 446 566 446 566 354 c 256,7,8
 566 262 566 262 515.5 208 c 128,-1,9
 465 154 465 154 371 154 c 2,10,-1
 177 154 l 1,11,-1
 177 0 l 1,12,-1
 93 0 l 1,0,-1
177 229 m 1,13,-1
 371 229 l 2,14,15
 421 229 421 229 448.5 255 c 128,-1,16
 476 281 476 281 476 329 c 2,17,-1
 476 379 l 2,18,19
 476 427 476 427 448.5 453 c 128,-1,20
 421 479 421 479 371 479 c 2,21,-1
 177 479 l 1,22,-1
 177 229 l 1,13,-1
EndSplineSet
EndChar

StartChar: mu
Encoding: 181 181 264
Width: 573
GlyphClass: 1
Flags: W
LayerCount: 2
Fore
SplineSet
85 -200 m 1,0,-1
 85 516 l 1,1,-1
 165 516 l 1,2,-1
 165 199 l 2,3,4
 165 130 165 130 195 95 c 128,-1,5
 225 60 225 60 282 60 c 0,6,7
 306 60 306 60 328.5 66 c 128,-1,8
 351 72 351 72 369 84.5 c 128,-1,9
 387 97 387 97 397.5 115.5 c 128,-1,10
 408 134 408 134 408 160 c 2,11,-1
 408 516 l 1,12,-1
 488 516 l 1,13,-1
 488 0 l 1,14,-1
 408 0 l 1,15,-1
 408 84 l 1,16,-1
 404 84 l 1,17,18
 396 66 396 66 384.5 48.5 c 128,-1,19
 373 31 373 31 356 17.5 c 128,-1,20
 339 4 339 4 316 -4 c 128,-1,21
 293 -12 293 -12 262 -12 c 0,22,23
 189 -12 189 -12 161 40 c 1,24,-1
 158 40 l 1,25,-1
 165 -45 l 1,26,-1
 165 -200 l 1,27,-1
 85 -200 l 1,0,-1
EndSplineSet
EndChar

StartChar: Delta
Encoding: 8710 8710 265
Width: 643
GlyphClass: 1
Flags: W
LayerCount: 2
Fore
SplineSet
44 75 m 1,0,-1
 268 698 l 1,1,-1
 375 698 l 1,2,-1
 599 75 l 1,3,-1
 599 0 l 1,4,-1
 44 0 l 1,5,-1
 44 75 l 1,0,-1
322 620 m 1,6,-1
 317 620 l 1,7,-1
 129 74 l 1,8,-1
 510 74 l 1,9,-1
 322 620 l 1,6,-1
EndSplineSet
EndChar

StartChar: product
Encoding: 8719 8719 266
Width: 706
GlyphClass: 1
Flags: W
LayerCount: 2
Fore
SplineSet
128 -200 m 1,0,-1
 128 624 l 1,1,-1
 48 624 l 1,2,-1
 48 698 l 1,3,-1
 658 698 l 1,4,-1
 658 624 l 1,5,-1
 578 624 l 1,6,-1
 578 -200 l 1,7,-1
 494 -200 l 1,8,-1
 494 624 l 1,9,-1
 212 624 l 1,10,-1
 212 -200 l 1,11,-1
 128 -200 l 1,0,-1
EndSplineSet
EndChar

StartChar: summation
Encoding: 8721 8721 267
Width: 504
GlyphClass: 1
Flags: W
LayerCount: 2
Fore
SplineSet
468 -200 m 1,0,-1
 18 -200 l 1,1,-1
 18 -125 l 1,2,-1
 279 247 l 1,3,-1
 279 251 l 1,4,-1
 18 623 l 1,5,-1
 18 698 l 1,6,-1
 468 698 l 1,7,-1
 468 624 l 1,8,-1
 109 624 l 1,9,-1
 353 276 l 1,10,-1
 353 222 l 1,11,-1
 109 -126 l 1,12,-1
 468 -126 l 1,13,-1
 468 -200 l 1,0,-1
EndSplineSet
EndChar

StartChar: Omega
Encoding: 8486 8486 268
Width: 716
GlyphClass: 1
Flags: W
LayerCount: 2
Fore
SplineSet
58 74 m 1,0,-1
 217 74 l 1,1,-1
 217 84 l 1,2,3
 186 101 186 101 158 128 c 128,-1,4
 130 155 130 155 108.5 192 c 128,-1,5
 87 229 87 229 74.5 275.5 c 128,-1,6
 62 322 62 322 62 378 c 0,7,8
 62 439 62 439 79.5 499 c 128,-1,9
 97 559 97 559 133 605.5 c 128,-1,10
 169 652 169 652 225 681 c 128,-1,11
 281 710 281 710 358 710 c 256,12,13
 435 710 435 710 491 681 c 128,-1,14
 547 652 547 652 583 605.5 c 128,-1,15
 619 559 619 559 636.5 499 c 128,-1,16
 654 439 654 439 654 378 c 0,17,18
 654 322 654 322 641.5 275.5 c 128,-1,19
 629 229 629 229 607.5 192 c 128,-1,20
 586 155 586 155 558 128 c 128,-1,21
 530 101 530 101 499 84 c 1,22,-1
 499 74 l 1,23,-1
 658 74 l 1,24,-1
 658 0 l 1,25,-1
 428 0 l 1,26,-1
 428 111 l 1,27,28
 452 120 452 120 476 142.5 c 128,-1,29
 500 165 500 165 519.5 196 c 128,-1,30
 539 227 539 227 551.5 264.5 c 128,-1,31
 564 302 564 302 564 341 c 2,32,-1
 564 431 l 2,33,34
 564 467 564 467 550 503.5 c 128,-1,35
 536 540 536 540 509.5 569.5 c 128,-1,36
 483 599 483 599 445 617 c 128,-1,37
 407 635 407 635 358 635 c 256,38,39
 309 635 309 635 271 617 c 128,-1,40
 233 599 233 599 206.5 569.5 c 128,-1,41
 180 540 180 540 166 503.5 c 128,-1,42
 152 467 152 467 152 431 c 2,43,-1
 152 341 l 2,44,45
 152 302 152 302 164 264.5 c 128,-1,46
 176 227 176 227 195.5 196 c 128,-1,47
 215 165 215 165 239.5 142.5 c 128,-1,48
 264 120 264 120 288 111 c 1,49,-1
 288 0 l 1,50,-1
 58 0 l 1,51,-1
 58 74 l 1,0,-1
EndSplineSet
EndChar

StartChar: pi
Encoding: 960 960 269
Width: 622
GlyphClass: 1
Flags: W
LayerCount: 2
Fore
SplineSet
487 70 m 1,0,-1
 551 70 l 1,1,-1
 551 0 l 1,2,-1
 492 0 l 2,3,4
 450 0 450 0 428.5 23.5 c 128,-1,5
 407 47 407 47 407 82 c 2,6,-1
 407 446 l 1,7,-1
 199 446 l 1,8,-1
 199 0 l 1,9,-1
 119 0 l 1,10,-1
 119 446 l 1,11,-1
 24 446 l 1,12,-1
 24 516 l 1,13,-1
 590 516 l 1,14,-1
 590 446 l 1,15,-1
 487 446 l 1,16,-1
 487 70 l 1,0,-1
EndSplineSet
EndChar

StartChar: uni0E01
Encoding: 3585 3585 270
Width: 611
GlyphClass: 2
Flags: W
AnchorPoint: "Anchor-6" 531 600 basechar 0
AnchorPoint: "Anchor-5" 293 558 basechar 0
AnchorPoint: "Anchor-4" 531 0 basechar 0
LayerCount: 2
Fore
SplineSet
134 312 m 1,0,-1
 49 348 l 1,1,2
 52 394 52 394 71.5 432.5 c 128,-1,3
 91 471 91 471 123 499 c 128,-1,4
 155 527 155 527 197.5 542.5 c 128,-1,5
 240 558 240 558 290 558 c 0,6,7
 407 558 407 558 469 499.5 c 128,-1,8
 531 441 531 441 531 341 c 2,9,-1
 531 0 l 1,10,-1
 451 0 l 1,11,-1
 451 331 l 2,12,13
 451 409 451 409 407.5 449 c 128,-1,14
 364 489 364 489 293 489 c 0,15,16
 262 489 262 489 234.5 481.5 c 128,-1,17
 207 474 207 474 185 460.5 c 128,-1,18
 163 447 163 447 147 427.5 c 128,-1,19
 131 408 131 408 124 384 c 1,20,-1
 174 364 l 2,21,22
 195 356 195 356 204.5 343.5 c 128,-1,23
 214 331 214 331 214 309 c 2,24,-1
 214 0 l 1,25,-1
 134 0 l 1,26,-1
 134 312 l 1,0,-1
EndSplineSet
EndChar

StartChar: uni0E20
Encoding: 3616 3616 271
Width: 609
GlyphClass: 2
Flags: W
AnchorPoint: "Anchor-6" 529 600 basechar 0
AnchorPoint: "Anchor-5" 295 558 basechar 0
AnchorPoint: "Anchor-4" 529 0 basechar 0
LayerCount: 2
Fore
SplineSet
74 70 m 1,0,-1
 138 70 l 1,1,-1
 138 312 l 1,2,-1
 53 348 l 1,3,4
 56 394 56 394 75.5 432.5 c 128,-1,5
 95 471 95 471 126.5 499 c 128,-1,6
 158 527 158 527 200.5 542.5 c 128,-1,7
 243 558 243 558 293 558 c 0,8,9
 408 558 408 558 468.5 499.5 c 128,-1,10
 529 441 529 441 529 341 c 2,11,-1
 529 0 l 1,12,-1
 449 0 l 1,13,-1
 449 331 l 2,14,15
 449 409 449 409 406.5 449 c 128,-1,16
 364 489 364 489 295 489 c 0,17,18
 234 489 234 489 188 461 c 128,-1,19
 142 433 142 433 128 384 c 1,20,-1
 177 364 l 2,21,22
 199 355 199 355 208.5 343 c 128,-1,23
 218 331 218 331 218 309 c 2,24,-1
 218 84 l 2,25,26
 218 46 218 46 197 23 c 128,-1,27
 176 0 176 0 134 0 c 2,28,-1
 74 0 l 1,29,-1
 74 70 l 1,0,-1
EndSplineSet
EndChar

StartChar: uni0E0E
Encoding: 3598 3598 272
Width: 609
GlyphClass: 2
Flags: W
AnchorPoint: "Anchor-6" 529 600 basechar 0
AnchorPoint: "Anchor-5" 295 558 basechar 0
AnchorPoint: "Anchor-4" 0 0 basechar 0
LayerCount: 2
Fore
SplineSet
122 -188 m 1,0,1
 154 -143 154 -143 198 -115 c 128,-1,2
 242 -87 242 -87 309 -87 c 0,3,4
 355 -87 355 -87 391.5 -106.5 c 128,-1,5
 428 -126 428 -126 444 -161 c 1,6,-1
 449 -161 l 1,7,-1
 449 331 l 2,8,9
 449 409 449 409 406.5 449 c 128,-1,10
 364 489 364 489 295 489 c 0,11,12
 234 489 234 489 188 461 c 128,-1,13
 142 433 142 433 128 384 c 1,14,-1
 178 364 l 2,15,16
 200 355 200 355 209.5 343 c 128,-1,17
 219 331 219 331 219 309 c 2,18,-1
 219 84 l 2,19,20
 219 46 219 46 197.5 23 c 128,-1,21
 176 0 176 0 134 0 c 2,22,-1
 75 0 l 1,23,-1
 75 70 l 1,24,-1
 139 70 l 1,25,-1
 139 312 l 1,26,-1
 53 348 l 1,27,28
 56 394 56 394 75.5 432.5 c 128,-1,29
 95 471 95 471 126.5 499 c 128,-1,30
 158 527 158 527 200.5 542.5 c 128,-1,31
 243 558 243 558 293 558 c 0,32,33
 408 558 408 558 468.5 499.5 c 128,-1,34
 529 441 529 441 529 341 c 2,35,-1
 529 -232 l 1,36,-1
 466 -232 l 1,37,38
 449 -197 449 -197 414.5 -170.5 c 128,-1,39
 380 -144 380 -144 326 -144 c 0,40,41
 274 -144 274 -144 236.5 -170 c 128,-1,42
 199 -196 199 -196 178 -232 c 1,43,-1
 122 -188 l 1,0,1
EndSplineSet
Substitution2: "Single Substitution lookup 32 subtable" uni0E0E.short
Substitution2: "Single Substitution lookup 31 subtable" uni0E0E.short
Substitution2: "'aalt' Access All Alternates lookup 0 subtable" uni0E0E.short
EndChar

StartChar: uni0E0E.short
Encoding: 65549 -1 273
Width: 609
GlyphClass: 2
Flags: W
AnchorPoint: "Anchor-6" 529 600 basechar 0
AnchorPoint: "Anchor-5" 295 558 basechar 0
AnchorPoint: "Anchor-4" 529 -65 basechar 0
LayerCount: 2
Fore
SplineSet
138 -88 m 1,0,1
 169 -43 169 -43 211.5 -15 c 128,-1,2
 254 13 254 13 317 13 c 0,3,4
 360 13 360 13 394.5 -6.5 c 128,-1,5
 429 -26 429 -26 444 -60 c 1,6,-1
 449 -60 l 1,7,-1
 449 331 l 2,8,9
 449 409 449 409 406.5 449 c 128,-1,10
 364 489 364 489 295 489 c 0,11,12
 234 489 234 489 188 461 c 128,-1,13
 142 433 142 433 128 384 c 1,14,-1
 178 364 l 2,15,16
 200 355 200 355 209.5 343 c 128,-1,17
 219 331 219 331 219 309 c 2,18,-1
 219 84 l 2,19,20
 219 46 219 46 197.5 23 c 128,-1,21
 176 0 176 0 134 0 c 2,22,-1
 75 0 l 1,23,-1
 75 70 l 1,24,-1
 139 70 l 1,25,-1
 139 312 l 1,26,-1
 53 348 l 1,27,28
 56 394 56 394 75.5 432.5 c 128,-1,29
 95 471 95 471 126.5 499 c 128,-1,30
 158 527 158 527 200.5 542.5 c 128,-1,31
 243 558 243 558 293 558 c 0,32,33
 408 558 408 558 468.5 499.5 c 128,-1,34
 529 441 529 441 529 341 c 2,35,-1
 529 -132 l 1,36,-1
 466 -132 l 1,37,38
 450 -96 450 -96 417.5 -69.5 c 128,-1,39
 385 -43 385 -43 334 -43 c 0,40,41
 285 -43 285 -43 249.5 -69.5 c 128,-1,42
 214 -96 214 -96 194 -132 c 1,43,-1
 138 -88 l 1,0,1
EndSplineSet
EndChar

StartChar: uni0E0F
Encoding: 3599 3599 274
Width: 609
GlyphClass: 2
Flags: W
AnchorPoint: "Anchor-6" 529 600 basechar 0
AnchorPoint: "Anchor-5" 295 558 basechar 0
AnchorPoint: "Anchor-4" 0 0 basechar 0
LayerCount: 2
Fore
SplineSet
140 -166 m 1,0,-1
 192 -166 l 2,1,2
 214 -166 214 -166 227.5 -159 c 128,-1,3
 241 -152 241 -152 249.5 -141.5 c 128,-1,4
 258 -131 258 -131 261.5 -117.5 c 128,-1,5
 265 -104 265 -104 266 -91 c 1,6,-1
 326 -91 l 1,7,8
 327 -104 327 -104 331.5 -117.5 c 128,-1,9
 336 -131 336 -131 344 -141.5 c 128,-1,10
 352 -152 352 -152 363.5 -159 c 128,-1,11
 375 -166 375 -166 392 -166 c 0,12,13
 418 -166 418 -166 433.5 -149.5 c 128,-1,14
 449 -133 449 -133 449 -99 c 2,15,-1
 449 331 l 2,16,17
 449 409 449 409 406.5 449 c 128,-1,18
 364 489 364 489 295 489 c 0,19,20
 234 489 234 489 188 461 c 128,-1,21
 142 433 142 433 128 384 c 1,22,-1
 178 364 l 2,23,24
 200 355 200 355 209.5 343 c 128,-1,25
 219 331 219 331 219 309 c 2,26,-1
 219 84 l 2,27,28
 219 46 219 46 197.5 23 c 128,-1,29
 176 0 176 0 134 0 c 2,30,-1
 75 0 l 1,31,-1
 75 70 l 1,32,-1
 139 70 l 1,33,-1
 139 312 l 1,34,-1
 53 348 l 1,35,36
 56 394 56 394 75.5 432.5 c 128,-1,37
 95 471 95 471 126.5 499 c 128,-1,38
 158 527 158 527 200.5 542.5 c 128,-1,39
 243 558 243 558 293 558 c 0,40,41
 408 558 408 558 468.5 499.5 c 128,-1,42
 529 441 529 441 529 341 c 2,43,-1
 529 -98 l 2,44,45
 529 -161 529 -161 496.5 -196.5 c 128,-1,46
 464 -232 464 -232 407 -232 c 0,47,48
 390 -232 390 -232 373.5 -228 c 128,-1,49
 357 -224 357 -224 342 -214.5 c 128,-1,50
 327 -205 327 -205 315.5 -189.5 c 128,-1,51
 304 -174 304 -174 299 -151 c 1,52,-1
 294 -151 l 1,53,54
 284 -197 284 -197 255 -214.5 c 128,-1,55
 226 -232 226 -232 188 -232 c 2,56,-1
 140 -232 l 1,57,-1
 140 -166 l 1,0,-1
EndSplineSet
Substitution2: "Single Substitution lookup 32 subtable" uni0E0F.short
Substitution2: "Single Substitution lookup 31 subtable" uni0E0F.short
Substitution2: "'aalt' Access All Alternates lookup 0 subtable" uni0E0F.short
EndChar

StartChar: uni0E0F.short
Encoding: 65550 -1 275
Width: 609
GlyphClass: 2
Flags: W
AnchorPoint: "Anchor-6" 529 600 basechar 0
AnchorPoint: "Anchor-5" 295 558 basechar 0
AnchorPoint: "Anchor-4" 529 -65 basechar 0
LayerCount: 2
Fore
SplineSet
140 -56 m 1,0,-1
 192 -56 l 2,1,2
 214 -56 214 -56 227.5 -49 c 128,-1,3
 241 -42 241 -42 249.5 -31.5 c 128,-1,4
 258 -21 258 -21 261.5 -7.5 c 128,-1,5
 265 6 265 6 266 19 c 1,6,-1
 326 19 l 1,7,8
 327 6 327 6 331.5 -7.5 c 128,-1,9
 336 -21 336 -21 344 -31.5 c 128,-1,10
 352 -42 352 -42 363.5 -49 c 128,-1,11
 375 -56 375 -56 392 -56 c 0,12,13
 418 -56 418 -56 433.5 -39 c 128,-1,14
 449 -22 449 -22 449 12 c 2,15,-1
 449 331 l 2,16,17
 449 409 449 409 406.5 449 c 128,-1,18
 364 489 364 489 295 489 c 0,19,20
 234 489 234 489 188 461 c 128,-1,21
 142 433 142 433 128 384 c 1,22,-1
 178 364 l 2,23,24
 200 355 200 355 209.5 343 c 128,-1,25
 219 331 219 331 219 309 c 2,26,-1
 219 84 l 2,27,28
 219 46 219 46 197.5 23 c 128,-1,29
 176 0 176 0 134 0 c 2,30,-1
 75 0 l 1,31,-1
 75 70 l 1,32,-1
 139 70 l 1,33,-1
 139 312 l 1,34,-1
 53 348 l 1,35,36
 56 394 56 394 75.5 432.5 c 128,-1,37
 95 471 95 471 126.5 499 c 128,-1,38
 158 527 158 527 200.5 542.5 c 128,-1,39
 243 558 243 558 293 558 c 0,40,41
 408 558 408 558 468.5 499.5 c 128,-1,42
 529 441 529 441 529 341 c 2,43,-1
 529 12 l 2,44,45
 529 -51 529 -51 496.5 -86.5 c 128,-1,46
 464 -122 464 -122 407 -122 c 0,47,48
 390 -122 390 -122 373.5 -118 c 128,-1,49
 357 -114 357 -114 342 -104 c 128,-1,50
 327 -94 327 -94 315.5 -79 c 128,-1,51
 304 -64 304 -64 299 -41 c 1,52,-1
 294 -41 l 1,53,54
 284 -86 284 -86 255 -104 c 128,-1,55
 226 -122 226 -122 188 -122 c 2,56,-1
 140 -122 l 1,57,-1
 140 -56 l 1,0,-1
EndSplineSet
EndChar

StartChar: uni0E26
Encoding: 3622 3622 276
Width: 606
GlyphClass: 2
Flags: W
AnchorPoint: "Anchor-6" 0 0 basechar 0
AnchorPoint: "Anchor-5" 294 558 basechar 0
AnchorPoint: "Anchor-4" 0 0 basechar 0
LayerCount: 2
Fore
SplineSet
446 331 m 2,0,1
 446 409 446 409 404.5 449 c 128,-1,2
 363 489 363 489 294 489 c 0,3,4
 264 489 264 489 237 481.5 c 128,-1,5
 210 474 210 474 188 460.5 c 128,-1,6
 166 447 166 447 150.5 427.5 c 128,-1,7
 135 408 135 408 128 384 c 1,8,-1
 177 364 l 2,9,10
 199 355 199 355 208.5 343 c 128,-1,11
 218 331 218 331 218 309 c 2,12,-1
 218 84 l 2,13,14
 218 46 218 46 197 23 c 128,-1,15
 176 0 176 0 134 0 c 2,16,-1
 74 0 l 1,17,-1
 74 70 l 1,18,-1
 138 70 l 1,19,-1
 138 312 l 1,20,-1
 53 348 l 1,21,22
 56 394 56 394 75.5 432.5 c 128,-1,23
 95 471 95 471 126.5 499 c 128,-1,24
 158 527 158 527 200.5 542.5 c 128,-1,25
 243 558 243 558 292 558 c 0,26,27
 405 558 405 558 465.5 499.5 c 128,-1,28
 526 441 526 441 526 341 c 2,29,-1
 526 -180 l 1,30,-1
 446 -180 l 1,31,-1
 446 331 l 2,0,1
EndSplineSet
EndChar

StartChar: uni0E260E45
Encoding: 65551 -1 277
Width: 924
GlyphClass: 2
Flags: W
AnchorPoint: "Anchor-6" 0 0 basechar 0
AnchorPoint: "Anchor-5" 480 558 basechar 0
AnchorPoint: "Anchor-4" 0 0 basechar 0
LayerCount: 2
Fore
SplineSet
446 331 m 2,0,1
 446 409 446 409 404.5 449 c 128,-1,2
 363 489 363 489 294 489 c 0,3,4
 264 489 264 489 237 481.5 c 128,-1,5
 210 474 210 474 188 460.5 c 128,-1,6
 166 447 166 447 150.5 427.5 c 128,-1,7
 135 408 135 408 128 384 c 1,8,-1
 178 364 l 2,9,10
 200 355 200 355 209.5 343 c 128,-1,11
 219 331 219 331 219 309 c 2,12,-1
 219 84 l 2,13,14
 219 46 219 46 197.5 23 c 128,-1,15
 176 0 176 0 134 0 c 2,16,-1
 75 0 l 1,17,-1
 75 70 l 1,18,-1
 139 70 l 1,19,-1
 139 312 l 1,20,-1
 53 348 l 1,21,22
 56 394 56 394 75.5 432.5 c 128,-1,23
 95 471 95 471 126.5 499 c 128,-1,24
 158 527 158 527 200.5 542.5 c 128,-1,25
 243 558 243 558 292 558 c 0,26,27
 357 558 357 558 405 538 c 128,-1,28
 453 518 453 518 482 481 c 1,29,30
 507 515 507 515 548 536.5 c 128,-1,31
 589 558 589 558 650 558 c 0,32,33
 744 558 744 558 794 512 c 128,-1,34
 844 466 844 466 844 382 c 2,35,-1
 844 -180 l 1,36,-1
 764 -180 l 1,37,-1
 764 375 l 2,38,39
 764 490 764 490 645 490 c 0,40,41
 598 490 598 490 567.5 470 c 128,-1,42
 537 450 537 450 516 415 c 1,43,44
 526 382 526 382 526 341 c 2,45,-1
 526 -180 l 1,46,-1
 446 -180 l 1,47,-1
 446 331 l 2,0,1
EndSplineSet
Ligature2: "'liga' Standard Ligatures in Thai lookup 30 subtable" uni0E26 uni0E45
EndChar

StartChar: uni0E16
Encoding: 3606 3606 278
Width: 614
GlyphClass: 2
Flags: W
AnchorPoint: "Anchor-6" 534 600 basechar 0
AnchorPoint: "Anchor-5" 294 558 basechar 0
AnchorPoint: "Anchor-4" 534 0 basechar 0
LayerCount: 2
Fore
SplineSet
220 0 m 2,0,1
 177 0 177 0 155.5 23 c 128,-1,2
 134 46 134 46 134 84 c 2,3,-1
 134 312 l 1,4,-1
 49 348 l 1,5,6
 52 394 52 394 71.5 432.5 c 128,-1,7
 91 471 91 471 123 499 c 128,-1,8
 155 527 155 527 198 542.5 c 128,-1,9
 241 558 241 558 291 558 c 0,10,11
 409 558 409 558 471.5 499.5 c 128,-1,12
 534 441 534 441 534 341 c 2,13,-1
 534 0 l 1,14,-1
 454 0 l 1,15,-1
 454 331 l 2,16,17
 454 409 454 409 410 449 c 128,-1,18
 366 489 366 489 294 489 c 0,19,20
 263 489 263 489 235.5 481.5 c 128,-1,21
 208 474 208 474 185.5 460.5 c 128,-1,22
 163 447 163 447 147 427.5 c 128,-1,23
 131 408 131 408 124 384 c 1,24,-1
 173 364 l 2,25,26
 195 355 195 355 204.5 343 c 128,-1,27
 214 331 214 331 214 309 c 2,28,-1
 214 70 l 1,29,-1
 278 70 l 1,30,-1
 278 0 l 1,31,-1
 220 0 l 2,0,1
EndSplineSet
EndChar

StartChar: uni0E24
Encoding: 3620 3620 279
Width: 611
GlyphClass: 2
Flags: W
AnchorPoint: "Anchor-6" 0 0 basechar 0
AnchorPoint: "Anchor-5" 293 558 basechar 0
AnchorPoint: "Anchor-4" 0 0 basechar 0
LayerCount: 2
Fore
SplineSet
451 331 m 2,0,1
 451 409 451 409 407.5 449 c 128,-1,2
 364 489 364 489 293 489 c 0,3,4
 262 489 262 489 234.5 481.5 c 128,-1,5
 207 474 207 474 185 460.5 c 128,-1,6
 163 447 163 447 147 427.5 c 128,-1,7
 131 408 131 408 124 384 c 1,8,-1
 173 364 l 2,9,10
 195 355 195 355 204.5 343 c 128,-1,11
 214 331 214 331 214 309 c 2,12,-1
 214 70 l 1,13,-1
 278 70 l 1,14,-1
 278 0 l 1,15,-1
 220 0 l 2,16,17
 177 0 177 0 155.5 23 c 128,-1,18
 134 46 134 46 134 84 c 2,19,-1
 134 312 l 1,20,-1
 49 348 l 1,21,22
 52 394 52 394 71.5 432.5 c 128,-1,23
 91 471 91 471 123 499 c 128,-1,24
 155 527 155 527 197.5 542.5 c 128,-1,25
 240 558 240 558 290 558 c 0,26,27
 407 558 407 558 469 499.5 c 128,-1,28
 531 441 531 441 531 341 c 2,29,-1
 531 -180 l 1,30,-1
 451 -180 l 1,31,-1
 451 331 l 2,0,1
EndSplineSet
EndChar

StartChar: uni0E240E45
Encoding: 65552 -1 280
Width: 929
GlyphClass: 2
Flags: W
AnchorPoint: "Anchor-6" 0 0 basechar 0
AnchorPoint: "Anchor-5" 488 558 basechar 0
AnchorPoint: "Anchor-4" 0 0 basechar 0
LayerCount: 2
Fore
SplineSet
451 331 m 2,0,1
 451 409 451 409 407.5 449 c 128,-1,2
 364 489 364 489 293 489 c 0,3,4
 262 489 262 489 234.5 481.5 c 128,-1,5
 207 474 207 474 185 460.5 c 128,-1,6
 163 447 163 447 147 427.5 c 128,-1,7
 131 408 131 408 124 384 c 1,8,-1
 174 364 l 2,9,10
 196 355 196 355 205 343 c 128,-1,11
 214 331 214 331 214 309 c 2,12,-1
 214 70 l 1,13,-1
 278 70 l 1,14,-1
 278 0 l 1,15,-1
 220 0 l 2,16,17
 177 0 177 0 155.5 23 c 128,-1,18
 134 46 134 46 134 84 c 2,19,-1
 134 312 l 1,20,-1
 49 348 l 1,21,22
 52 394 52 394 71.5 432.5 c 128,-1,23
 91 471 91 471 123 499 c 128,-1,24
 155 527 155 527 197.5 542.5 c 128,-1,25
 240 558 240 558 290 558 c 0,26,27
 358 558 358 558 407 538 c 128,-1,28
 456 518 456 518 486 481 c 1,29,30
 511 515 511 515 552.5 536.5 c 128,-1,31
 594 558 594 558 655 558 c 0,32,33
 749 558 749 558 799 512 c 128,-1,34
 849 466 849 466 849 382 c 2,35,-1
 849 -180 l 1,36,-1
 769 -180 l 1,37,-1
 769 375 l 2,38,39
 769 490 769 490 650 490 c 0,40,41
 603 490 603 490 572.5 469.5 c 128,-1,42
 542 449 542 449 521 414 c 1,43,44
 531 383 531 383 531 341 c 2,45,-1
 531 -180 l 1,46,-1
 451 -180 l 1,47,-1
 451 331 l 2,0,1
EndSplineSet
Ligature2: "'liga' Standard Ligatures in Thai lookup 30 subtable" uni0E24 uni0E45
EndChar

StartChar: uni0E0D.less
Encoding: 65553 -1 281
Width: 915
GlyphClass: 2
Flags: W
AnchorPoint: "Anchor-6" 835 600 basechar 0
AnchorPoint: "Anchor-5" 474 558 basechar 0
AnchorPoint: "Anchor-4" 835 0 basechar 0
LayerCount: 2
Fore
SplineSet
634 -12 m 256,0,1
 588 -12 588 -12 551 1.5 c 128,-1,2
 514 15 514 15 487.5 40.5 c 128,-1,3
 461 66 461 66 447 101 c 128,-1,4
 433 136 433 136 433 180 c 2,5,-1
 433 330 l 2,6,7
 433 408 433 408 393 448.5 c 128,-1,8
 353 489 353 489 286 489 c 0,9,10
 227 489 227 489 182.5 461 c 128,-1,11
 138 433 138 433 124 384 c 1,12,-1
 173 364 l 2,13,14
 195 355 195 355 204.5 343 c 128,-1,15
 214 331 214 331 214 309 c 2,16,-1
 214 70 l 1,17,-1
 278 70 l 1,18,-1
 278 0 l 1,19,-1
 220 0 l 2,20,21
 177 0 177 0 155.5 23 c 128,-1,22
 134 46 134 46 134 84 c 2,23,-1
 134 312 l 1,24,-1
 49 348 l 1,25,26
 52 394 52 394 71 432.5 c 128,-1,27
 90 471 90 471 121.5 499 c 128,-1,28
 153 527 153 527 194.5 542.5 c 128,-1,29
 236 558 236 558 285 558 c 0,30,31
 396 558 396 558 454.5 499.5 c 128,-1,32
 513 441 513 441 513 340 c 2,33,-1
 513 179 l 2,34,35
 513 120 513 120 546.5 89 c 128,-1,36
 580 58 580 58 634 58 c 0,37,38
 689 58 689 58 722 89 c 128,-1,39
 755 120 755 120 755 179 c 2,40,-1
 755 546 l 1,41,-1
 835 546 l 1,42,-1
 835 180 l 2,43,44
 835 136 835 136 821 101 c 128,-1,45
 807 66 807 66 780.5 40.5 c 128,-1,46
 754 15 754 15 717 1.5 c 128,-1,47
 680 -12 680 -12 634 -12 c 256,0,1
EndSplineSet
EndChar

StartChar: uni0E0D
Encoding: 3597 3597 282
Width: 916
GlyphClass: 2
Flags: W
AnchorPoint: "Anchor-6" 835 600 basechar 0
AnchorPoint: "Anchor-5" 474 558 basechar 0
AnchorPoint: "Anchor-4" 0 0 basechar 0
LayerCount: 2
Fore
SplineSet
634 -12 m 256,0,1
 588 -12 588 -12 551 1.5 c 128,-1,2
 514 15 514 15 487.5 40.5 c 128,-1,3
 461 66 461 66 447 101 c 128,-1,4
 433 136 433 136 433 180 c 2,5,-1
 433 330 l 2,6,7
 433 408 433 408 393 448.5 c 128,-1,8
 353 489 353 489 286 489 c 0,9,10
 227 489 227 489 182.5 461 c 128,-1,11
 138 433 138 433 124 384 c 1,12,-1
 173 364 l 2,13,14
 195 355 195 355 204.5 343 c 128,-1,15
 214 331 214 331 214 309 c 2,16,-1
 214 70 l 1,17,-1
 278 70 l 1,18,-1
 278 0 l 1,19,-1
 220 0 l 2,20,21
 177 0 177 0 155.5 23 c 128,-1,22
 134 46 134 46 134 84 c 2,23,-1
 134 312 l 1,24,-1
 49 348 l 1,25,26
 52 394 52 394 71 432.5 c 128,-1,27
 90 471 90 471 121.5 499 c 128,-1,28
 153 527 153 527 194.5 542.5 c 128,-1,29
 236 558 236 558 285 558 c 0,30,31
 396 558 396 558 454.5 499.5 c 128,-1,32
 513 441 513 441 513 340 c 2,33,-1
 513 179 l 2,34,35
 513 120 513 120 546.5 89 c 128,-1,36
 580 58 580 58 634 58 c 0,37,38
 689 58 689 58 722 89 c 128,-1,39
 755 120 755 120 755 179 c 2,40,-1
 755 546 l 1,41,-1
 835 546 l 1,42,-1
 835 180 l 2,43,44
 835 136 835 136 821 101 c 128,-1,45
 807 66 807 66 780.5 40.5 c 128,-1,46
 754 15 754 15 717 1.5 c 128,-1,47
 680 -12 680 -12 634 -12 c 256,0,1
521 -232 m 2,48,49
 476 -232 476 -232 455 -210.5 c 128,-1,50
 434 -189 434 -189 434 -153 c 2,51,-1
 434 -90 l 1,52,-1
 514 -90 l 1,53,-1
 514 -164 l 1,54,-1
 835 -164 l 1,55,-1
 835 -232 l 1,56,-1
 521 -232 l 2,48,49
EndSplineSet
Substitution2: "Single Substitution lookup 31 subtable" uni0E0D.less
Substitution2: "'calt' Contextual Alternates in Thai lookup 12 subtable" uni0E0D.less
Substitution2: "'calt' Contextual Alternates in Thai lookup 10 subtable" uni0E0D.less
Substitution2: "'aalt' Access All Alternates lookup 0 subtable" uni0E0D.less
EndChar

StartChar: uni0E0D0331
Encoding: 65554 -1 283
Width: 917
GlyphClass: 2
Flags: W
AnchorPoint: "Anchor-6" 835 600 basechar 0
AnchorPoint: "Anchor-5" 474 558 basechar 0
AnchorPoint: "Anchor-4" 835 -140 basechar 0
LayerCount: 2
Fore
SplineSet
634 -12 m 256,0,1
 588 -12 588 -12 551 1.5 c 128,-1,2
 514 15 514 15 487.5 40.5 c 128,-1,3
 461 66 461 66 447 101 c 128,-1,4
 433 136 433 136 433 180 c 2,5,-1
 433 330 l 2,6,7
 433 408 433 408 393 448.5 c 128,-1,8
 353 489 353 489 286 489 c 0,9,10
 227 489 227 489 182.5 461 c 128,-1,11
 138 433 138 433 124 384 c 1,12,-1
 173 364 l 2,13,14
 195 355 195 355 204.5 343 c 128,-1,15
 214 331 214 331 214 309 c 2,16,-1
 214 70 l 1,17,-1
 278 70 l 1,18,-1
 278 0 l 1,19,-1
 220 0 l 2,20,21
 177 0 177 0 155.5 23 c 128,-1,22
 134 46 134 46 134 84 c 2,23,-1
 134 312 l 1,24,-1
 49 348 l 1,25,26
 52 394 52 394 71 432.5 c 128,-1,27
 90 471 90 471 121.5 499 c 128,-1,28
 153 527 153 527 194.5 542.5 c 128,-1,29
 236 558 236 558 285 558 c 0,30,31
 396 558 396 558 454.5 499.5 c 128,-1,32
 513 441 513 441 513 340 c 2,33,-1
 513 179 l 2,34,35
 513 120 513 120 546.5 89 c 128,-1,36
 580 58 580 58 634 58 c 0,37,38
 689 58 689 58 722 89 c 128,-1,39
 755 120 755 120 755 179 c 2,40,-1
 755 546 l 1,41,-1
 835 546 l 1,42,-1
 835 180 l 2,43,44
 835 136 835 136 821 101 c 128,-1,45
 807 66 807 66 780.5 40.5 c 128,-1,46
 754 15 754 15 717 1.5 c 128,-1,47
 680 -12 680 -12 634 -12 c 256,0,1
135 -113 m 1,48,-1
 835 -113 l 1,49,-1
 835 -177 l 1,50,-1
 135 -177 l 1,51,-1
 135 -113 l 1,48,-1
EndSplineSet
Ligature2: "'calt' Contextual Alternates lookup 5 subtable" uni0E0D uni0331
Ligature2: "'calt' Contextual Alternates lookup 5 subtable" uni0E0D.less uni0331
EndChar

StartChar: uni0E0C
Encoding: 3596 3596 284
Width: 937
GlyphClass: 2
Flags: W
AnchorPoint: "Anchor-6" 857 600 basechar 0
AnchorPoint: "Anchor-5" 491 558 basechar 0
AnchorPoint: "Anchor-4" 857 0 basechar 0
LayerCount: 2
Fore
SplineSet
684 -12 m 0,0,1
 652 -12 652 -12 627.5 -3.5 c 128,-1,2
 603 5 603 5 585 19 c 128,-1,3
 567 33 567 33 555 51 c 128,-1,4
 543 69 543 69 536 89 c 1,5,-1
 531 89 l 1,6,-1
 531 0 l 1,7,-1
 451 0 l 1,8,-1
 451 331 l 2,9,10
 451 409 451 409 407.5 449 c 128,-1,11
 364 489 364 489 293 489 c 0,12,13
 262 489 262 489 234.5 481.5 c 128,-1,14
 207 474 207 474 185 460.5 c 128,-1,15
 163 447 163 447 147 427.5 c 128,-1,16
 131 408 131 408 124 384 c 1,17,-1
 173 364 l 2,18,19
 195 355 195 355 204.5 343 c 128,-1,20
 214 331 214 331 214 309 c 2,21,-1
 214 70 l 1,22,-1
 278 70 l 1,23,-1
 278 0 l 1,24,-1
 219 0 l 2,25,26
 176 0 176 0 155 23 c 128,-1,27
 134 46 134 46 134 84 c 2,28,-1
 134 312 l 1,29,-1
 49 348 l 1,30,31
 52 394 52 394 71.5 432.5 c 128,-1,32
 91 471 91 471 123 499 c 128,-1,33
 155 527 155 527 197.5 542.5 c 128,-1,34
 240 558 240 558 290 558 c 0,35,36
 406 558 406 558 468.5 499.5 c 128,-1,37
 531 441 531 441 531 341 c 2,38,-1
 531 168 l 2,39,40
 531 140 531 140 542 119 c 128,-1,41
 553 98 553 98 571 84 c 128,-1,42
 589 70 589 70 612 63 c 128,-1,43
 635 56 635 56 658 56 c 0,44,45
 777 56 777 56 777 208 c 2,46,-1
 777 546 l 1,47,-1
 857 546 l 1,48,-1
 857 198 l 2,49,50
 857 97 857 97 811 42.5 c 128,-1,51
 765 -12 765 -12 684 -12 c 0,0,1
EndSplineSet
EndChar

StartChar: uni0E13
Encoding: 3603 3603 285
Width: 935
GlyphClass: 2
Flags: W
AnchorPoint: "Anchor-6" 836 600 basechar 0
AnchorPoint: "Anchor-5" 474 558 basechar 0
AnchorPoint: "Anchor-4" 836 0 basechar 0
LayerCount: 2
Fore
SplineSet
605 -12 m 0,0,1
 524 -12 524 -12 478.5 42.5 c 128,-1,2
 433 97 433 97 433 198 c 2,3,-1
 433 330 l 2,4,5
 433 408 433 408 393 448.5 c 128,-1,6
 353 489 353 489 286 489 c 0,7,8
 227 489 227 489 182.5 461 c 128,-1,9
 138 433 138 433 124 384 c 1,10,-1
 173 364 l 2,11,12
 195 355 195 355 204.5 343 c 128,-1,13
 214 331 214 331 214 309 c 2,14,-1
 214 70 l 1,15,-1
 278 70 l 1,16,-1
 278 0 l 1,17,-1
 220 0 l 2,18,19
 177 0 177 0 155.5 23 c 128,-1,20
 134 46 134 46 134 84 c 2,21,-1
 134 312 l 1,22,-1
 49 348 l 1,23,24
 52 394 52 394 71 432.5 c 128,-1,25
 90 471 90 471 121.5 499 c 128,-1,26
 153 527 153 527 194.5 542.5 c 128,-1,27
 236 558 236 558 285 558 c 0,28,29
 396 558 396 558 454.5 499.5 c 128,-1,30
 513 441 513 441 513 340 c 2,31,-1
 513 208 l 2,32,33
 513 56 513 56 630 56 c 0,34,35
 653 56 653 56 675.5 63 c 128,-1,36
 698 70 698 70 716 84 c 128,-1,37
 734 98 734 98 745 119 c 128,-1,38
 756 140 756 140 756 168 c 2,39,-1
 756 546 l 1,40,-1
 836 546 l 1,41,-1
 836 70 l 1,42,-1
 900 70 l 1,43,-1
 900 0 l 1,44,-1
 841 0 l 2,45,46
 801 0 801 0 782.5 24 c 128,-1,47
 764 48 764 48 761 85 c 1,48,-1
 757 85 l 1,49,50
 749 66 749 66 737 48.5 c 128,-1,51
 725 31 725 31 706.5 17.5 c 128,-1,52
 688 4 688 4 663 -4 c 128,-1,53
 638 -12 638 -12 605 -12 c 0,0,1
EndSplineSet
EndChar

StartChar: uni0E02
Encoding: 3586 3586 286
Width: 561
GlyphClass: 2
Flags: W
AnchorPoint: "Anchor-6" 481 600 basechar 0
AnchorPoint: "Anchor-5" 275 558 basechar 0
AnchorPoint: "Anchor-4" 481 0 basechar 0
LayerCount: 2
Fore
SplineSet
281 -12 m 0,0,1
 235 -12 235 -12 197 0 c 128,-1,2
 159 12 159 12 131.5 36 c 128,-1,3
 104 60 104 60 89 96.5 c 128,-1,4
 74 133 74 133 74 182 c 0,5,6
 74 211 74 211 78.5 233.5 c 128,-1,7
 83 256 83 256 90.5 274.5 c 128,-1,8
 98 293 98 293 108 309 c 128,-1,9
 118 325 118 325 130 340 c 0,10,11
 151 368 151 368 165 394 c 128,-1,12
 179 420 179 420 179 449 c 2,13,-1
 179 476 l 1,14,-1
 65 476 l 1,15,-1
 65 546 l 1,16,-1
 182 546 l 2,17,18
 219 546 219 546 238.5 526.5 c 128,-1,19
 258 507 258 507 258 475 c 2,20,-1
 258 466 l 2,21,22
 258 430 258 430 244.5 399.5 c 128,-1,23
 231 369 231 369 205 328 c 0,24,25
 182 293 182 293 171 264.5 c 128,-1,26
 160 236 160 236 160 202 c 2,27,-1
 160 171 l 2,28,29
 160 112 160 112 192.5 84.5 c 128,-1,30
 225 57 225 57 279 57 c 0,31,32
 337 57 337 57 369 93 c 128,-1,33
 401 129 401 129 401 195 c 2,34,-1
 401 546 l 1,35,-1
 481 546 l 1,36,-1
 481 186 l 2,37,38
 481 95 481 95 430 41.5 c 128,-1,39
 379 -12 379 -12 281 -12 c 0,0,1
EndSplineSet
EndChar

StartChar: uni0E0A
Encoding: 3594 3594 287
Width: 556
GlyphClass: 2
Flags: W
AnchorPoint: "Anchor-6" 483 600 basechar 0
AnchorPoint: "Anchor-5" 276 558 basechar 0
AnchorPoint: "Anchor-4" 478 0 basechar 0
LayerCount: 2
Fore
SplineSet
283 -12 m 0,0,1
 189 -12 189 -12 131.5 36 c 128,-1,2
 74 84 74 84 74 182 c 0,3,4
 74 211 74 211 78.5 233.5 c 128,-1,5
 83 256 83 256 90.5 274.5 c 128,-1,6
 98 293 98 293 108 309 c 128,-1,7
 118 325 118 325 130 340 c 0,8,9
 151 368 151 368 165 394 c 128,-1,10
 179 420 179 420 179 449 c 2,11,-1
 179 476 l 1,12,-1
 65 476 l 1,13,-1
 65 546 l 1,14,-1
 182 546 l 2,15,16
 219 546 219 546 238.5 526.5 c 128,-1,17
 258 507 258 507 258 475 c 2,18,-1
 258 466 l 2,19,20
 258 430 258 430 244.5 399.5 c 128,-1,21
 231 369 231 369 205 328 c 0,22,23
 182 293 182 293 171 264.5 c 128,-1,24
 160 236 160 236 160 202 c 2,25,-1
 160 171 l 2,26,27
 160 112 160 112 193 84.5 c 128,-1,28
 226 57 226 57 281 57 c 0,29,30
 338 57 338 57 369 84.5 c 128,-1,31
 400 112 400 112 400 163 c 2,32,-1
 400 250 l 2,33,34
 400 301 400 301 380 328.5 c 128,-1,35
 360 356 360 356 325 356 c 2,36,-1
 297 356 l 1,37,-1
 297 420 l 1,38,-1
 327 420 l 2,39,40
 362 420 362 420 382.5 440.5 c 128,-1,41
 403 461 403 461 403 507 c 2,42,-1
 403 562 l 1,43,-1
 483 562 l 1,44,-1
 483 510 l 2,45,46
 483 485 483 485 474 465.5 c 128,-1,47
 465 446 465 446 451 432 c 128,-1,48
 437 418 437 418 418.5 409.5 c 128,-1,49
 400 401 400 401 381 398 c 1,50,-1
 381 393 l 1,51,52
 434 378 434 378 460 328 c 128,-1,53
 486 278 486 278 486 209 c 0,54,55
 486 106 486 106 433 47 c 128,-1,56
 380 -12 380 -12 283 -12 c 0,0,1
EndSplineSet
EndChar

StartChar: uni0E03
Encoding: 3587 3587 288
Width: 589
GlyphClass: 2
Flags: W
AnchorPoint: "Anchor-6" 509 600 basechar 0
AnchorPoint: "Anchor-5" 309 558 basechar 0
AnchorPoint: "Anchor-4" 509 0 basechar 0
LayerCount: 2
Fore
SplineSet
309 -12 m 0,0,1
 263 -12 263 -12 225 0 c 128,-1,2
 187 12 187 12 159.5 36 c 128,-1,3
 132 60 132 60 117 96.5 c 128,-1,4
 102 133 102 133 102 182 c 0,5,6
 102 238 102 238 118 273.5 c 128,-1,7
 134 309 134 309 157 339 c 0,8,9
 179 368 179 368 194.5 393 c 128,-1,10
 210 418 210 418 210 447 c 0,11,12
 210 474 210 474 195.5 486.5 c 128,-1,13
 181 499 181 499 159 499 c 0,14,15
 129 499 129 499 113.5 478 c 128,-1,16
 98 457 98 457 94 416 c 1,17,-1
 35 416 l 1,18,-1
 35 555 l 1,19,-1
 102 555 l 1,20,-1
 102 486 l 1,21,-1
 107 486 l 1,22,23
 118 520 118 520 140.5 539 c 128,-1,24
 163 558 163 558 197 558 c 0,25,26
 237 558 237 558 261 531 c 128,-1,27
 285 504 285 504 285 462 c 0,28,29
 285 427 285 427 271 396.5 c 128,-1,30
 257 366 257 366 232 327 c 0,31,32
 213 297 213 297 200.5 268.5 c 128,-1,33
 188 240 188 240 188 202 c 2,34,-1
 188 171 l 2,35,36
 188 112 188 112 220.5 84.5 c 128,-1,37
 253 57 253 57 307 57 c 0,38,39
 364 57 364 57 396.5 92.5 c 128,-1,40
 429 128 429 128 429 195 c 2,41,-1
 429 546 l 1,42,-1
 509 546 l 1,43,-1
 509 186 l 2,44,45
 509 95 509 95 458 41.5 c 128,-1,46
 407 -12 407 -12 309 -12 c 0,0,1
EndSplineSet
EndChar

StartChar: uni0E0B
Encoding: 3595 3595 289
Width: 584
GlyphClass: 2
Flags: W
AnchorPoint: "Anchor-6" 511 600 basechar 0
AnchorPoint: "Anchor-5" 302 558 basechar 0
AnchorPoint: "Anchor-4" 506 0 basechar 0
LayerCount: 2
Fore
SplineSet
311 -12 m 0,0,1
 217 -12 217 -12 159.5 36 c 128,-1,2
 102 84 102 84 102 182 c 0,3,4
 102 211 102 211 106.5 233.5 c 128,-1,5
 111 256 111 256 118.5 274.5 c 128,-1,6
 126 293 126 293 136 309 c 128,-1,7
 146 325 146 325 158 340 c 0,8,9
 180 369 180 369 195 393.5 c 128,-1,10
 210 418 210 418 210 447 c 0,11,12
 210 474 210 474 195.5 486.5 c 128,-1,13
 181 499 181 499 160 499 c 0,14,15
 130 499 130 499 114.5 478 c 128,-1,16
 99 457 99 457 95 416 c 1,17,-1
 35 416 l 1,18,-1
 35 555 l 1,19,-1
 102 555 l 1,20,-1
 102 486 l 1,21,-1
 108 486 l 1,22,23
 118 520 118 520 140.5 539 c 128,-1,24
 163 558 163 558 197 558 c 0,25,26
 238 558 238 558 262 531 c 128,-1,27
 286 504 286 504 286 462 c 0,28,29
 286 427 286 427 272 397 c 128,-1,30
 258 367 258 367 233 328 c 0,31,32
 210 293 210 293 199 264.5 c 128,-1,33
 188 236 188 236 188 202 c 2,34,-1
 188 171 l 2,35,36
 188 112 188 112 221 84.5 c 128,-1,37
 254 57 254 57 309 57 c 0,38,39
 366 57 366 57 397 84.5 c 128,-1,40
 428 112 428 112 428 163 c 2,41,-1
 428 250 l 2,42,43
 428 301 428 301 408 328.5 c 128,-1,44
 388 356 388 356 353 356 c 2,45,-1
 325 356 l 1,46,-1
 325 420 l 1,47,-1
 355 420 l 2,48,49
 390 420 390 420 410.5 440.5 c 128,-1,50
 431 461 431 461 431 507 c 2,51,-1
 431 562 l 1,52,-1
 511 562 l 1,53,-1
 511 510 l 2,54,55
 511 485 511 485 502 465.5 c 128,-1,56
 493 446 493 446 479 432 c 128,-1,57
 465 418 465 418 446.5 409.5 c 128,-1,58
 428 401 428 401 409 398 c 1,59,-1
 409 393 l 1,60,61
 462 378 462 378 488 328 c 128,-1,62
 514 278 514 278 514 209 c 0,63,64
 514 106 514 106 461 47 c 128,-1,65
 408 -12 408 -12 311 -12 c 0,0,1
EndSplineSet
EndChar

StartChar: uni0E06
Encoding: 3590 3590 290
Width: 626
GlyphClass: 2
Flags: W
AnchorPoint: "Anchor-6" 546 600 basechar 0
AnchorPoint: "Anchor-5" 331 558 basechar 0
AnchorPoint: "Anchor-4" 546 0 basechar 0
LayerCount: 2
Fore
SplineSet
358 -12 m 0,0,1
 323 -12 323 -12 297.5 -3.5 c 128,-1,2
 272 5 272 5 253 19 c 128,-1,3
 234 33 234 33 221.5 51 c 128,-1,4
 209 69 209 69 201 89 c 1,5,-1
 196 89 l 1,6,-1
 196 0 l 1,7,-1
 116 0 l 1,8,-1
 116 184 l 2,9,10
 116 239 116 239 129.5 274 c 128,-1,11
 143 309 143 309 166 339 c 0,12,13
 188 368 188 368 203 393 c 128,-1,14
 218 418 218 418 218 447 c 0,15,16
 218 474 218 474 203.5 486.5 c 128,-1,17
 189 499 189 499 168 499 c 0,18,19
 138 499 138 499 122.5 478 c 128,-1,20
 107 457 107 457 103 416 c 1,21,-1
 44 416 l 1,22,-1
 44 555 l 1,23,-1
 111 555 l 1,24,-1
 111 486 l 1,25,-1
 116 486 l 1,26,27
 127 520 127 520 149.5 539 c 128,-1,28
 172 558 172 558 206 558 c 0,29,30
 246 558 246 558 270 531 c 128,-1,31
 294 504 294 504 294 462 c 0,32,33
 294 427 294 427 280 396.5 c 128,-1,34
 266 366 266 366 241 327 c 0,35,36
 221 297 221 297 208.5 268.5 c 128,-1,37
 196 240 196 240 196 205 c 2,38,-1
 196 168 l 2,39,40
 196 140 196 140 208 119 c 128,-1,41
 220 98 220 98 239.5 84.5 c 128,-1,42
 259 71 259 71 283.5 64.5 c 128,-1,43
 308 58 308 58 333 58 c 0,44,45
 466 58 466 58 466 208 c 2,46,-1
 466 546 l 1,47,-1
 546 546 l 1,48,-1
 546 198 l 2,49,50
 546 97 546 97 495.5 42.5 c 128,-1,51
 445 -12 445 -12 358 -12 c 0,0,1
EndSplineSet
EndChar

StartChar: uni0E11
Encoding: 3601 3601 291
Width: 640
GlyphClass: 2
Flags: W
AnchorPoint: "Anchor-6" 560 600 basechar 0
AnchorPoint: "Anchor-5" 316 558 basechar 0
AnchorPoint: "Anchor-4" 560 0 basechar 0
LayerCount: 2
Fore
SplineSet
116 184 m 2,0,1
 116 239 116 239 129.5 274 c 128,-1,2
 143 309 143 309 166 339 c 0,3,4
 188 368 188 368 203 393 c 128,-1,5
 218 418 218 418 218 447 c 0,6,7
 218 474 218 474 203.5 486.5 c 128,-1,8
 189 499 189 499 168 499 c 0,9,10
 138 499 138 499 122.5 478 c 128,-1,11
 107 457 107 457 103 416 c 1,12,-1
 44 416 l 1,13,-1
 44 555 l 1,14,-1
 111 555 l 1,15,-1
 111 486 l 1,16,-1
 116 486 l 1,17,18
 127 520 127 520 149.5 539 c 128,-1,19
 172 558 172 558 206 558 c 0,20,21
 237 558 237 558 256 539.5 c 128,-1,22
 275 521 275 521 275 492 c 0,23,24
 275 476 275 476 267 454 c 1,25,-1
 272 452 l 1,26,27
 291 477 291 477 307.5 497 c 128,-1,28
 324 517 324 517 341.5 530.5 c 128,-1,29
 359 544 359 544 378.5 551 c 128,-1,30
 398 558 398 558 423 558 c 0,31,32
 487 558 487 558 523.5 514.5 c 128,-1,33
 560 471 560 471 560 389 c 2,34,-1
 560 0 l 1,35,-1
 480 0 l 1,36,-1
 480 362 l 2,37,38
 480 417 480 417 465 452.5 c 128,-1,39
 450 488 450 488 409 488 c 0,40,41
 384 488 384 488 359 470 c 128,-1,42
 334 452 334 452 312 427 c 128,-1,43
 290 402 290 402 271.5 374 c 128,-1,44
 253 346 253 346 241 327 c 0,45,46
 221 297 221 297 208.5 268.5 c 128,-1,47
 196 240 196 240 196 205 c 2,48,-1
 196 0 l 1,49,-1
 116 0 l 1,50,-1
 116 184 l 2,0,1
EndSplineSet
EndChar

StartChar: uni0E04
Encoding: 3588 3588 292
Width: 636
GlyphClass: 2
Flags: W
AnchorPoint: "Anchor-6" 556 600 basechar 0
AnchorPoint: "Anchor-5" 319 558 basechar 0
AnchorPoint: "Anchor-4" 556 0 basechar 0
LayerCount: 2
Fore
SplineSet
80 342 m 2,0,1
 80 391 80 391 96.5 431 c 128,-1,2
 113 471 113 471 144 499.5 c 128,-1,3
 175 528 175 528 219 543 c 128,-1,4
 263 558 263 558 318 558 c 0,5,6
 372 558 372 558 416 543 c 128,-1,7
 460 528 460 528 491 499.5 c 128,-1,8
 522 471 522 471 539 431 c 128,-1,9
 556 391 556 391 556 342 c 2,10,-1
 556 0 l 1,11,-1
 476 0 l 1,12,-1
 476 334 l 2,13,14
 476 409 476 409 434.5 449 c 128,-1,15
 393 489 393 489 318 489 c 256,16,17
 243 489 243 489 201.5 449 c 128,-1,18
 160 409 160 409 160 334 c 2,19,-1
 160 204 l 1,20,-1
 165 204 l 1,21,22
 172 223 172 223 184 240.5 c 128,-1,23
 196 258 196 258 214 271.5 c 128,-1,24
 232 285 232 285 256.5 293 c 128,-1,25
 281 301 281 301 313 301 c 2,26,-1
 346 301 l 1,27,-1
 346 221 l 1,28,-1
 300 221 l 2,29,30
 236 221 236 221 198 196 c 128,-1,31
 160 171 160 171 160 127 c 2,32,-1
 160 0 l 1,33,-1
 80 0 l 1,34,-1
 80 342 l 2,0,1
EndSplineSet
EndChar

StartChar: uni0E28
Encoding: 3624 3624 293
Width: 670
GlyphClass: 2
Flags: W
AnchorPoint: "Anchor-6" 556 600 basechar 0
AnchorPoint: "Anchor-5" 319 558 basechar 0
AnchorPoint: "Anchor-4" 556 0 basechar 0
LayerCount: 2
Fore
SplineSet
80 342 m 2,0,1
 80 391 80 391 96.5 431 c 128,-1,2
 113 471 113 471 144 499.5 c 128,-1,3
 175 528 175 528 219 543 c 128,-1,4
 263 558 263 558 318 558 c 0,5,6
 362 558 362 558 399 548 c 128,-1,7
 436 538 436 538 465 520 c 1,8,9
 467 548 467 548 479.5 561 c 128,-1,10
 492 574 492 574 521 574 c 2,11,-1
 668 574 l 1,12,-1
 668 500 l 1,13,-1
 492 500 l 1,14,-1
 492 499 l 1,15,16
 523 470 523 470 539.5 431 c 128,-1,17
 556 392 556 392 556 342 c 2,18,-1
 556 0 l 1,19,-1
 476 0 l 1,20,-1
 476 334 l 2,21,22
 476 409 476 409 434.5 449 c 128,-1,23
 393 489 393 489 318 489 c 256,24,25
 243 489 243 489 201.5 449 c 128,-1,26
 160 409 160 409 160 334 c 2,27,-1
 160 204 l 1,28,-1
 165 204 l 1,29,30
 172 223 172 223 184 240.5 c 128,-1,31
 196 258 196 258 214 271.5 c 128,-1,32
 232 285 232 285 256.5 293 c 128,-1,33
 281 301 281 301 313 301 c 2,34,-1
 346 301 l 1,35,-1
 346 221 l 1,36,-1
 300 221 l 2,37,38
 236 221 236 221 198 196 c 128,-1,39
 160 171 160 171 160 127 c 2,40,-1
 160 0 l 1,41,-1
 80 0 l 1,42,-1
 80 342 l 2,0,1
EndSplineSet
EndChar

StartChar: uni0E05
Encoding: 3589 3589 294
Width: 651
GlyphClass: 2
Flags: W
AnchorPoint: "Anchor-6" 571 600 basechar 0
AnchorPoint: "Anchor-5" 327 558 basechar 0
AnchorPoint: "Anchor-4" 571 0 basechar 0
LayerCount: 2
Fore
SplineSet
80 414 m 2,0,1
 80 482 80 482 113.5 520 c 128,-1,2
 147 558 147 558 210 558 c 0,3,4
 251 558 251 558 281.5 536 c 128,-1,5
 312 514 312 514 323 472 c 1,6,-1
 328 472 l 1,7,8
 339 514 339 514 369.5 536 c 128,-1,9
 400 558 400 558 441 558 c 0,10,11
 504 558 504 558 537.5 520 c 128,-1,12
 571 482 571 482 571 414 c 2,13,-1
 571 0 l 1,14,-1
 491 0 l 1,15,-1
 491 413 l 2,16,17
 491 452 491 452 473.5 470.5 c 128,-1,18
 456 489 456 489 424 489 c 0,19,20
 405 489 405 489 392 482 c 128,-1,21
 379 475 379 475 371 463.5 c 128,-1,22
 363 452 363 452 358.5 438 c 128,-1,23
 354 424 354 424 352 409 c 1,24,-1
 299 409 l 1,25,26
 297 424 297 424 292.5 438 c 128,-1,27
 288 452 288 452 280 463.5 c 128,-1,28
 272 475 272 475 259 482 c 128,-1,29
 246 489 246 489 227 489 c 0,30,31
 195 489 195 489 177.5 470.5 c 128,-1,32
 160 452 160 452 160 413 c 2,33,-1
 160 197 l 1,34,-1
 165 197 l 1,35,36
 172 216 172 216 184 233 c 128,-1,37
 196 250 196 250 214 263.5 c 128,-1,38
 232 277 232 277 256.5 285 c 128,-1,39
 281 293 281 293 313 293 c 2,40,-1
 346 293 l 1,41,-1
 346 213 l 1,42,-1
 300 213 l 2,43,44
 236 213 236 213 198 188 c 128,-1,45
 160 163 160 163 160 119 c 2,46,-1
 160 0 l 1,47,-1
 80 0 l 1,48,-1
 80 414 l 2,0,1
EndSplineSet
EndChar

StartChar: uni0E07
Encoding: 3591 3591 295
Width: 544
GlyphClass: 2
Flags: W
AnchorPoint: "Anchor-6" 474 600 basechar 0
AnchorPoint: "Anchor-5" 271 558 basechar 0
AnchorPoint: "Anchor-4" 474 0 basechar 0
LayerCount: 2
Fore
SplineSet
32 395 m 1,0,-1
 118 395 l 1,1,-1
 263 67 l 1,2,-1
 266 67 l 2,3,4
 329 67 329 67 363.5 110.5 c 128,-1,5
 398 154 398 154 398 232 c 2,6,-1
 398 314 l 2,7,8
 398 391 398 391 363.5 434 c 128,-1,9
 329 477 329 477 266 477 c 2,10,-1
 234 477 l 1,11,-1
 234 546 l 1,12,-1
 267 546 l 2,13,14
 370 546 370 546 427 474 c 128,-1,15
 484 402 484 402 484 273 c 256,16,17
 484 144 484 144 427.5 72 c 128,-1,18
 371 0 371 0 268 0 c 2,19,-1
 206 0 l 1,20,-1
 32 395 l 1,0,-1
EndSplineSet
EndChar

StartChar: uni0E070331
Encoding: 65555 -1 296
Width: 544
GlyphClass: 2
Flags: W
AnchorPoint: "Anchor-6" 474 600 basechar 0
AnchorPoint: "Anchor-5" 271 558 basechar 0
AnchorPoint: "Anchor-4" 467 -140 basechar 0
LayerCount: 2
Fore
SplineSet
32 395 m 1,0,-1
 118 395 l 1,1,-1
 263 67 l 1,2,-1
 266 67 l 2,3,4
 329 67 329 67 363.5 110.5 c 128,-1,5
 398 154 398 154 398 232 c 2,6,-1
 398 314 l 2,7,8
 398 391 398 391 363.5 434 c 128,-1,9
 329 477 329 477 266 477 c 2,10,-1
 234 477 l 1,11,-1
 234 546 l 1,12,-1
 267 546 l 2,13,14
 370 546 370 546 427 474 c 128,-1,15
 484 402 484 402 484 273 c 256,16,17
 484 144 484 144 427.5 72 c 128,-1,18
 371 0 371 0 268 0 c 2,19,-1
 206 0 l 1,20,-1
 32 395 l 1,0,-1
85 -113 m 1,21,-1
 467 -113 l 1,22,-1
 467 -177 l 1,23,-1
 85 -177 l 1,24,-1
 85 -113 l 1,21,-1
EndSplineSet
Ligature2: "'calt' Contextual Alternates lookup 5 subtable" uni0E07 uni0331
EndChar

StartChar: uni0E08
Encoding: 3592 3592 297
Width: 574
GlyphClass: 2
Flags: W
AnchorPoint: "Anchor-6" 483 600 basechar 0
AnchorPoint: "Anchor-5" 271 558 basechar 0
AnchorPoint: "Anchor-4" 483 0 basechar 0
LayerCount: 2
Fore
SplineSet
142 232 m 1,0,-1
 81 232 l 1,1,-1
 81 301 l 1,2,-1
 163 301 l 2,3,4
 178 301 178 301 191.5 294.5 c 128,-1,5
 205 288 205 288 210 272 c 2,6,-1
 282 67 l 1,7,-1
 320 67 l 2,8,9
 369 67 369 67 399 112 c 128,-1,10
 429 157 429 157 429 237 c 2,11,-1
 429 319 l 2,12,13
 429 400 429 400 385.5 444.5 c 128,-1,14
 342 489 342 489 267 489 c 0,15,16
 196 489 196 489 150 460.5 c 128,-1,17
 104 432 104 432 78 387 c 1,18,-1
 26 433 l 1,19,20
 39 458 39 458 60.5 481 c 128,-1,21
 82 504 82 504 112.5 521 c 128,-1,22
 143 538 143 538 182.5 548 c 128,-1,23
 222 558 222 558 270 558 c 0,24,25
 387 558 387 558 450.5 484 c 128,-1,26
 514 410 514 410 514 278 c 0,27,28
 514 213 514 213 499.5 161.5 c 128,-1,29
 485 110 485 110 459 74 c 128,-1,30
 433 38 433 38 395 19 c 128,-1,31
 357 0 357 0 311 0 c 2,32,-1
 223 0 l 1,33,-1
 142 232 l 1,0,-1
EndSplineSet
EndChar

